<svg width="78" height="61" viewBox="0 0 78 61" fill="none" xmlns="http://www.w3.org/2000/svg">
<path d="M57.1 8.569C56.216 8.569 55.5 7.85299 55.5 6.96899V2.048C55.5 1.164 54.784 0.447998 53.9 0.447998H24.1C23.216 0.447998 22.5 1.164 22.5 2.048V6.96899C22.5 7.85299 21.784 8.569 20.9 8.569H2.09998C1.21598 8.569 0.5 9.28501 0.5 10.169V58.961C0.5 59.845 1.21598 60.561 2.09998 60.561H75.9C76.784 60.561 77.5 59.845 77.5 58.961V10.169C77.5 9.28501 76.784 8.569 75.9 8.569H57.1ZM26.281 5.82901C26.281 4.94501 26.998 4.229 27.881 4.229H50.119C51.002 4.229 51.719 4.94501 51.719 5.82901V6.95999C51.719 7.84399 51.002 8.56 50.119 8.56H27.881C26.998 8.56 26.281 7.84399 26.281 6.95999V5.82901ZM73.719 55.18C73.719 56.063 73.002 56.78 72.119 56.78H5.88098C4.99798 56.78 4.28101 56.063 4.28101 55.18V54.186C4.28101 53.302 4.99798 52.586 5.88098 52.586H72.119C73.002 52.586 73.719 53.302 73.719 54.186V55.18ZM73.719 49.602C73.719 50.486 73.002 51.202 72.119 51.202H5.88098C4.99798 51.202 4.28101 50.486 4.28101 49.602V13.95C4.28101 13.066 4.99798 12.35 5.88098 12.35H72.119C73.002 12.35 73.719 13.066 73.719 13.95V49.602Z" fill="#644FC1"/>
</svg>
