<svg width="468" height="325" viewBox="0 0 468 325" fill="none" xmlns="http://www.w3.org/2000/svg">
<path d="M467.704 173.774H191.797V323.342H467.704V173.774Z" fill="#EDE9FE"/>
<path fill-rule="evenodd" clip-rule="evenodd" d="M324.554 163.578C326.409 163.058 327.934 162.586 328.314 162.349C332.774 159.573 336.539 154.99 338.536 149.789C340.466 144.77 340.949 139.199 338.606 134.272C335.796 138.314 331.339 141.06 327.276 141.381C322.751 141.738 318.401 139.525 316.216 133.123C313.641 125.576 318.656 119.568 326.149 118.062C329.016 117.486 332.299 117.658 335.556 118.823C335.356 116.878 334.874 114.976 334.166 113.145C332.301 108.319 328.986 103.964 325.049 100.597C324.041 99.785 323.884 98.309 324.694 97.302C325.504 96.295 326.981 96.136 327.989 96.948C332.796 100.591 336.906 105.458 339.406 110.94C341.069 114.587 341.984 118.508 341.934 122.56C344.014 124.339 345.939 126.665 347.569 129.612C351.651 136.994 351.716 145.612 349.196 153.53C346.719 161.322 341.521 168.306 335.229 172.756C334.441 173.316 331.389 174.706 327.849 176.061C328.279 178.163 328.676 180.353 329.044 182.643C335.894 225.308 335.626 265.166 323.029 305.361C319.456 316.691 308.949 324.398 297.071 324.398C297.069 324.401 297.069 324.401 297.069 324.401C286.521 324.401 277.144 317.676 273.764 307.681C269.699 295.668 264.934 281.581 264.934 281.581H149.461C149.461 281.581 143.514 298.403 139.076 310.961C136.229 319.016 128.614 324.401 120.071 324.401H120.069C109.436 324.401 100.205 317.071 97.7971 306.713C95.0561 294.923 91.9531 281.581 91.9531 281.581H57.2152C53.1832 281.581 49.4011 279.223 47.9741 275.453C43.5291 263.711 34.6772 233.498 48.8272 198.236C49.8662 195.648 52.5551 194.101 55.3461 194.101C64.6011 194.093 85.0441 194.093 85.0441 194.093C85.0441 194.093 88.1351 147.012 130.771 122.185L119.174 100.05C119.174 100.05 138.566 92.41 155.734 114.492C196.649 104.864 232.729 103.829 278.676 117.461C289.431 120.634 299.159 126.586 306.881 134.716C312.256 140.364 316.491 146.022 319.851 152.44C321.659 155.894 323.211 159.568 324.554 163.578ZM334.056 128.59C332.691 127.622 331.236 127.059 329.801 126.88C326.576 126.476 323.146 127.704 323.984 130.726C324.704 133.334 326.431 134.205 328.284 133.631C330.566 132.923 332.826 131.037 334.056 128.59Z" fill="#E7E7E7"/>
<path fill-rule="evenodd" clip-rule="evenodd" d="M148.643 283.888L152.365 272.433C152.545 271.875 153.098 271.523 153.678 271.595C154.26 271.668 154.71 272.143 154.75 272.728L155.36 281.583H149.458L148.643 283.888ZM257.875 281.583L259.805 272.003C259.893 271.578 260.253 271.263 260.688 271.235C261.12 271.205 261.52 271.473 261.66 271.885C263.078 276.07 265.305 282.648 265.305 282.648L265.295 282.65L264.933 281.583H257.875ZM302.9 201.903C302.9 169.58 278.038 142.696 245.813 140.175C222.293 138.314 198.91 138.33 175.665 140.17C143.438 142.685 118.57 169.57 118.57 201.895C118.568 201.895 118.568 201.895 118.568 201.895C118.568 235.395 145.203 262.828 178.69 263.813C200.133 264.45 221.495 264.45 242.778 263.82C276.265 262.835 302.9 235.403 302.9 201.903ZM70.5984 194.198C72.5874 198.628 74.4154 204.643 75.6674 212.808C75.8764 214.17 74.9384 215.448 73.5754 215.655C72.2114 215.865 70.9344 214.928 70.7244 213.565C69.3204 204.408 67.2234 198.283 65.0664 194.2L69.2214 194.198H70.5984ZM80.3454 194.198C81.9184 197.6 83.3344 201.938 84.3714 207.468C84.6254 208.825 83.7314 210.133 82.3754 210.385C81.0194 210.64 79.7114 209.745 79.4574 208.39C78.2444 201.925 76.5184 197.383 74.7364 194.198H80.3454ZM327.845 176.06C328.278 178.163 324.193 162.502 324.553 163.578C326.405 163.058 327.933 162.586 328.313 162.349C328.585 162.179 328.858 162.002 329.125 161.818C330.15 165.135 331.34 169.385 332.39 174.19C331.115 174.758 329.535 175.413 327.845 176.06ZM338.605 134.272C338.145 135.287 342.255 128.437 341.933 122.56C343.525 123.923 345.028 125.606 346.375 127.644C345.715 130.84 344.273 134.966 341.158 138.994C340.873 139.362 340.505 139.63 340.1 139.789C339.925 137.904 339.448 136.046 338.605 134.272ZM335.553 118.822C335.983 124.102 333.713 129.269 334.055 128.589C332.69 127.622 331.235 127.059 329.798 126.879C329.675 126.864 329.553 126.851 329.43 126.84C331.405 123.581 331.088 120.047 330.548 117.779C332.183 117.884 333.873 118.221 335.553 118.822ZM130.74 122.202L132.588 125.892C133.205 127.126 132.705 128.629 131.473 129.247C130.238 129.865 128.735 129.365 128.118 128.131L126.473 124.846C127.85 123.94 129.273 123.058 130.74 122.202ZM157.468 117.377C157.468 117.377 155.038 113.597 155.733 114.492C157.41 114.097 159.08 113.717 160.745 113.35L161.553 114.493C162.348 115.62 162.078 117.181 160.953 117.977C159.825 118.773 158.263 118.504 157.468 117.377Z" fill="#505050"/>
<path d="M265.412 121.228H166.238L168.744 132.247H267.918L265.412 121.228Z" fill="black"/>
<path fill-rule="evenodd" clip-rule="evenodd" d="M174.711 140.253C175.033 140.222 175.351 140.195 175.671 140.17C198.916 138.33 222.298 138.314 245.818 140.176C250.556 140.546 255.133 141.443 259.496 142.806V195.031H174.711V140.253Z" fill="#8ABBB8"/>
<path fill-rule="evenodd" clip-rule="evenodd" d="M189.934 139.271C207.202 138.462 224.542 138.659 241.962 139.887C237.572 149.821 227.629 156.76 216.079 156.76C204.292 156.76 194.179 149.533 189.934 139.271Z" fill="#CAF2EF"/>
<path fill-rule="evenodd" clip-rule="evenodd" d="M201.797 195.031V170.676C201.797 167.771 204.152 165.415 207.054 165.415C209.959 165.415 212.314 167.771 212.314 170.676V195.031H201.797ZM219.362 195.031V176.886C219.362 173.983 221.719 171.626 224.622 171.626C227.524 171.626 229.882 173.983 229.882 176.886V195.031H219.362Z" fill="#CAF2EF"/>
<path d="M259.495 53.024H174.711V126.263H259.495V53.024Z" fill="#CAF2EF"/>
<path fill-rule="evenodd" clip-rule="evenodd" d="M187.883 126.263C189.015 111.688 201.215 100.198 216.078 100.198C230.94 100.198 243.14 111.688 244.273 126.263H187.883Z" fill="#8ABBB8"/>
<path fill-rule="evenodd" clip-rule="evenodd" d="M232.937 53.024V73.7761C232.937 76.6791 230.582 79.0361 227.68 79.0361C224.777 79.0361 222.42 76.6791 222.42 73.7761V53.024H232.937ZM215.372 53.024V67.5661C215.372 70.4691 213.015 72.8251 210.112 72.8251C207.21 72.8251 204.852 70.4691 204.852 67.5661V53.024H215.372Z" fill="#8ABBB8"/>
<path d="M174.793 221.075C189.545 221.075 201.504 209.236 201.504 194.633C201.504 180.029 189.545 168.19 174.793 168.19C160.041 168.19 148.082 180.029 148.082 194.633C148.082 209.236 160.041 221.075 174.793 221.075Z" fill="#FFEAB5"/>
<path fill-rule="evenodd" clip-rule="evenodd" d="M174.795 174.008C186.294 174.008 195.63 183.25 195.63 194.633C195.63 206.016 186.294 215.258 174.795 215.258C174.328 215.258 173.949 215.633 173.949 216.096C173.949 216.558 174.328 216.933 174.795 216.933C187.228 216.933 197.322 206.941 197.322 194.633C197.322 182.325 187.228 172.332 174.795 172.332C174.328 172.332 173.949 172.708 173.949 173.17C173.949 173.632 174.328 174.008 174.795 174.008Z" fill="#FAC370"/>
<path fill-rule="evenodd" clip-rule="evenodd" d="M174.793 215.258C163.294 215.258 153.958 206.016 153.958 194.633C153.958 183.25 163.294 174.008 174.793 174.008C175.26 174.008 175.64 173.632 175.64 173.17C175.64 172.708 175.26 172.332 174.793 172.332C162.359 172.332 152.266 182.325 152.266 194.633C152.266 206.941 162.359 216.933 174.793 216.933C175.26 216.933 175.64 216.558 175.64 216.096C175.64 215.633 175.26 215.258 174.793 215.258Z" fill="#FAC370"/>
<path fill-rule="evenodd" clip-rule="evenodd" d="M178.007 220.885L177.461 216.529C177.403 216.07 177.733 215.651 178.197 215.594C178.661 215.537 179.082 215.863 179.141 216.322L179.681 220.632C179.129 220.733 178.571 220.818 178.007 220.885ZM183.002 219.8L181.489 215.38C181.34 214.942 181.577 214.466 182.02 214.317C182.462 214.169 182.943 214.404 183.092 214.842L184.596 219.234C184.073 219.439 183.542 219.628 183.002 219.8ZM160.067 216.692L162.42 212.863C162.662 212.468 163.183 212.342 163.582 212.582C163.982 212.823 164.109 213.338 163.867 213.733L161.507 217.573C161.016 217.294 160.536 217 160.067 216.692ZM196.769 209.657L192.881 206.809C192.507 206.534 192.427 206.009 192.705 205.637C192.982 205.266 193.512 205.187 193.888 205.462L197.689 208.247C197.398 208.727 197.09 209.198 196.769 209.657ZM149.406 202.875L153.974 200.839C154.399 200.65 154.902 200.838 155.093 201.259C155.284 201.681 155.094 202.177 154.668 202.367L149.987 204.453C149.777 203.935 149.582 203.409 149.406 202.875ZM200.71 188.219C200.846 188.759 200.966 189.305 201.067 189.857L196.564 190.909C196.11 191.015 195.653 190.736 195.547 190.286C195.438 189.836 195.721 189.384 196.174 189.278L200.71 188.219ZM152.72 179.743L156.745 182.349C157.136 182.602 157.246 183.121 156.99 183.508C156.734 183.895 156.21 184.004 155.819 183.751L151.811 181.155C152.099 180.674 152.403 180.203 152.72 179.743ZM155.347 176.51L158.62 178.893C158.996 179.167 159.077 179.692 158.799 180.064C158.523 180.437 157.992 180.517 157.616 180.243L154.223 177.771C154.583 177.339 154.959 176.919 155.347 176.51ZM190.23 173.058C190.691 173.382 191.141 173.719 191.579 174.071L188.653 177.723C188.362 178.086 187.829 178.146 187.463 177.859C187.098 177.572 187.037 177.044 187.326 176.682L190.23 173.058ZM185.698 170.491C186.214 170.721 186.722 170.966 187.22 171.225L185.156 175.056C184.936 175.464 184.424 175.619 184.011 175.401C183.599 175.184 183.444 174.676 183.664 174.268L185.698 170.491ZM168.802 168.859L169.993 173.065C170.119 173.51 169.856 173.973 169.406 174.097C168.956 174.222 168.489 173.962 168.364 173.517L167.165 169.286C167.703 169.127 168.248 168.985 168.802 168.859Z" fill="#FAC370"/>
<path d="M116.996 52.885C131.748 52.885 143.707 41.046 143.707 26.443C143.707 11.839 131.748 0 116.996 0C102.244 0 90.2852 11.839 90.2852 26.443C90.2852 41.046 102.244 52.885 116.996 52.885Z" fill="#FFEAB5"/>
<path fill-rule="evenodd" clip-rule="evenodd" d="M116.994 5.81699C128.493 5.81699 137.829 15.059 137.829 26.442C137.829 37.826 128.493 47.067 116.994 47.067C116.527 47.067 116.148 47.443 116.148 47.905C116.148 48.367 116.527 48.743 116.994 48.743C129.427 48.743 139.521 38.75 139.521 26.442C139.521 14.134 129.427 4.14197 116.994 4.14197C116.527 4.14197 116.148 4.51698 116.148 4.97998C116.148 5.44198 116.527 5.81699 116.994 5.81699Z" fill="#FAC370"/>
<path fill-rule="evenodd" clip-rule="evenodd" d="M116.995 47.067C105.496 47.067 96.1598 37.826 96.1598 26.442C96.1598 15.059 105.496 5.81699 116.995 5.81699C117.463 5.81699 117.842 5.44198 117.842 4.97998C117.842 4.51698 117.463 4.14197 116.995 4.14197C104.562 4.14197 94.4688 14.134 94.4688 26.442C94.4688 38.75 104.562 48.743 116.995 48.743C117.463 48.743 117.842 48.367 117.842 47.905C117.842 47.443 117.463 47.067 116.995 47.067Z" fill="#FAC370"/>
<path fill-rule="evenodd" clip-rule="evenodd" d="M120.21 52.6951L119.664 48.3381C119.606 47.8791 119.936 47.4611 120.4 47.4041C120.864 47.3471 121.285 47.6731 121.344 48.1321L121.884 52.4421C121.333 52.5431 120.774 52.6281 120.21 52.6951ZM125.205 51.61L123.692 47.1901C123.543 46.7521 123.78 46.2761 124.223 46.1271C124.665 45.9791 125.146 46.2141 125.295 46.6521L126.799 51.0441C126.276 51.2491 125.745 51.438 125.205 51.61ZM102.27 48.5021L104.623 44.6731C104.865 44.2781 105.386 44.1521 105.785 44.3921C106.185 44.6321 106.312 45.1481 106.07 45.5431L103.71 49.3831C103.22 49.1041 102.739 48.8101 102.27 48.5021ZM138.972 41.4671L135.084 38.6191C134.71 38.3441 134.63 37.8191 134.908 37.4471C135.186 37.0751 135.715 36.9971 136.091 37.2721L139.892 40.0571C139.601 40.5371 139.293 41.0071 138.972 41.4671ZM91.6094 34.6841L96.1774 32.649C96.6024 32.459 97.1054 32.6481 97.2964 33.0691C97.4874 33.4911 97.2984 33.9871 96.8714 34.1771L92.1904 36.2631C91.9804 35.7451 91.7854 35.2191 91.6094 34.6841ZM142.913 20.0291C143.049 20.5691 143.169 21.1151 143.271 21.6671L138.767 22.7181C138.313 22.8251 137.856 22.5451 137.75 22.0961C137.641 21.6451 137.924 21.1941 138.378 21.0881L142.913 20.0291ZM94.9234 11.5531L98.9484 14.1591C99.3394 14.4121 99.4494 14.9311 99.1934 15.3181C98.9384 15.7051 98.4134 15.8141 98.0224 15.5611L94.0143 12.9651C94.3023 12.4841 94.6074 12.0131 94.9234 11.5531ZM97.5504 8.32007L100.823 10.7031C101.199 10.9771 101.28 11.5021 101.002 11.8741C100.727 12.2471 100.195 12.3271 99.8194 12.0531L96.4264 9.58109C96.7864 9.14909 97.1624 8.72907 97.5504 8.32007ZM132.434 4.86807C132.894 5.19207 133.344 5.52907 133.783 5.88107L130.856 9.53308C130.565 9.89508 130.032 9.95607 129.666 9.66907C129.301 9.38107 129.24 8.85407 129.529 8.49207L132.434 4.86807ZM127.901 2.30109C128.417 2.53009 128.925 2.77606 129.423 3.03506L127.36 6.86606C127.14 7.27406 126.627 7.42906 126.214 7.21106C125.802 6.99406 125.647 6.48606 125.867 6.07806L127.901 2.30109ZM111.005 0.669067L112.197 4.87408C112.322 5.32008 112.059 5.78207 111.609 5.90707C111.159 6.03207 110.692 5.77206 110.567 5.32706L109.368 1.09607C109.907 0.937069 110.452 0.795067 111.005 0.669067Z" fill="#FAC370"/>
<path d="M26.8047 150.146C41.5567 150.146 53.5148 138.307 53.5148 123.704C53.5148 109.1 41.5567 97.261 26.8047 97.261C12.0517 97.261 0.09375 109.1 0.09375 123.704C0.09375 138.307 12.0517 150.146 26.8047 150.146Z" fill="#FFEAB5"/>
<path fill-rule="evenodd" clip-rule="evenodd" d="M26.8069 103.079C38.3049 103.079 47.6409 112.321 47.6409 123.704C47.6409 135.087 38.3049 144.329 26.8069 144.329C26.3399 144.329 25.9609 144.704 25.9609 145.167C25.9609 145.629 26.3399 146.004 26.8069 146.004C39.2399 146.004 49.334 136.012 49.334 123.704C49.334 111.396 39.2399 101.403 26.8069 101.403C26.3399 101.403 25.9609 101.779 25.9609 102.241C25.9609 102.704 26.3399 103.079 26.8069 103.079Z" fill="#FAC370"/>
<path fill-rule="evenodd" clip-rule="evenodd" d="M30.0189 149.956L29.4719 145.6C29.4149 145.141 29.7449 144.722 30.2089 144.665C30.6719 144.608 31.094 144.934 31.153 145.393L31.6929 149.703C31.1409 149.805 30.5829 149.889 30.0189 149.956ZM35.0139 148.871L33.5009 144.451C33.3519 144.013 33.5889 143.537 34.0319 143.389C34.4739 143.24 34.954 143.475 35.103 143.913L36.608 148.305C36.085 148.51 35.5539 148.699 35.0139 148.871ZM12.0789 145.763L14.431 141.934C14.673 141.539 15.1949 141.413 15.5939 141.653C15.9929 141.894 16.1199 142.409 15.8779 142.804L13.5189 146.644C13.0279 146.365 12.5479 146.071 12.0789 145.763ZM48.78 138.728L44.8929 135.88C44.5189 135.605 44.4389 135.08 44.7169 134.708C44.9939 134.337 45.524 134.258 45.9 134.533L49.7009 137.318C49.4099 137.798 49.102 138.269 48.78 138.728ZM1.41797 131.946L5.98596 129.91C6.41096 129.721 6.91292 129.909 7.10492 130.33C7.29592 130.752 7.10593 131.248 6.67993 131.438L1.99792 133.524C1.78792 133.006 1.59397 132.48 1.41797 131.946ZM52.7219 117.29C52.8569 117.83 52.9779 118.376 53.0789 118.928L48.575 119.98C48.122 120.086 47.6649 119.807 47.5579 119.357C47.4499 118.907 47.7329 118.455 48.1859 118.349L52.7219 117.29ZM4.73193 108.814L8.75592 111.42C9.14692 111.673 9.25695 112.192 9.00195 112.58C8.74595 112.966 8.22193 113.075 7.83093 112.822L3.82294 110.226C4.11094 109.745 4.41493 109.274 4.73193 108.814ZM7.35797 105.581L10.632 107.964C11.007 108.238 11.0889 108.763 10.8109 109.135C10.5349 109.508 10.0039 109.588 9.62793 109.314L6.23492 106.842C6.59492 106.41 6.97097 105.99 7.35797 105.581ZM42.2419 102.129C42.7029 102.453 43.1529 102.79 43.5909 103.142L40.6649 106.794C40.3739 107.157 39.8409 107.217 39.4749 106.93C39.1089 106.643 39.049 106.115 39.338 105.753L42.2419 102.129ZM37.71 99.5621C38.226 99.7921 38.734 100.037 39.231 100.297L37.168 104.127C36.948 104.535 36.435 104.69 36.022 104.472C35.611 104.255 35.4549 103.747 35.6749 103.339L37.71 99.5621ZM20.814 97.9301L22.0049 102.136C22.1299 102.581 21.868 103.044 21.418 103.168C20.968 103.293 20.5009 103.033 20.3749 102.588L19.1769 98.3571C19.7149 98.1981 20.26 98.0561 20.814 97.9301Z" fill="#FAC370"/>
<path d="M391.773 114.39C406.525 114.39 418.484 102.551 418.484 87.948C418.484 73.344 406.525 61.505 391.773 61.505C377.021 61.505 365.062 73.344 365.062 87.948C365.062 102.551 377.021 114.39 391.773 114.39Z" fill="#FFEAB5"/>
<path fill-rule="evenodd" clip-rule="evenodd" d="M391.776 67.3221C403.274 67.3221 412.61 76.5641 412.61 87.9471C412.61 99.3301 403.274 108.572 391.776 108.572C391.309 108.572 390.93 108.948 390.93 109.41C390.93 109.872 391.309 110.248 391.776 110.248C404.208 110.248 414.303 100.255 414.303 87.9471C414.303 75.6391 404.208 65.6471 391.776 65.6471C391.309 65.6471 390.93 66.022 390.93 66.485C390.93 66.947 391.309 67.3221 391.776 67.3221Z" fill="#FAC370"/>
<path fill-rule="evenodd" clip-rule="evenodd" d="M391.777 108.572C380.277 108.572 370.941 99.3301 370.941 87.9471C370.941 76.5641 380.277 67.3221 391.777 67.3221C392.244 67.3221 392.623 66.947 392.623 66.485C392.623 66.022 392.244 65.6471 391.777 65.6471C379.343 65.6471 369.25 75.6391 369.25 87.9471C369.25 100.255 379.343 110.248 391.777 110.248C392.244 110.248 392.623 109.872 392.623 109.41C392.623 108.948 392.244 108.572 391.777 108.572Z" fill="#FAC370"/>
<path fill-rule="evenodd" clip-rule="evenodd" d="M394.989 114.2L394.442 109.844C394.385 109.385 394.715 108.966 395.178 108.909C395.642 108.852 396.064 109.178 396.123 109.637L396.663 113.947C396.111 114.048 395.552 114.133 394.989 114.2ZM399.983 113.115L398.47 108.695C398.321 108.257 398.558 107.781 399.002 107.632C399.443 107.484 399.924 107.719 400.073 108.157L401.578 112.549C401.055 112.754 400.523 112.943 399.983 113.115ZM377.048 110.007L379.401 106.178C379.643 105.783 380.164 105.657 380.564 105.897C380.963 106.138 381.09 106.653 380.848 107.048L378.489 110.888C377.998 110.609 377.517 110.315 377.048 110.007ZM413.75 102.972L409.862 100.124C409.488 99.849 409.409 99.324 409.686 98.952C409.964 98.581 410.494 98.502 410.869 98.777L414.671 101.562C414.38 102.042 414.072 102.513 413.75 102.972ZM366.387 96.1899L370.955 94.1539C371.38 93.9649 371.883 94.153 372.074 94.574C372.265 94.996 372.076 95.4919 371.649 95.6819L366.968 97.7679C366.758 97.2499 366.564 96.7239 366.387 96.1899ZM417.692 81.5339C417.827 82.0739 417.947 82.6199 418.049 83.1719L413.545 84.2239C413.092 84.3299 412.635 84.05 412.528 83.601C412.42 83.151 412.702 82.699 413.156 82.593L417.692 81.5339ZM369.701 73.0579L373.726 75.6639C374.117 75.9169 374.227 76.4359 373.971 76.8229C373.716 77.2099 373.191 77.319 372.8 77.066L368.792 74.47C369.08 73.989 369.385 73.5179 369.701 73.0579ZM372.328 69.825L375.601 72.2079C375.977 72.4819 376.058 73.007 375.781 73.379C375.505 73.752 374.973 73.8319 374.598 73.5579L371.204 71.0859C371.565 70.6539 371.941 70.234 372.328 69.825ZM407.212 66.3729C407.672 66.6969 408.122 67.0339 408.561 67.3859L405.635 71.038C405.343 71.401 404.81 71.461 404.445 71.174C404.079 70.887 404.018 70.3589 404.308 69.9969L407.212 66.3729ZM402.679 63.806C403.196 64.036 403.703 64.281 404.201 64.54L402.138 68.371C401.918 68.779 401.405 68.9339 400.992 68.7159C400.581 68.4989 400.425 67.9909 400.645 67.5829L402.679 63.806ZM385.783 62.174L386.975 66.3799C387.1 66.8249 386.838 67.2879 386.388 67.4119C385.937 67.5369 385.47 67.277 385.345 66.832L384.147 62.601C384.685 62.442 385.23 62.3 385.783 62.174Z" fill="#FAC370"/>
<path fill-rule="evenodd" clip-rule="evenodd" d="M296.516 55.734V51.563C296.516 50.873 297.076 50.313 297.766 50.313C298.456 50.313 299.016 50.873 299.016 51.563V55.734H303.186C303.876 55.734 304.436 56.294 304.436 56.984C304.436 57.673 303.876 58.234 303.186 58.234H299.016V62.404C299.016 63.094 298.456 63.654 297.766 63.654C297.076 63.654 296.516 63.094 296.516 62.404V58.234H292.344C291.654 58.234 291.094 57.673 291.094 56.984C291.094 56.294 291.654 55.734 292.344 55.734H296.516Z" fill="#FD9500"/>
<path fill-rule="evenodd" clip-rule="evenodd" d="M92.6105 103.045V98.875C92.6105 98.185 93.1705 97.625 93.8605 97.625C94.5505 97.625 95.1105 98.185 95.1105 98.875V103.045H99.2805C99.9705 103.045 100.53 103.605 100.53 104.295C100.53 104.985 99.9705 105.545 99.2805 105.545H95.1105V109.716C95.1105 110.406 94.5505 110.966 93.8605 110.966C93.1705 110.966 92.6105 110.406 92.6105 109.716V105.545H88.4375C87.7475 105.545 87.1875 104.985 87.1875 104.295C87.1875 103.605 87.7475 103.045 88.4375 103.045H92.6105Z" fill="#FD9500"/>
<path fill-rule="evenodd" clip-rule="evenodd" d="M378.146 145.808V141.637C378.146 140.947 378.706 140.387 379.396 140.387C380.086 140.387 380.646 140.947 380.646 141.637V145.808H384.816C385.506 145.808 386.066 146.368 386.066 147.058C386.066 147.747 385.506 148.308 384.816 148.308H380.646V152.478C380.646 153.168 380.086 153.728 379.396 153.728C378.706 153.728 378.146 153.168 378.146 152.478V148.308H373.973C373.283 148.308 372.723 147.747 372.723 147.058C372.723 146.368 373.283 145.808 373.973 145.808H378.146Z" fill="#FD9500"/>
</svg>
