<svg width="19" height="16" viewBox="0 0 19 16" fill="none" xmlns="http://www.w3.org/2000/svg">
<path d="M16.0917 1.75977C14.8517 1.15977 13.5318 0.74 12.1718 0.5C11.9918 0.84 11.8218 1.20006 11.6718 1.56006C10.2318 1.34006 8.76168 1.34006 7.32168 1.56006C7.17168 1.20006 7.01168 0.84 6.82168 0.5C5.47168 0.74 4.15176 1.15977 2.90176 1.75977C0.42176 5.57977 -0.258309 9.31023 0.0816912 12.9902C1.53169 14.1002 3.16175 14.95 4.89175 15.5C5.28175 14.95 5.62178 14.38 5.92178 13.77C5.36178 13.55 4.81178 13.28 4.30178 12.96C4.43178 12.86 4.57168 12.7599 4.69168 12.6499C6.20168 13.3899 7.84173 13.77 9.50173 13.77C11.1617 13.77 12.8018 13.3899 14.3118 12.6499C14.4418 12.7599 14.5717 12.87 14.7017 12.96C14.1917 13.28 13.6417 13.55 13.0817 13.77C13.3717 14.38 13.7217 14.96 14.1117 15.5C15.8417 14.96 17.4718 14.1102 18.9218 12.9902C19.3118 8.73023 18.2517 5.02977 16.0917 1.75977ZM6.3417 10.73C5.4117 10.73 4.63174 9.84 4.63174 8.75C4.63174 7.66 5.3817 6.77002 6.3417 6.77002C7.3017 6.77002 8.07178 7.66 8.05178 8.75C8.04178 9.84 7.3017 10.73 6.3417 10.73ZM12.6618 10.73C11.7218 10.73 10.9517 9.84 10.9517 8.75C10.9517 7.66 11.6918 6.77002 12.6618 6.77002C13.6218 6.77002 14.3817 7.66 14.3617 8.75C14.3517 9.84 13.6118 10.73 12.6618 10.73Z" fill="#644FC1"/>
</svg>
