<svg width="1410" height="470" viewBox="0 0 1410 470" fill="none" xmlns="http://www.w3.org/2000/svg">
<g filter="url(#filter0_d_13_2)">
<mask id="mask0_13_2" style="mask-type:luminance" maskUnits="userSpaceOnUse" x="27" y="23" width="1360" height="420">
<path d="M27 43C27 31.9543 35.954 23 47 23H1367C1378.05 23 1387 31.9543 1387 43V423C1387 434.046 1378.05 443 1367 443H47C35.954 443 27 434.046 27 423V43Z" fill="white"/>
</mask>
<g mask="url(#mask0_13_2)">
<path d="M27 43C27 31.9543 35.954 23 47 23H1367C1378.05 23 1387 31.9543 1387 43V423C1387 434.046 1378.05 443 1367 443H47C35.954 443 27 434.046 27 423V43Z" fill="#C7C6C6"/>
<path d="M1387 102.672H843V443H1387V102.672Z" fill="#C7C6C6"/>
<path d="M894.97 465.623C856.66 445.817 800.17 441.187 743.87 453.235C705.81 461.378 671.32 476.105 644.11 495.823C642.53 496.971 642.16 499.385 643.29 501.216C644.42 503.047 646.62 503.601 648.2 502.454C674.7 483.246 708.37 468.885 745.59 460.922C800.5 449.173 855.35 453.57 892.32 472.682C893.04 473.055 893.8 473.146 894.5 472.996C895.55 472.772 896.46 472.007 896.9 470.838C897.64 468.888 896.77 466.553 894.97 465.623Z" fill="#BBBABD"/>
<path d="M878.2 447.381C878.72 447.523 879.23 447.532 879.71 447.43C881 447.154 882.04 446.065 882.31 444.538C882.66 442.445 881.4 440.325 879.49 439.804C848.36 431.294 812 429.055 774.36 433.33C772.44 433.546 771.14 435.464 771.45 437.609C771.76 439.754 773.57 441.317 775.49 441.1C812.34 436.915 847.85 439.088 878.2 447.381Z" fill="#BBBABD"/>
<path d="M641.63 486.65C641.98 486.575 642.32 486.439 642.64 486.235C671.01 468.311 705.5 454.667 742.38 446.779C744.27 446.375 745.41 444.329 744.94 442.207C744.46 440.085 742.55 438.691 740.66 439.095C703.07 447.135 667.88 461.065 638.9 479.379C637.25 480.419 636.76 482.796 637.79 484.689C638.62 486.213 640.19 486.958 641.63 486.65Z" fill="#BBBABD"/>
<path d="M885.52 423.514C841.62 413.157 789.05 413.535 737.49 424.577C697.75 433.09 660.13 447.55 628.7 466.394C627.04 467.394 626.5 469.76 627.49 471.679C628.49 473.596 630.66 474.343 632.32 473.341C663.17 454.847 700.13 440.646 739.22 432.274C789.88 421.422 841.46 421.032 884.46 431.174C884.94 431.288 885.41 431.288 885.85 431.193C887.18 430.908 888.25 429.753 888.47 428.164C888.77 426.05 887.45 423.967 885.52 423.514Z" fill="#BBBABD"/>
<path d="M628.55 457.018C660.77 439.472 696.93 426.327 736.03 417.949C786.13 407.215 836.14 405.576 880.66 413.209C881.07 413.28 881.47 413.269 881.85 413.187C883.25 412.886 884.35 411.621 884.49 409.937C884.68 407.799 883.26 405.796 881.32 405.464C836.01 397.695 785.17 399.35 734.31 410.249C694.62 418.752 657.9 432.105 625.16 449.937C623.46 450.865 622.84 453.203 623.77 455.158C624.71 457.114 626.85 457.945 628.55 457.018Z" fill="#BBBABD"/>
<path d="M624.92 441.147C657.85 424.527 694.16 411.897 732.84 403.606C782.06 393.056 831.91 390.455 876.99 396.083C877.35 396.128 877.7 396.111 878.04 396.039C879.5 395.726 880.61 394.376 880.69 392.627C880.79 390.475 879.3 388.535 877.36 388.293C831.58 382.578 781.01 385.21 731.12 395.904C691.92 404.305 655.1 417.113 621.7 433.973C619.97 434.846 619.29 437.159 620.18 439.141C621.06 441.122 623.19 442.021 624.92 441.147Z" fill="#BBBABD"/>
<path d="M873.57 371.701C827.55 367.582 777.2 370.973 727.96 381.51C726.08 381.913 724.94 383.961 725.41 386.084C725.89 388.208 727.8 389.602 729.69 389.199C778.32 378.791 828.02 375.438 873.42 379.502C873.75 379.531 874.06 379.51 874.36 379.446C875.86 379.125 876.98 377.711 877.02 375.916C877.06 373.763 875.52 371.875 873.57 371.701Z" fill="#BBBABD"/>
<path d="M628.81 413.62C627.04 414.402 626.26 416.67 627.07 418.683C627.79 420.471 629.52 421.458 631.13 421.113C631.34 421.069 631.54 421.003 631.74 420.914C656.95 409.753 683.93 400.542 711.94 393.536C713.81 393.068 714.89 390.979 714.36 388.869C713.83 386.76 711.82 385.441 710.01 385.895C681.66 392.988 654.34 402.315 628.81 413.62Z" fill="#BBBABD"/>
<path d="M617.96 410.172C651.73 394.994 688.23 383.141 726.46 374.944C775.32 364.469 823.58 360.594 869.92 363.429C870.22 363.447 870.5 363.425 870.77 363.366C872.3 363.038 873.44 361.566 873.43 359.728C873.42 357.565 871.84 355.716 869.89 355.597C822.98 352.727 774.15 356.644 724.74 367.238C686.08 375.526 649.16 387.515 614.99 402.872C613.23 403.665 612.46 405.942 613.28 407.958C614.1 409.974 616.19 410.965 617.96 410.172Z" fill="#BBBABD"/>
<path d="M615.67 394.47C649.44 380.063 685.64 368.667 723.27 360.597C771.58 350.236 819.55 345.856 865.84 347.578C866.11 347.588 866.37 347.565 866.61 347.512C868.18 347.177 869.31 345.658 869.27 343.789C869.22 341.624 867.6 339.81 865.66 339.738C818.85 337.996 770.36 342.421 721.54 352.89C683.53 361.042 646.95 372.559 612.82 387.121C611.04 387.88 610.24 390.14 611.02 392.169C611.81 394.198 613.89 395.231 615.67 394.47Z" fill="#BBBABD"/>
<path d="M614.96 378.316C648.24 364.873 683.6 354.09 720.08 346.266C767.29 336.139 814.4 331.324 860.09 331.955C860.33 331.958 860.57 331.934 860.79 331.886C862.38 331.545 863.53 329.978 863.45 328.081C863.35 325.914 861.71 324.135 859.76 324.108C813.6 323.472 766.02 328.334 718.35 338.558C681.53 346.456 645.82 357.344 612.21 370.921C610.42 371.644 609.58 373.886 610.34 375.929C611.1 377.971 613.17 379.045 614.96 378.316Z" fill="#BBBABD"/>
<path d="M615.98 361.689C648.17 349.396 682.11 339.381 716.88 331.922C762.44 322.15 808.06 317 852.49 316.616C852.7 316.614 852.91 316.59 853.12 316.547C854.73 316.2 855.88 314.588 855.76 312.661C855.63 310.495 853.95 308.751 852.01 308.768C807.17 309.156 761.12 314.352 715.16 324.211C680.08 331.737 645.83 341.842 613.35 354.249C611.55 354.938 610.68 357.163 611.4 359.217C612.13 361.271 614.17 362.379 615.98 361.689Z" fill="#BBBABD"/>
<path d="M753.42 306.092C753.79 308.233 755.64 309.732 757.55 309.44C786.1 305.074 814.79 302.41 842.81 301.52C843 301.515 843.18 301.492 843.36 301.453C845.01 301.101 846.16 299.445 846 297.498C845.83 295.338 844.12 293.636 842.19 293.698C813.92 294.596 784.98 297.283 756.19 301.686C754.28 301.974 753.04 303.95 753.42 306.092Z" fill="#BBBABD"/>
<path d="M711.97 309.973C686.48 315.437 661.24 322.218 636.97 330.13C635.14 330.727 634.18 332.898 634.82 334.98C635.43 336.943 637.26 338.124 639 337.75C639.1 337.728 639.21 337.699 639.31 337.665C663.38 329.82 688.41 323.094 713.69 317.675C720.21 316.278 726.83 314.951 733.36 313.729C735.31 313.389 736.45 311.355 736.02 309.22C735.58 307.084 733.7 305.64 731.8 305.993C725.21 307.227 718.54 308.564 711.97 309.973Z" fill="#BBBABD"/>
<path d="M624.37 326.922C652.16 317.539 681.14 309.586 710.51 303.283C745.23 295.832 780.33 290.72 814.84 288.088C814.98 288.078 815.12 288.058 815.26 288.029C816.96 287.663 818.11 285.909 817.88 283.906C817.64 281.743 815.87 280.108 813.94 280.256C779.16 282.908 743.78 288.06 708.78 295.569C679.19 301.92 649.98 309.937 621.96 319.395C620.14 320.013 619.19 322.197 619.85 324.276C620.52 326.355 622.53 327.542 624.37 326.922Z" fill="#BBBABD"/>
<path d="M632.8 308.563C657.02 300.96 682.09 294.359 707.31 288.946C735.36 282.925 763.79 278.327 791.8 275.276C791.9 275.264 792.01 275.247 792.11 275.224C793.86 274.85 795.01 273.025 794.73 270.989C794.42 268.832 792.62 267.251 790.7 267.461C762.48 270.534 733.85 275.168 705.59 281.233C680.18 286.686 654.93 293.335 630.53 300.995C628.69 301.573 627.7 303.735 628.33 305.825C628.96 307.916 630.98 309.139 632.8 308.563Z" fill="#BBBABD"/>
<path d="M694.9 268.499C693.01 268.919 691.88 270.982 692.37 273.105C692.86 275.22 694.77 276.598 696.64 276.196C696.65 276.194 696.66 276.192 696.67 276.191C729.32 268.902 762.72 263.397 795.56 259.918C795.67 259.906 795.78 259.888 795.89 259.865C797.63 259.492 798.78 257.677 798.5 255.646C798.2 253.492 796.4 251.91 794.48 252.113C763.92 255.351 732.95 260.311 702.41 266.856C699.9 267.394 697.39 267.942 694.9 268.499Z" fill="#BBBABD"/>
<path d="M654.15 286.87C654.2 286.858 654.26 286.844 654.32 286.827C663.19 284.385 672.26 282.043 681.28 279.867C683.15 279.414 684.25 277.337 683.73 275.226C683.21 273.115 681.26 271.756 679.4 272.222C670.32 274.414 661.19 276.772 652.25 279.232C650.39 279.744 649.35 281.859 649.92 283.956C650.48 285.987 652.34 287.256 654.15 286.87Z" fill="#BBBABD"/>
<path d="M710.05 258.322C728.89 254.481 747.99 251.203 766.83 248.574C766.91 248.564 766.98 248.55 767.06 248.534C768.84 248.152 769.99 246.266 769.65 244.206C769.3 242.059 767.46 240.536 765.55 240.803C746.59 243.448 727.35 246.75 708.38 250.615C706.56 251.001 705.34 253.038 705.79 255.166C706.25 257.294 708.16 258.707 710.05 258.322Z" fill="#BBBABD"/>
<path d="M667.46 268.108C667.5 268.1 667.54 268.091 667.58 268.081C677.73 265.51 688.26 263.041 698.9 260.742C700.78 260.335 701.92 258.286 701.44 256.164C700.96 254.045 699.05 252.657 697.17 253.059C697.16 253.059 697.16 253.06 697.16 253.06C686.46 255.374 675.85 257.86 665.63 260.449C663.76 260.923 662.68 263.015 663.22 265.122C663.75 267.187 665.63 268.5 667.46 268.108Z" fill="#BBBABD"/>
<path fill-rule="evenodd" clip-rule="evenodd" d="M94.807 262.762C97.362 261.792 100.101 261.38 102.901 261.691C105.277 261.954 107.669 262.127 110.024 262.499C112.581 262.905 114.823 262.322 116.685 260.776C118.925 258.916 121.097 256.98 122.548 254.44C124.146 251.645 126.341 249.237 128.783 247.041C130.466 245.528 132.662 245.757 134.469 246.366C136.044 246.898 135.09 248.599 135.097 249.813C135.102 250.749 135.016 251.58 134.37 252.406C133.92 252.978 133.53 253.836 134.543 254.705C137.069 252.808 137.047 249.775 138.442 247.437C139.871 245.038 140.346 242.201 142.421 239.836C141.39 245.929 138.649 251.305 136.675 257.075C137.974 256.884 138.162 256.147 138.55 255.604C142.165 250.525 144.447 244.952 145.73 239.004C146.023 237.641 146.177 236.049 147.862 235.604C149.739 235.107 151.449 233.946 153.529 234.155C154.557 237.197 153.852 240.363 154.339 243.49C156.866 243.039 157.663 240.695 159.828 240.09C161.274 246.193 156.512 250.916 155.814 256.689C157.268 255.849 157.613 254.685 158.181 253.664C161.389 247.902 162.987 241.711 163.761 235.316C163.903 234.137 163.866 232.724 164.777 232.033C167.185 230.208 169.82 228.4 173.169 228.915C175.045 229.203 176.636 228.914 178.267 228.234C179.97 227.524 181.667 226.805 183.382 226.118C185.358 225.325 187.383 224.732 189.583 225.028C192.386 225.406 193.046 225.969 193.11 228.599C193.205 232.34 192.979 236.079 192.831 239.822C192.654 244.248 192.099 248.424 189.44 252.318C187.32 255.421 185.876 258.949 183.108 261.648C179.215 265.442 175.882 269.637 172.491 273.799C171.823 274.619 171.042 275.332 170.057 275.93C166.731 277.944 163.373 279.782 159.653 281.198C154.912 283.004 150.417 285.388 145.874 287.625C141.686 289.686 137.856 292.564 133.219 293.591C129.297 294.459 125.501 295.519 121.793 296.936L121.801 296.946C123.427 296.853 125.023 296.609 126.631 296.352C129.214 295.942 131.99 294.612 134.388 295.555C137.729 296.869 140.37 295.605 143.281 294.793C144.689 294.401 146 293.605 147.59 293.82C148.889 293.998 149.365 294.774 148.578 295.696C148.123 296.228 147.512 296.694 146.879 297.036C142.084 299.628 137.938 303.118 133.032 305.576C135.68 305.123 137.836 303.707 140.188 302.694C142.58 301.664 144.475 299.662 147.583 299.226C147.08 301.127 145.664 301.964 144.686 303.092C143.704 304.229 142.041 304.821 141.629 306.407C140.875 306.207 140.395 306.479 140.139 307.145C139.187 307.352 138.42 307.812 137.896 308.592C137.448 308.65 137.035 308.742 137.155 309.307C136.194 309.143 135.573 309.664 134.64 310.59C135.956 310.432 136.678 310.109 137.168 309.319C137.622 309.266 138.043 309.185 137.914 308.606C139.093 308.707 139.829 308.211 140.16 307.168C140.864 307.287 141.369 307.053 141.648 306.432C142.79 305.743 143.934 305.054 144.951 304.442C147.881 305.427 149.001 307.973 150.832 309.822C152.631 311.645 151.843 314.432 149.429 315.591C147.244 316.638 145.089 317.679 142.692 318.422C139.193 319.505 135.981 321.392 132.153 323.165C133.683 323.588 134.366 323.268 135.085 323.06C139.652 321.744 143.967 319.827 148.402 318.196C151.967 316.887 153.253 317.227 154.895 320.417C155.356 321.31 156.131 321.847 156.753 322.554C158.075 324.06 158.099 328.2 156.603 329.508C153.837 331.93 150.679 333.617 146.726 333.835C145.292 333.912 143.571 333.518 142.276 334.922C144.773 335.151 147.02 335.381 149.274 335.553C151.66 335.735 154.064 335.752 156.434 336.042C159.74 336.448 160.241 337.62 158.546 340.312C158.218 340.836 157.554 341.466 158.432 342.228C159.467 341.951 160.531 341.596 161.629 341.386C163.25 341.08 164.62 341.386 165.071 343.111C165.843 346.067 168.182 347.908 170.412 349.886C174.712 353.708 175.041 358.144 171.566 362.614C171.021 363.317 170.082 363.874 170.219 365.21C171.66 364.674 172.518 363.726 173.398 362.829C178.733 357.407 183.693 351.714 187.946 345.507C188.757 344.323 189.703 343.204 191.098 342.549C191.948 342.149 192.9 342.143 193.485 342.862C193.868 343.333 194.657 343.738 194.211 344.648C192.56 348.021 192.95 351.73 192.276 355.266C192.009 356.666 191.628 358.066 192.06 359.913C194.565 355.581 195.378 351.26 196.187 346.946C196.744 343.979 196.889 340.675 198.71 338.312C201.318 334.929 204.178 331.689 206.759 328.263C207.224 327.646 208.128 327.251 209.043 327.15C209.988 327.043 210.633 327.139 210.939 328.245C211.372 329.805 211.084 331.388 211.301 333.319C213.668 329.614 216.643 328.027 220.901 329.544C226.241 328.6 226.15 333.238 228.141 335.846C228.386 332.884 228.276 330.095 228.3 327.31C228.318 325.296 229.138 323.528 231.36 322.936C236.517 321.564 241.651 319.867 247.17 321.495C249.423 322.161 249.816 322.353 249.508 324.473C249.352 325.547 249.456 326.703 248.182 327.558C247.522 328.001 246.705 329.104 247.546 330.418C250.669 328.373 253.26 326.016 255.732 323.546C258.5 320.781 261.847 318.772 265.367 316.955C266.778 316.23 268.085 315.989 269.719 316.992C261.596 325.622 256.216 335.378 253.374 346.819C254.121 346.411 254.432 346.345 254.521 346.175C254.911 345.447 255.256 344.695 255.585 343.938C258.661 336.841 263.243 330.583 268.587 324.857C271.615 321.609 275.588 319.612 280.564 320.079C284.82 320.479 286.724 323.204 285.692 327.109C285.332 328.469 284.557 329.353 283.704 330.334C282.697 331.492 281.628 332.555 280.913 333.981C278.412 338.951 278.821 343.754 281.311 348.549C282.868 351.546 282.944 354.52 281.451 357.596C280.562 359.426 279.274 360.974 278.004 362.55C272.625 369.23 265.673 374.567 259.871 380.883C256.993 384.012 253.233 386.145 249.994 388.858C249.609 389.181 249.239 389.459 248.687 389.409C244.431 389.02 240.945 391.127 237.158 392.344C235.369 392.918 233.682 393.862 231.652 393.942C223.101 394.279 214.614 394.421 206.07 393.164C200.396 392.329 195.731 390.324 191.756 386.649C190.007 385.03 188.292 383.382 186.054 381.267C187.007 384.577 189.03 386.454 190.938 388.391C193.137 390.624 195.428 392.782 197.559 395.068C199.208 396.839 198.63 398.184 196.172 398.625C195.809 398.689 195.411 398.579 195.047 398.641C190.108 399.481 185.296 397.975 180.395 397.963C176.869 397.956 173.343 397.528 169.649 397.276C170.363 399.095 172.003 398.391 172.996 399.038C173.926 399.645 174.4 400.367 174.069 401.365C173.805 402.163 173.311 402.864 172.185 402.651C170.773 402.387 169.407 402.748 168.089 403.064C161.758 404.577 155.332 404.129 148.919 403.987C147.043 403.945 145.335 402.895 143.392 403.14C142.776 403.218 142.579 402.669 142.275 402.34C140.834 400.797 139.831 399.131 140.221 396.938C140.466 395.561 140.737 394.093 140.477 392.754C140.113 390.88 140.805 389.636 142.235 388.494C142.997 387.887 143.736 387.22 144.335 386.477C146.407 383.906 148.522 381.339 148.78 377.868C147.264 380.597 144.227 382.01 142.515 384.6C141.398 386.286 139.9 388.043 137.095 387.041C137.521 385.04 140.339 384.467 140.33 382.02C138.326 382.756 136.799 383.718 135.818 384.981C134.947 386.096 133.79 386.737 132.7 387.41C129.136 389.615 124.347 389.108 122.441 385.944C119.716 381.425 116.439 377.162 114.663 372.147C113.38 368.533 112.422 364.707 110.081 361.563C108.508 359.445 108.869 357.925 109.925 355.854C113.463 348.896 117.579 342.266 122.291 335.945C122.481 335.811 122.714 335.709 122.851 335.54C123.108 335.227 123.675 334.842 123.225 334.484C122.818 334.162 122.408 334.714 122.042 334.942C121.868 335.049 121.792 335.294 121.671 335.476C120.268 335.963 119.305 337.101 118.881 338.198C116.902 343.339 112.398 343.588 107.659 343.548C107.407 343.545 107.155 343.58 106.905 343.585C103.514 343.647 103.07 342.854 104.372 339.776C104.986 338.328 106.433 337.145 106.271 335.311C105.263 335.278 104.386 335.252 103.508 335.218C99.593 335.067 98.731 334.576 98.029 330.906C97.242 326.79 96.676 322.669 95.206 318.663C94.456 316.615 93.1 314.569 93.341 312.1C98.06 311.987 102.349 314.733 107.407 312.853C104.78 311.534 102.129 311.31 99.731 310.822C95.208 309.902 92.593 307.417 90.96 303.701C89.94 301.381 90.062 301.121 92.303 299.743C99.012 295.622 105.736 291.528 112.432 287.392C113.68 286.621 115.128 286.042 116.126 284.591C108.596 287.076 102.493 291.477 95.865 295.062C93.406 288.92 93.409 288.928 99.956 287.544C102.267 287.054 104.61 286.616 106.809 284.612C102.745 285.508 99.199 286.256 95.67 287.073C89.899 288.408 86.051 285.968 85.462 280.538C85.348 279.491 85.241 278.444 85.18 277.393C84.962 273.416 90.85 264.264 94.807 262.762ZM133.631 311.221C133.687 311.269 133.805 311.323 133.861 311.3C134.168 311.169 134.157 311.025 133.834 310.935C133.777 310.918 133.687 311 133.612 311.035C133.616 311.101 133.594 311.189 133.631 311.221ZM132.133 311.97C132.187 312.019 132.305 312.072 132.361 312.051C132.666 311.922 132.658 311.781 132.338 311.687C132.28 311.669 132.19 311.751 132.123 311.783C132.124 311.848 132.097 311.938 132.133 311.97ZM266.483 333.932C267.925 331.157 270.037 328.851 272.233 326.584C273.289 325.497 274.78 324.678 275.091 323.06C275.096 323.057 275.099 323.055 275.103 323.052C275.113 323.04 275.122 323.028 275.13 323.018C275.231 322.94 275.333 322.862 275.436 322.786C275.379 322.803 275.305 322.803 275.269 322.836C275.214 322.886 275.174 322.954 275.13 323.018C275.119 323.027 275.106 323.036 275.097 323.045C275.096 323.051 275.094 323.055 275.092 323.061C270.083 325.735 266.433 329.379 264.717 334.646C266.313 335.188 266.267 334.351 266.483 333.932ZM246.793 331.097C246.879 331.061 246.965 331.02 247.053 330.98C246.964 330.862 246.878 330.745 246.789 330.626C246.702 330.705 246.616 330.786 246.529 330.864C246.619 330.942 246.707 331.019 246.793 331.097ZM149.464 377.143C149.517 377.152 149.688 376.95 149.666 376.886C149.601 376.685 149.468 376.505 149.362 376.318C149.304 376.417 149.246 376.517 149.186 376.618C149.059 376.892 149.148 377.087 149.464 377.143ZM141.055 382.323C141.234 382.086 141.413 381.849 141.593 381.611C141.917 381.579 142.302 381.473 142.051 381.128C141.828 380.821 141.513 381.055 141.325 381.323C141.098 381.523 140.868 381.725 140.642 381.925C140.779 382.057 140.917 382.19 141.055 382.323ZM130.634 312.699C130.688 312.749 130.807 312.804 130.864 312.781C131.172 312.651 131.163 312.506 130.838 312.412C130.782 312.394 130.691 312.477 130.622 312.51C130.623 312.577 130.597 312.667 130.634 312.699ZM129.251 313.52C129.328 313.484 129.404 313.446 129.479 313.408C129.394 313.313 129.31 313.219 129.225 313.124C129.149 313.196 129.073 313.266 128.999 313.336C129.084 313.396 129.167 313.459 129.251 313.52ZM127.717 313.721C124.715 314.958 121.713 316.192 118.71 317.428C121.956 316.909 125.041 315.766 127.717 313.721ZM116.813 318.662C117.012 318.629 117.201 318.544 117.422 318.471C117.269 318.387 117.125 318.242 117.002 318.259C116.839 318.281 116.692 318.424 116.536 318.517C116.63 318.568 116.731 318.675 116.813 318.662ZM113.018 311.972C116.06 313.142 116.06 313.142 118.931 310.685C116.613 310.836 114.827 310.883 113.018 311.972Z" fill="#ADA9BF"/>
<path fill-rule="evenodd" clip-rule="evenodd" d="M250.749 228.496C256.218 233.699 257.12 240.008 256.149 246.844C256.019 247.765 255.389 248.282 254.872 248.905C251.953 252.441 249.034 255.947 247.822 260.414C247.492 261.624 246.363 262.619 245.233 263.339C243.406 264.504 241.418 265.445 239.569 266.58C238.136 267.46 236.491 267.516 234.92 267.768C233.275 268.032 232.603 267.176 233.135 265.68C233.367 265.029 233.819 264.447 234.14 263.821C235.003 262.134 235.6 260.387 235.535 258.453C233.023 262.115 230.092 265.41 227.219 268.75C226.59 269.48 226.007 270.24 225.112 270.681C221.448 272.489 217.886 274.54 214.056 275.969C211.077 277.082 207.845 278.434 204.631 275.774C203.3 274.673 201.426 274.665 199.481 275.734C196.784 277.216 193.748 278.176 190.832 279.3C190.311 279.501 189.618 279.533 189.167 278.772C189.641 277.523 191.201 276.763 191.362 275.274C191.41 274.822 191.731 274.332 191.171 274.055C190.702 273.823 190.136 273.963 189.83 274.377C188.318 276.417 186.247 277.972 184.466 279.78C181.911 282.371 178.791 283.611 174.945 283.336C175.214 281.591 177.41 281.041 177.731 278.881C176.249 279.672 175.295 280.293 174.451 281.156C171.736 283.921 168.422 285.437 164.295 285.145C163.539 285.089 162.686 285.172 162.382 284.36C162.054 283.488 162.48 282.8 163.292 282.288C163.81 281.96 164.274 281.562 164.791 281.234C168.421 278.939 171.93 276.443 175.721 274.404C183.342 270.301 188.498 264.461 191.106 256.683C192.192 253.449 193.666 250.417 195.668 247.576C196.893 245.838 197.433 243.018 199.069 242.351C201.548 241.339 201.373 239.684 201.646 238.12C202.049 235.79 203.013 233.784 204.846 231.965C204.136 238.056 203.423 244.148 202.714 250.239C202.974 250.267 203.235 250.296 203.497 250.323C206.604 241.992 205.762 233.057 207.589 224.601C209.054 224.155 209.796 224.962 210.566 225.753C212.246 227.474 212.272 227.487 214.001 225.838C215.408 224.494 216.862 223.204 218.615 222.256C219.779 221.628 220.759 222.1 221.734 222.754C222.325 223.151 222.634 223.652 222.399 224.232C220.747 228.339 220.677 232.829 218.823 236.882C218.478 237.632 218.134 238.361 218.49 239.672C219.896 234.87 222.361 231.083 225.38 227.48C227.064 225.469 228.861 224.725 231.399 224.752C236.071 224.803 240.677 225.461 245.307 225.925C247.511 226.142 249.213 227.033 250.749 228.496ZM178.173 278.664C178.147 278.72 178.276 278.913 178.339 278.917C178.719 278.936 178.88 278.699 178.956 278.392C178.62 278.297 178.326 278.337 178.173 278.664ZM178.956 278.392C178.956 278.391 178.956 278.389 178.956 278.389C179.111 278.255 179.264 278.122 179.419 277.989C178.977 277.834 178.793 277.938 178.956 278.392ZM193.635 269.513C197.269 267.545 199.707 263.451 200.16 258.553C198.319 260.183 195.193 265.434 193.635 269.513ZM200.075 242.379C199.276 243.139 199.151 244.021 199.466 244.987C198.461 245.438 198.623 246.137 198.953 246.911C199.844 246.434 199.69 245.734 199.538 245.037C200.573 244.29 200.293 243.331 200.075 242.379Z" fill="#ADA9BF"/>
<path fill-rule="evenodd" clip-rule="evenodd" d="M337.572 297.821C336.54 297.504 336.214 296.967 336.526 295.711C337.767 290.712 340.114 286.608 345.377 284.321C346.947 283.639 348.376 282.664 349.823 281.758C351.564 280.665 353.688 280.024 355.156 278.174C352.459 277.827 350.587 279.928 348.114 279.338C351.284 277.299 354.836 275.948 358.025 273.989C351.689 274.649 346.25 277.518 340.595 279.976C341.827 278.589 343.197 277.419 344.584 276.271C349.727 272.011 355.153 268.03 359.243 262.769C360.501 261.152 362.333 260.196 364.48 259.605C369.017 258.355 373.472 259.317 377.9 259.875C380.522 260.205 383.207 260.658 385.615 262.05C387.129 262.923 387.985 263.823 388.246 265.48C388.956 269.963 388.171 274.325 387.149 278.657C386.862 279.869 386.115 281.069 384.879 281.791C382.292 283.302 379.991 285.212 377.189 286.432C372.707 288.381 369.269 291.608 365.969 294.88C361.837 298.977 357.249 301.07 351.186 299.155C349.508 298.626 347.798 298.533 345.988 298.788C343.124 299.191 340.3 298.654 337.572 297.821Z" fill="#ADA9BF"/>
<path fill-rule="evenodd" clip-rule="evenodd" d="M48.807 176.959C52.035 174.215 58.776 174.903 61.125 178.236C62.928 180.794 64.131 183.627 65.088 186.582C65.801 188.782 65.325 191.699 67.731 192.989C70.044 194.228 69.554 195.794 69.695 197.625C69.944 200.842 67.371 203.912 69.204 207.177C69.307 207.363 68.967 207.802 68.776 208.089C68.25 208.874 67.799 209.675 67.818 210.633C71.383 211.059 75.108 213.262 76.975 216.326C80.386 221.922 83.39 227.597 82.608 234.412C82.209 237.897 80.394 240.346 76.274 241.46C72.655 242.438 69.664 241.264 67.517 238.386C64.372 234.173 62.416 229.427 60.235 224.792C58.564 221.24 59.712 217.513 62.923 215.012C63.848 214.29 64.916 213.72 65.575 212.169C63.234 212.82 61.146 212.506 59.103 212.681C55.677 212.974 53.324 211.539 51.477 209.13C49.154 206.097 47.226 202.897 46.536 199.133C45.864 195.46 44.961 191.827 44.241 188.164C43.347 183.605 45.286 179.954 48.807 176.959Z" fill="#ADA9BF"/>
<path fill-rule="evenodd" clip-rule="evenodd" d="M141.399 140.408C141.266 144.308 138.723 146.89 134.644 147.055C132.869 147.126 131.471 147.317 130.115 148.784C128.329 150.716 125.414 150.397 123.045 149.998C121.322 149.708 121.507 147.606 121.064 146.198C119.918 142.532 119.844 138.575 117.564 135.208C117.198 134.665 117.136 133.843 117.196 133.171C117.565 128.989 117.723 124.766 118.501 120.645C119.404 115.881 123.791 112.582 128.668 112.589C130.277 112.707 132.156 112.895 134.04 112.966C135.751 113.031 136.736 113.924 137.599 115.173C141.472 120.766 142.217 127.024 141.868 133.426C141.747 135.746 141.479 138.076 141.399 140.408Z" fill="#ADA9BF"/>
<path fill-rule="evenodd" clip-rule="evenodd" d="M298.098 314.308C298.343 314.357 298.596 314.392 298.831 314.47C300.777 315.136 302.472 314.758 304.132 313.615C309.507 309.908 315.695 308.764 322.236 308.82C323.51 308.83 324.781 308.78 326.054 308.757C326.048 308.61 326.043 308.463 326.038 308.316C324.819 307.908 323.601 307.502 322.381 307.095C327.941 306.308 333.348 306.182 338.561 307.98C338.618 308.27 338.678 308.562 338.737 308.855C335.785 310.409 332.876 312.042 329.869 313.498C326.575 315.094 322.776 315.478 319.483 317.19C317.697 318.117 316.281 319.403 314.699 320.52C311.427 322.83 308.665 325.605 306.698 328.985C305.468 331.094 304.248 333.218 303.229 335.418C301.92 338.247 299.359 339.993 296.964 341.823C295.201 343.168 293.48 342.597 292.433 340.676C291.224 338.461 290.83 336.039 290.49 333.606C290.185 331.422 290.181 329.067 288.988 327.187C287.347 324.598 287.696 322.248 288.61 319.595C291.295 311.772 292.63 313.209 298.098 314.308Z" fill="#ADA9BF"/>
<path fill-rule="evenodd" clip-rule="evenodd" d="M147.792 205.91C148.538 208.843 148.174 211.565 145.447 213.802C143.219 215.628 141.829 217.921 141.273 220.828C140.762 223.5 139.669 226.187 137.754 228.115C133.241 226.639 132.409 223.122 131.738 219.475C130.748 214.098 130.332 208.642 128.381 203.404C126.757 199.048 128.143 194.832 130.845 191.185C132.172 189.393 133.521 187.597 134.848 185.793C136.947 186.065 138.276 184.306 140.384 184.132C144.077 183.827 144.055 183.511 144.376 186.836C144.501 188.142 144.71 189.468 146.423 189.671C148.412 189.905 149.674 190.714 149.947 192.635C150.178 194.255 150.576 196.041 149.437 197.355C147.148 199.999 146.993 202.773 147.792 205.91Z" fill="#ADA9BF"/>
<path fill-rule="evenodd" clip-rule="evenodd" d="M128.484 189.442C127.334 187.504 126.513 185.63 126.348 183.488C126.222 181.866 126.287 180.036 125.489 178.695C123.985 176.164 124.15 173.565 124.067 170.888C123.929 166.367 124.128 161.775 121.55 157.629C121.071 156.857 120.918 155.88 120.754 154.975C120.518 153.676 121.13 152.959 122.622 153.051C123.124 153.082 123.63 153.112 124.123 153.193C128.686 153.948 133.253 154.847 137.528 152.188C137.662 152.105 137.979 152.278 138.742 152.453C137.408 155.283 138.686 158.428 136.971 161.363C136.17 162.735 136.037 164.671 137.335 165.996C139.141 167.84 139.252 170.027 138.983 172.178C138.69 174.499 137.281 176.703 139.364 179.01C139.877 179.579 139.274 181.018 138.414 181.839C137.628 182.589 136.872 183.34 135.929 183.953C135.355 184.326 134.291 184.705 134.815 185.75C131.648 185.231 131.01 188.65 128.484 189.442Z" fill="#ADA9BF"/>
<path fill-rule="evenodd" clip-rule="evenodd" d="M134.816 185.748C134.84 185.752 134.858 185.752 134.884 185.756C134.873 185.771 134.862 185.786 134.851 185.798C134.845 185.799 134.84 185.8 134.834 185.799C134.824 185.779 134.824 185.766 134.816 185.748Z" fill="#ADA9BF"/>
<path fill-rule="evenodd" clip-rule="evenodd" d="M74.2931 244.644C74.9141 243.04 76.065 242.076 78.008 242.465C80.196 242.902 82.165 242.327 84.187 241.655C87.288 240.625 88.643 241.309 89.968 244.192C91.368 247.233 91.652 250.395 91.386 252.924C91.328 254.922 91.236 256.206 91.264 257.487C91.346 261.229 87.672 263.497 83.957 262.017C82.491 261.434 81.557 260.451 80.817 259.176C78.977 256.014 77.047 252.899 74.137 250.44C73.208 249.655 72.88 248.747 73.286 247.618C73.639 246.633 73.9141 245.621 74.2931 244.644Z" fill="#ADA9BF"/>
<path fill-rule="evenodd" clip-rule="evenodd" d="M239.538 282.841C237.667 283.574 235.884 284.704 234.169 285.738C230.716 287.82 226.616 289.111 223.825 291.951C221.534 294.285 218.774 294.613 215.816 294.95C214.877 295.059 213.978 294.978 213.45 294.264C212.771 293.35 213.323 292.495 213.976 291.738C215.38 290.104 217.079 288.623 218.139 286.817C220.593 282.632 224.348 279.544 227.794 276.173C229.106 274.892 230.646 274.327 232.507 274.236C234.492 274.465 236.501 274.586 238.459 274.953C240.528 275.339 241.64 276.637 241.729 278.642C241.807 280.403 241.871 281.931 239.538 282.841Z" fill="#ADA9BF"/>
<path fill-rule="evenodd" clip-rule="evenodd" d="M225.98 319.001C224.945 319.84 223.964 320.791 223.175 321.832C221.435 324.131 219.002 324.933 216.138 325.121C213.675 325.281 212.713 324.698 212.244 322.415C212.078 321.614 212.026 320.796 211.922 319.986C211.412 317.302 213.306 315.07 213.545 312.531C213.874 309.041 216.115 306.52 218.723 304.307C220.631 302.689 224.306 302.664 225.557 304.279C228.933 308.636 230.818 315.068 225.98 319.001Z" fill="#ADA9BF"/>
<path fill-rule="evenodd" clip-rule="evenodd" d="M248.614 290.666C249.562 294.085 250.655 297.456 253.377 300.083C254.202 300.88 254.377 301.832 253.947 302.632C253.521 303.427 252.431 303.188 251.544 303.113C250.663 303.039 249.882 302.772 249.141 302.363C247.984 301.727 246.862 301.028 245.678 300.435C241.445 298.314 236.725 297.886 232.093 297.167C230.788 296.965 229.366 297.07 228.556 295.909C229.114 294.1 231.141 293.365 231.901 291.22C229.547 291.84 228.346 293.908 225.827 293.377C228.17 291.188 237.704 285.603 240.395 284.808C240.735 284.707 241.099 284.531 241.43 284.566C244.057 284.833 247.913 288.144 248.614 290.666ZM232.896 290.759C232.547 290.658 232.249 290.706 232.101 291.045C232.074 291.105 232.202 291.304 232.268 291.307C232.659 291.331 232.825 291.085 232.906 290.769C233.061 290.639 233.214 290.509 233.369 290.377C232.991 290.268 232.684 290.237 232.896 290.759Z" fill="#ADA9BF"/>
<path fill-rule="evenodd" clip-rule="evenodd" d="M206.462 397.299C209.498 396.187 212.516 395.257 215.876 396.012C218.172 396.528 220.524 396.886 222.874 397.11C223.876 397.205 224.61 397.393 224.802 398.299C225.012 399.302 224.525 399.863 223.44 400.406C220.29 401.985 216.846 402.14 213.47 402.648C211.425 402.869 209.479 401.995 207.492 402.162C205.622 402.321 205.179 401.16 204.809 400.001C204.394 398.695 205.087 397.802 206.462 397.299Z" fill="#ADA9BF"/>
<path fill-rule="evenodd" clip-rule="evenodd" d="M316.381 305.734C318.505 303.467 321.006 302.036 324.375 301.977C328.26 301.91 332.144 301.667 336.018 301.388C338.277 301.227 340.525 301.083 342.769 301.384C343.782 301.52 345.18 301.1 345.553 302.485C345.898 303.771 345.109 304.712 344.099 305.502C342.501 306.75 340.85 307.39 338.705 306.509C336.646 305.664 334.415 305.31 332.172 304.989C326.858 304.229 321.694 305.201 316.381 305.734Z" fill="#ADA9BF"/>
<path fill-rule="evenodd" clip-rule="evenodd" d="M205.906 113.423C205.88 113.811 205.856 114.189 205.836 114.553C205.765 114.766 205.473 114.926 205.432 115.138C204.722 118.803 203.472 122.355 203.106 126.109C202.814 129.098 203.15 132.31 201.75 135.022C200.417 137.606 200.167 140.216 200.567 142.781C200.888 144.837 200.72 146.781 200.458 148.739C199.89 153.03 200.01 157.37 198.266 161.573C197.271 163.972 196.495 166.976 197.672 169.484C199.267 172.872 199.043 176.244 198.023 179.438C197.302 181.692 197.074 183.94 196.581 186.185C196.154 188.134 196.368 190.163 195.868 192.042C194.918 195.612 193.412 199.057 192.476 202.628C192.132 203.944 191.502 204.496 190.332 204.575C188.464 204.7 186.731 205.115 184.93 205.627C181.245 206.675 180.208 205.815 179.908 202.224C179.861 201.641 179.823 201.055 179.821 200.472C179.785 194.273 179.963 188.064 179.668 181.878C179.375 175.741 182.17 171.873 188.398 170.036C188.722 169.94 188.813 169.773 188.479 169.244C187.488 168.726 186.217 168.016 184.898 167.391C184.1 167.013 183.291 166.693 182.968 165.845C181.533 162.098 180.008 158.258 181.602 154.315C183.29 150.138 184.618 146.065 183.952 141.482C183.566 138.829 184.985 137.897 188.075 137.686C189.611 137.58 191.245 137.982 193.099 137.038C190.738 135.546 189.629 132.891 186.368 133.477C185.465 133.639 185.006 132.978 184.653 132.374C182.745 129.097 180.869 125.665 180.759 121.957C180.559 115.172 179.367 108.478 179.179 101.685C179.047 96.922 180.338 92.966 183.576 89.469C184.633 88.33 186.015 87.453 187.232 86.47C186.987 86.204 186.82 86 186.675 85.824C188.805 84.829 192.503 83.807 197.568 84.973C198.822 85.409 200.029 86.037 201.239 86.821C201.727 87.137 202.187 87.485 202.641 87.841C207.388 93.089 206.599 103.789 206.045 111.409C205.713 111.95 205.846 112.697 205.906 113.423Z" fill="#ADA9BF"/>
<path fill-rule="evenodd" clip-rule="evenodd" d="M278.354 139.457C277.391 142.078 276.772 142.618 273.806 142.48C271.416 142.37 269.054 142.393 265.997 142.647C267.971 143.97 269.576 144.379 271.134 144.95C272.192 145.337 273.826 145.626 273.9 147.342C274.122 152.442 274.144 157.553 272.161 162.383C270.823 165.643 268.472 168.587 269.065 172.348C266.279 178.326 264.097 184.594 258.448 189.051C255.99 190.989 254.669 193.663 253.685 196.59C252.218 200.954 249.55 204.527 244.539 206.184C240.157 207.632 237.493 205.896 238.208 201.676C238.964 197.218 240.185 192.843 242.233 188.73C243.567 186.049 245.142 183.484 249.019 183.63C249.377 183.644 249.756 183.488 250.105 183.361C251.527 182.841 251.85 181.759 250.862 180.638C250.47 180.193 249.925 179.86 249.435 179.497C244.618 175.926 244.321 174.705 247.179 169.552C248.632 166.932 249.569 164.237 249.656 161.245C249.801 156.213 250.382 151.207 251.382 146.261C251.816 144.125 251.662 141.371 253.589 140.152C255.933 138.668 255.956 136.802 256.127 134.779C256.321 132.471 256.785 130.138 255.521 127.907C255.05 127.074 255.197 126.078 255.3 125.139C255.531 123.045 256.005 120.945 255.94 118.859C255.761 113.148 258.923 109.169 263.342 105.749C263.702 105.469 264.064 105.189 264.427 104.908C265.827 104.307 267.297 103.817 268.798 103.525C273.467 102.615 276.294 104.787 277.872 106.843C277.832 106.883 277.793 106.902 277.753 106.946C278.121 107.336 278.428 107.742 278.737 108.146C279.312 109.153 279.553 109.92 279.553 109.92L280.004 110.09C281.922 113.688 282.146 117.747 282.233 121.809C282.288 124.36 282.5 127.123 281.581 129.426C280.271 132.728 279.564 136.155 278.354 139.457Z" fill="#ADA9BF"/>
<path d="M1387 23H27V450H1387V23Z" fill="url(#paint0_linear_13_2)" fill-opacity="0.4"/>
<path d="M1238.5 63C1238.5 61.1 1238.5 59.726 1238.64 58.678C1238.78 57.644 1239.05 57.003 1239.53 56.525C1240 56.048 1240.64 55.781 1241.68 55.642C1242.73 55.501 1244.1 55.5 1246 55.5H1350C1351.9 55.5 1353.27 55.501 1354.32 55.642C1355.36 55.781 1356 56.048 1356.47 56.525C1356.95 57.003 1357.22 57.644 1357.36 58.678C1357.5 59.726 1357.5 61.1 1357.5 63V87C1357.5 88.9 1357.5 90.274 1357.36 91.322C1357.22 92.356 1356.95 92.997 1356.47 93.475C1356 93.952 1355.36 94.219 1354.32 94.358C1353.27 94.499 1351.9 94.5 1350 94.5H1246C1244.1 94.5 1242.73 94.499 1241.68 94.358C1240.64 94.219 1240 93.952 1239.53 93.475C1239.05 92.997 1238.78 92.356 1238.64 91.322C1238.5 90.274 1238.5 88.9 1238.5 87V63Z" fill="#EDE9FE"/>
<path d="M1238.5 63C1238.5 61.1 1238.5 59.726 1238.64 58.678C1238.78 57.644 1239.05 57.003 1239.53 56.525C1240 56.048 1240.64 55.781 1241.68 55.642C1242.73 55.501 1244.1 55.5 1246 55.5H1350C1351.9 55.5 1353.27 55.501 1354.32 55.642C1355.36 55.781 1356 56.048 1356.47 56.525C1356.95 57.003 1357.22 57.644 1357.36 58.678C1357.5 59.726 1357.5 61.1 1357.5 63V87C1357.5 88.9 1357.5 90.274 1357.36 91.322C1357.22 92.356 1356.95 92.997 1356.47 93.475C1356 93.952 1355.36 94.219 1354.32 94.358C1353.27 94.499 1351.9 94.5 1350 94.5H1246C1244.1 94.5 1242.73 94.499 1241.68 94.358C1240.64 94.219 1240 93.952 1239.53 93.475C1239.05 92.997 1238.78 92.356 1238.64 91.322C1238.5 90.274 1238.5 88.9 1238.5 87V63Z" stroke="#AA99EC"/>
<path d="M1264.94 71.9C1265.19 71.656 1265.19 71.25 1264.94 71.019L1263.48 69.556C1263.25 69.313 1262.84 69.313 1262.6 69.556L1261.45 70.7L1263.79 73.044M1253.88 78.281V80.625H1256.22L1263.13 73.706L1260.79 71.363L1253.88 78.281Z" fill="#644FC1"/>
<path d="M1278.64 80.5V70.318H1284.79V71.412H1279.87V74.852H1284.47V75.946H1279.87V79.406H1284.86V80.5H1278.64ZM1289.73 80.659C1289.1 80.659 1288.53 80.498 1288.05 80.177C1287.56 79.852 1287.18 79.395 1286.9 78.805C1286.63 78.211 1286.49 77.51 1286.49 76.702C1286.49 75.9 1286.63 75.204 1286.9 74.614C1287.18 74.024 1287.56 73.568 1288.05 73.246C1288.54 72.925 1289.11 72.764 1289.75 72.764C1290.25 72.764 1290.64 72.847 1290.93 73.013C1291.22 73.175 1291.44 73.361 1291.6 73.57C1291.75 73.775 1291.87 73.944 1291.96 74.077H1292.06V70.318H1293.23V80.5H1292.1V79.327H1291.96C1291.87 79.466 1291.75 79.642 1291.59 79.854C1291.43 80.062 1291.21 80.25 1290.91 80.415C1290.62 80.578 1290.22 80.659 1289.73 80.659ZM1289.89 79.605C1290.36 79.605 1290.76 79.482 1291.08 79.237C1291.41 78.989 1291.66 78.646 1291.82 78.208C1291.99 77.767 1292.08 77.259 1292.08 76.682C1292.08 76.112 1292 75.613 1291.83 75.185C1291.66 74.754 1291.42 74.42 1291.09 74.181C1290.77 73.939 1290.37 73.818 1289.89 73.818C1289.39 73.818 1288.98 73.946 1288.65 74.201C1288.32 74.453 1288.07 74.796 1287.91 75.23C1287.74 75.661 1287.66 76.145 1287.66 76.682C1287.66 77.225 1287.75 77.719 1287.91 78.163C1288.08 78.604 1288.33 78.955 1288.66 79.217C1288.99 79.476 1289.4 79.605 1289.89 79.605ZM1295.54 80.5V72.864H1296.72V80.5H1295.54ZM1296.14 71.591C1295.91 71.591 1295.71 71.513 1295.55 71.357C1295.39 71.201 1295.3 71.014 1295.3 70.795C1295.3 70.577 1295.39 70.389 1295.55 70.234C1295.71 70.078 1295.91 70 1296.14 70C1296.37 70 1296.56 70.078 1296.73 70.234C1296.89 70.389 1296.98 70.577 1296.98 70.795C1296.98 71.014 1296.89 71.201 1296.73 71.357C1296.56 71.513 1296.37 71.591 1296.14 71.591ZM1302.19 72.864V73.858H1298.23V72.864H1302.19ZM1299.38 71.034H1300.56V78.312C1300.56 78.644 1300.6 78.893 1300.7 79.058C1300.8 79.221 1300.93 79.33 1301.08 79.386C1301.23 79.439 1301.4 79.466 1301.57 79.466C1301.7 79.466 1301.81 79.459 1301.89 79.446C1301.97 79.429 1302.04 79.416 1302.09 79.406L1302.33 80.46C1302.25 80.49 1302.14 80.52 1301.99 80.55C1301.85 80.583 1301.67 80.599 1301.45 80.599C1301.12 80.599 1300.79 80.528 1300.48 80.386C1300.16 80.243 1299.9 80.026 1299.69 79.734C1299.49 79.443 1299.38 79.075 1299.38 78.631V71.034ZM1310.99 80.659C1310.28 80.659 1309.66 80.49 1309.14 80.152C1308.63 79.814 1308.23 79.348 1307.95 78.755C1307.67 78.162 1307.53 77.484 1307.53 76.722C1307.53 75.946 1307.67 75.262 1307.96 74.668C1308.25 74.072 1308.65 73.606 1309.16 73.271C1309.68 72.933 1310.28 72.764 1310.97 72.764C1311.51 72.764 1311.99 72.864 1312.42 73.062C1312.85 73.261 1313.21 73.54 1313.48 73.898C1313.76 74.256 1313.93 74.673 1313.99 75.151H1312.82C1312.73 74.803 1312.53 74.494 1312.22 74.226C1311.92 73.954 1311.51 73.818 1310.99 73.818C1310.53 73.818 1310.13 73.937 1309.79 74.176C1309.45 74.411 1309.18 74.745 1308.99 75.175C1308.8 75.603 1308.7 76.105 1308.7 76.682C1308.7 77.272 1308.8 77.786 1308.98 78.223C1309.17 78.661 1309.44 79 1309.78 79.242C1310.12 79.484 1310.53 79.605 1310.99 79.605C1311.3 79.605 1311.57 79.552 1311.82 79.446C1312.07 79.34 1312.28 79.188 1312.45 78.989C1312.63 78.79 1312.75 78.551 1312.82 78.273H1313.99C1313.93 78.723 1313.76 79.129 1313.5 79.491C1313.24 79.849 1312.9 80.134 1312.47 80.346C1312.05 80.555 1311.56 80.659 1310.99 80.659ZM1318.81 80.659C1318.12 80.659 1317.52 80.495 1317 80.167C1316.48 79.839 1316.08 79.38 1315.78 78.79C1315.5 78.2 1315.35 77.51 1315.35 76.722C1315.35 75.926 1315.5 75.232 1315.78 74.638C1316.08 74.045 1316.48 73.585 1317 73.256C1317.52 72.928 1318.12 72.764 1318.81 72.764C1319.5 72.764 1320.1 72.928 1320.62 73.256C1321.14 73.585 1321.55 74.045 1321.83 74.638C1322.13 75.232 1322.27 75.926 1322.27 76.722C1322.27 77.51 1322.13 78.2 1321.83 78.79C1321.55 79.38 1321.14 79.839 1320.62 80.167C1320.1 80.495 1319.5 80.659 1318.81 80.659ZM1318.81 79.605C1319.34 79.605 1319.77 79.471 1320.1 79.202C1320.44 78.934 1320.69 78.581 1320.86 78.143C1321.02 77.706 1321.1 77.232 1321.1 76.722C1321.1 76.211 1321.02 75.736 1320.86 75.295C1320.69 74.854 1320.44 74.498 1320.1 74.226C1319.77 73.954 1319.34 73.818 1318.81 73.818C1318.29 73.818 1317.86 73.954 1317.52 74.226C1317.18 74.498 1316.93 74.854 1316.77 75.295C1316.61 75.736 1316.52 76.211 1316.52 76.722C1316.52 77.232 1316.61 77.706 1316.77 78.143C1316.93 78.581 1317.18 78.934 1317.52 79.202C1317.86 79.471 1318.29 79.605 1318.81 79.605ZM1330.03 72.864L1327.21 80.5H1326.02L1323.19 72.864H1324.47L1326.57 78.949H1326.65L1328.76 72.864H1330.03ZM1334.51 80.659C1333.78 80.659 1333.14 80.497 1332.61 80.172C1332.08 79.844 1331.67 79.386 1331.38 78.8C1331.09 78.21 1330.95 77.524 1330.95 76.741C1330.95 75.959 1331.09 75.27 1331.38 74.673C1331.67 74.073 1332.07 73.606 1332.58 73.271C1333.1 72.933 1333.7 72.764 1334.39 72.764C1334.79 72.764 1335.18 72.83 1335.57 72.963C1335.96 73.096 1336.31 73.311 1336.63 73.609C1336.95 73.904 1337.2 74.295 1337.39 74.783C1337.58 75.27 1337.67 75.87 1337.67 76.582V77.08H1331.79V76.065H1336.48C1336.48 75.634 1336.39 75.25 1336.22 74.912C1336.05 74.574 1335.81 74.307 1335.5 74.112C1335.18 73.916 1334.82 73.818 1334.39 73.818C1333.92 73.818 1333.52 73.934 1333.18 74.166C1332.84 74.395 1332.58 74.693 1332.4 75.061C1332.22 75.429 1332.12 75.823 1332.12 76.244V76.92C1332.12 77.497 1332.22 77.986 1332.42 78.387C1332.63 78.785 1332.91 79.088 1333.26 79.297C1333.62 79.502 1334.04 79.605 1334.51 79.605C1334.82 79.605 1335.1 79.562 1335.35 79.476C1335.6 79.386 1335.82 79.254 1336 79.078C1336.18 78.899 1336.32 78.677 1336.42 78.412L1337.55 78.73C1337.43 79.115 1337.23 79.453 1336.95 79.744C1336.67 80.033 1336.32 80.258 1335.91 80.42C1335.49 80.58 1335.03 80.659 1334.51 80.659ZM1339.46 80.5V72.864H1340.59V74.017H1340.67C1340.81 73.639 1341.06 73.333 1341.43 73.097C1341.79 72.862 1342.2 72.744 1342.66 72.744C1342.75 72.744 1342.85 72.746 1342.98 72.749C1343.11 72.753 1343.21 72.758 1343.28 72.764V73.957C1343.24 73.947 1343.14 73.933 1343 73.913C1342.86 73.889 1342.72 73.878 1342.56 73.878C1342.19 73.878 1341.86 73.956 1341.57 74.112C1341.28 74.264 1341.05 74.476 1340.88 74.748C1340.71 75.016 1340.63 75.323 1340.63 75.668V80.5H1339.46Z" fill="#644FC1"/>
<path d="M1145.83 431.29C1144.49 431.284 1143.34 430.929 1142.38 430.224C1141.43 429.52 1140.7 428.494 1140.19 427.148C1139.69 425.801 1139.43 424.179 1139.43 422.281C1139.43 420.389 1139.69 418.773 1140.19 417.432C1140.7 416.091 1141.44 415.068 1142.39 414.364C1143.35 413.659 1144.5 413.307 1145.83 413.307C1147.17 413.307 1148.31 413.662 1149.27 414.372C1150.22 415.077 1150.95 416.099 1151.46 417.44C1151.97 418.776 1152.23 420.389 1152.23 422.281C1152.23 424.185 1151.97 425.81 1151.47 427.156C1150.96 428.497 1150.23 429.523 1149.28 430.233C1148.32 430.938 1147.17 431.29 1145.83 431.29ZM1145.83 429.014C1147.02 429.014 1147.94 428.438 1148.6 427.284C1149.27 426.131 1149.61 424.463 1149.61 422.281C1149.61 420.832 1149.46 419.608 1149.15 418.608C1148.85 417.602 1148.41 416.841 1147.85 416.324C1147.28 415.801 1146.61 415.54 1145.83 415.54C1144.66 415.54 1143.73 416.119 1143.06 417.278C1142.39 418.437 1142.06 420.105 1142.05 422.281C1142.05 423.736 1142.2 424.966 1142.5 425.972C1142.81 426.972 1143.24 427.73 1143.81 428.247C1144.37 428.759 1145.04 429.014 1145.83 429.014ZM1161.33 431.29C1159.98 431.284 1158.83 430.929 1157.87 430.224C1156.92 429.52 1156.19 428.494 1155.68 427.148C1155.18 425.801 1154.93 424.179 1154.93 422.281C1154.93 420.389 1155.18 418.773 1155.68 417.432C1156.2 416.091 1156.93 415.068 1157.88 414.364C1158.84 413.659 1159.99 413.307 1161.33 413.307C1162.66 413.307 1163.81 413.662 1164.76 414.372C1165.72 415.077 1166.45 416.099 1166.95 417.44C1167.46 418.776 1167.72 420.389 1167.72 422.281C1167.72 424.185 1167.47 425.81 1166.96 427.156C1166.45 428.497 1165.72 429.523 1164.77 430.233C1163.81 430.938 1162.67 431.29 1161.33 431.29ZM1161.33 429.014C1162.51 429.014 1163.43 428.438 1164.1 427.284C1164.77 426.131 1165.1 424.463 1165.1 422.281C1165.1 420.832 1164.95 419.608 1164.64 418.608C1164.34 417.602 1163.91 416.841 1163.34 416.324C1162.77 415.801 1162.1 415.54 1161.33 415.54C1160.15 415.54 1159.23 416.119 1158.56 417.278C1157.89 418.437 1157.55 420.105 1157.54 422.281C1157.54 423.736 1157.69 424.966 1157.99 425.972C1158.3 426.972 1158.74 427.73 1159.3 428.247C1159.86 428.759 1160.54 429.014 1161.33 429.014ZM1176.82 431.29C1175.47 431.284 1174.32 430.929 1173.37 430.224C1172.41 429.52 1171.68 428.494 1171.18 427.148C1170.67 425.801 1170.42 424.179 1170.42 422.281C1170.42 420.389 1170.67 418.773 1171.18 417.432C1171.69 416.091 1172.42 415.068 1173.38 414.364C1174.34 413.659 1175.48 413.307 1176.82 413.307C1178.15 413.307 1179.3 413.662 1180.25 414.372C1181.21 415.077 1181.94 416.099 1182.44 417.44C1182.95 418.776 1183.21 420.389 1183.21 422.281C1183.21 424.185 1182.96 425.81 1182.45 427.156C1181.95 428.497 1181.22 429.523 1180.26 430.233C1179.31 430.938 1178.16 431.29 1176.82 431.29ZM1176.82 429.014C1178 429.014 1178.92 428.438 1179.59 427.284C1180.26 426.131 1180.59 424.463 1180.59 422.281C1180.59 420.832 1180.44 419.608 1180.13 418.608C1179.83 417.602 1179.4 416.841 1178.83 416.324C1178.27 415.801 1177.6 415.54 1176.82 415.54C1175.64 415.54 1174.72 416.119 1174.05 417.278C1173.38 418.437 1173.04 420.105 1173.03 422.281C1173.03 423.736 1173.18 424.966 1173.49 425.972C1173.79 426.972 1174.23 427.73 1174.79 428.247C1175.35 428.759 1176.03 429.014 1176.82 429.014ZM1191.62 433.182V411.364H1193.02V433.182H1191.62ZM1195.99 418.131C1195.9 417.324 1195.53 416.699 1194.87 416.256C1194.21 415.807 1193.38 415.582 1192.38 415.582C1191.66 415.582 1191.04 415.696 1190.52 415.923C1190 416.145 1189.59 416.452 1189.3 416.844C1189.02 417.23 1188.88 417.67 1188.88 418.165C1188.88 418.58 1188.97 418.937 1189.17 419.239C1189.36 419.54 1189.62 419.793 1189.94 419.997C1190.26 420.196 1190.61 420.364 1190.98 420.5C1191.35 420.631 1191.71 420.739 1192.05 420.824L1193.75 421.267C1194.31 421.403 1194.88 421.588 1195.46 421.821C1196.05 422.054 1196.59 422.361 1197.09 422.741C1197.59 423.122 1198 423.594 1198.3 424.156C1198.61 424.719 1198.77 425.392 1198.77 426.176C1198.77 427.165 1198.51 428.043 1198 428.81C1197.5 429.577 1196.76 430.182 1195.8 430.625C1194.84 431.068 1193.67 431.29 1192.31 431.29C1191 431.29 1189.87 431.082 1188.92 430.668C1187.96 430.253 1187.22 429.665 1186.68 428.903C1186.14 428.136 1185.84 427.227 1185.78 426.176H1188.42C1188.48 426.807 1188.68 427.332 1189.04 427.753C1189.4 428.168 1189.86 428.477 1190.43 428.682C1191 428.881 1191.62 428.98 1192.29 428.98C1193.04 428.98 1193.7 428.864 1194.28 428.631C1194.86 428.392 1195.32 428.062 1195.66 427.642C1196 427.216 1196.16 426.719 1196.16 426.151C1196.16 425.634 1196.01 425.21 1195.72 424.881C1195.43 424.551 1195.03 424.278 1194.53 424.062C1194.04 423.847 1193.48 423.656 1192.86 423.491L1190.79 422.929C1189.4 422.548 1188.29 421.989 1187.47 421.25C1186.66 420.511 1186.25 419.534 1186.25 418.318C1186.25 417.312 1186.52 416.435 1187.07 415.685C1187.61 414.935 1188.35 414.352 1189.28 413.938C1190.22 413.517 1191.27 413.307 1192.44 413.307C1193.62 413.307 1194.66 413.514 1195.57 413.929C1196.48 414.344 1197.19 414.915 1197.71 415.642C1198.24 416.364 1198.51 417.193 1198.53 418.131H1195.99Z" fill="white"/>
<path d="M1210.7 418.375V416.864H1219.71V418.375H1216.08V428.5H1214.33V418.375H1210.7ZM1223.97 428.676C1223.16 428.676 1222.44 428.489 1221.83 428.114C1221.22 427.739 1220.75 427.214 1220.41 426.54C1220.07 425.866 1219.91 425.078 1219.91 424.176C1219.91 423.271 1220.07 422.479 1220.41 421.801C1220.75 421.123 1221.22 420.597 1221.83 420.222C1222.44 419.847 1223.16 419.659 1223.97 419.659C1224.79 419.659 1225.51 419.847 1226.12 420.222C1226.73 420.597 1227.2 421.123 1227.54 421.801C1227.87 422.479 1228.04 423.271 1228.04 424.176C1228.04 425.078 1227.87 425.866 1227.54 426.54C1227.2 427.214 1226.73 427.739 1226.12 428.114C1225.51 428.489 1224.79 428.676 1223.97 428.676ZM1223.98 427.25C1224.51 427.25 1224.95 427.11 1225.3 426.83C1225.65 426.549 1225.9 426.176 1226.07 425.71C1226.24 425.244 1226.33 424.731 1226.33 424.17C1226.33 423.614 1226.24 423.102 1226.07 422.636C1225.9 422.167 1225.65 421.79 1225.3 421.506C1224.95 421.222 1224.51 421.08 1223.98 421.08C1223.45 421.08 1223 421.222 1222.65 421.506C1222.3 421.79 1222.04 422.167 1221.87 422.636C1221.71 423.102 1221.62 423.614 1221.62 424.17C1221.62 424.731 1221.71 425.244 1221.87 425.71C1222.04 426.176 1222.3 426.549 1222.65 426.83C1223 427.11 1223.45 427.25 1223.98 427.25ZM1234.01 419.773V421.136H1229.25V419.773H1234.01ZM1230.52 417.682H1232.22V425.938C1232.22 426.267 1232.27 426.515 1232.37 426.682C1232.47 426.845 1232.6 426.956 1232.75 427.017C1232.91 427.074 1233.08 427.102 1233.27 427.102C1233.4 427.102 1233.52 427.093 1233.63 427.074C1233.73 427.055 1233.81 427.04 1233.87 427.028L1234.17 428.432C1234.07 428.47 1233.93 428.508 1233.75 428.545C1233.57 428.587 1233.34 428.61 1233.07 428.614C1232.62 428.621 1232.21 428.542 1231.82 428.375C1231.43 428.208 1231.12 427.951 1230.88 427.602C1230.64 427.254 1230.52 426.816 1230.52 426.29V417.682ZM1238.43 428.693C1237.88 428.693 1237.38 428.591 1236.93 428.386C1236.48 428.178 1236.13 427.877 1235.87 427.483C1235.61 427.089 1235.48 426.606 1235.48 426.034C1235.48 425.542 1235.58 425.136 1235.77 424.818C1235.96 424.5 1236.21 424.248 1236.53 424.062C1236.86 423.877 1237.22 423.737 1237.61 423.642C1238.01 423.547 1238.42 423.475 1238.83 423.426C1239.35 423.366 1239.78 423.316 1240.1 423.278C1240.43 423.237 1240.66 423.17 1240.81 423.08C1240.96 422.989 1241.03 422.841 1241.03 422.636V422.597C1241.03 422.1 1240.89 421.716 1240.61 421.443C1240.34 421.17 1239.92 421.034 1239.38 421.034C1238.8 421.034 1238.35 421.161 1238.02 421.415C1237.7 421.665 1237.47 421.943 1237.35 422.25L1235.75 421.886C1235.94 421.356 1236.22 420.928 1236.58 420.602C1236.95 420.273 1237.37 420.034 1237.85 419.886C1238.32 419.735 1238.83 419.659 1239.35 419.659C1239.7 419.659 1240.07 419.701 1240.46 419.784C1240.85 419.864 1241.22 420.011 1241.56 420.227C1241.91 420.443 1242.19 420.752 1242.41 421.153C1242.63 421.551 1242.74 422.068 1242.74 422.705V428.5H1241.08V427.307H1241.01C1240.9 427.527 1240.74 427.742 1240.52 427.955C1240.3 428.167 1240.02 428.343 1239.67 428.483C1239.33 428.623 1238.91 428.693 1238.43 428.693ZM1238.8 427.33C1239.27 427.33 1239.67 427.237 1240.01 427.051C1240.34 426.866 1240.6 426.623 1240.77 426.324C1240.95 426.021 1241.04 425.697 1241.04 425.352V424.227C1240.98 424.288 1240.86 424.345 1240.69 424.398C1240.52 424.447 1240.32 424.491 1240.1 424.528C1239.88 424.562 1239.67 424.595 1239.46 424.625C1239.25 424.652 1239.08 424.674 1238.94 424.693C1238.61 424.735 1238.31 424.805 1238.03 424.903C1237.77 425.002 1237.55 425.144 1237.39 425.33C1237.23 425.511 1237.15 425.754 1237.15 426.057C1237.15 426.477 1237.3 426.795 1237.61 427.011C1237.92 427.223 1238.32 427.33 1238.8 427.33ZM1246.7 416.864V428.5H1245V416.864H1246.7ZM1256.9 428.676C1256.05 428.676 1255.32 428.485 1254.71 428.102C1254.11 427.716 1253.64 427.184 1253.32 426.506C1252.99 425.828 1252.83 425.051 1252.83 424.176C1252.83 423.29 1252.99 422.508 1253.33 421.83C1253.66 421.148 1254.13 420.616 1254.74 420.233C1255.34 419.85 1256.06 419.659 1256.88 419.659C1257.54 419.659 1258.13 419.782 1258.65 420.028C1259.17 420.271 1259.59 420.612 1259.91 421.051C1260.23 421.491 1260.42 422.004 1260.48 422.591H1258.83C1258.74 422.182 1258.53 421.83 1258.2 421.534C1257.88 421.239 1257.45 421.091 1256.91 421.091C1256.43 421.091 1256.02 421.216 1255.66 421.466C1255.31 421.712 1255.04 422.064 1254.84 422.523C1254.64 422.977 1254.54 423.515 1254.54 424.136C1254.54 424.773 1254.64 425.322 1254.83 425.784C1255.03 426.246 1255.3 426.604 1255.65 426.858C1256.01 427.112 1256.43 427.239 1256.91 427.239C1257.23 427.239 1257.52 427.18 1257.78 427.062C1258.05 426.941 1258.27 426.769 1258.45 426.545C1258.63 426.322 1258.76 426.053 1258.83 425.739H1260.48C1260.42 426.303 1260.24 426.807 1259.93 427.25C1259.62 427.693 1259.21 428.042 1258.7 428.295C1258.19 428.549 1257.59 428.676 1256.9 428.676ZM1265.97 428.676C1265.16 428.676 1264.44 428.489 1263.83 428.114C1263.22 427.739 1262.75 427.214 1262.41 426.54C1262.07 425.866 1261.91 425.078 1261.91 424.176C1261.91 423.271 1262.07 422.479 1262.41 421.801C1262.75 421.123 1263.22 420.597 1263.83 420.222C1264.44 419.847 1265.16 419.659 1265.97 419.659C1266.79 419.659 1267.51 419.847 1268.12 420.222C1268.73 420.597 1269.2 421.123 1269.54 421.801C1269.87 422.479 1270.04 423.271 1270.04 424.176C1270.04 425.078 1269.87 425.866 1269.54 426.54C1269.2 427.214 1268.73 427.739 1268.12 428.114C1267.51 428.489 1266.79 428.676 1265.97 428.676ZM1265.98 427.25C1266.51 427.25 1266.95 427.11 1267.3 426.83C1267.65 426.549 1267.9 426.176 1268.07 425.71C1268.24 425.244 1268.33 424.731 1268.33 424.17C1268.33 423.614 1268.24 423.102 1268.07 422.636C1267.9 422.167 1267.65 421.79 1267.3 421.506C1266.95 421.222 1266.51 421.08 1265.98 421.08C1265.45 421.08 1265 421.222 1264.65 421.506C1264.3 421.79 1264.04 422.167 1263.87 422.636C1263.71 423.102 1263.62 423.614 1263.62 424.17C1263.62 424.731 1263.71 425.244 1263.87 425.71C1264.04 426.176 1264.3 426.549 1264.65 426.83C1265 427.11 1265.45 427.25 1265.98 427.25ZM1273.64 423.318V428.5H1271.94V419.773H1273.57V421.193H1273.68C1273.88 420.731 1274.19 420.36 1274.62 420.08C1275.05 419.799 1275.6 419.659 1276.25 419.659C1276.85 419.659 1277.37 419.784 1277.81 420.034C1278.26 420.28 1278.61 420.648 1278.85 421.136C1279.1 421.625 1279.22 422.229 1279.22 422.949V428.5H1277.52V423.153C1277.52 422.521 1277.36 422.027 1277.03 421.67C1276.7 421.311 1276.25 421.131 1275.67 421.131C1275.28 421.131 1274.93 421.216 1274.62 421.386C1274.32 421.557 1274.08 421.807 1273.9 422.136C1273.72 422.462 1273.64 422.856 1273.64 423.318ZM1285.58 419.773V421.136H1280.81V419.773H1285.58ZM1282.09 417.682H1283.79V425.938C1283.79 426.267 1283.83 426.515 1283.93 426.682C1284.03 426.845 1284.16 426.956 1284.31 427.017C1284.47 427.074 1284.65 427.102 1284.83 427.102C1284.97 427.102 1285.09 427.093 1285.19 427.074C1285.29 427.055 1285.37 427.04 1285.43 427.028L1285.73 428.432C1285.64 428.47 1285.5 428.508 1285.31 428.545C1285.13 428.587 1284.9 428.61 1284.63 428.614C1284.19 428.621 1283.77 428.542 1283.38 428.375C1283 428.208 1282.68 427.951 1282.44 427.602C1282.21 427.254 1282.09 426.816 1282.09 426.29V417.682ZM1287.45 428.5V419.773H1289.1V421.159H1289.19C1289.35 420.689 1289.63 420.32 1290.03 420.051C1290.43 419.778 1290.89 419.642 1291.4 419.642C1291.51 419.642 1291.63 419.646 1291.78 419.653C1291.93 419.661 1292.04 419.67 1292.12 419.682V421.307C1292.06 421.288 1291.94 421.267 1291.76 421.244C1291.59 421.218 1291.41 421.205 1291.24 421.205C1290.84 421.205 1290.48 421.29 1290.16 421.46C1289.85 421.627 1289.61 421.86 1289.43 422.159C1289.24 422.455 1289.15 422.792 1289.15 423.17V428.5H1287.45ZM1293.6 428.5V419.773H1295.29V428.5H1293.6ZM1294.45 418.426C1294.16 418.426 1293.9 418.328 1293.69 418.131C1293.48 417.93 1293.38 417.691 1293.38 417.415C1293.38 417.134 1293.48 416.896 1293.69 416.699C1293.9 416.498 1294.16 416.398 1294.45 416.398C1294.75 416.398 1295 416.498 1295.21 416.699C1295.42 416.896 1295.53 417.134 1295.53 417.415C1295.53 417.691 1295.42 417.93 1295.21 418.131C1295 418.328 1294.75 418.426 1294.45 418.426ZM1297.72 428.5V416.864H1299.41V421.188H1299.52C1299.62 421.006 1299.76 420.795 1299.94 420.557C1300.13 420.318 1300.39 420.11 1300.72 419.932C1301.05 419.75 1301.48 419.659 1302.02 419.659C1302.73 419.659 1303.36 419.837 1303.91 420.193C1304.46 420.549 1304.9 421.062 1305.21 421.733C1305.53 422.403 1305.69 423.21 1305.69 424.153C1305.69 425.097 1305.53 425.905 1305.22 426.58C1304.9 427.25 1304.47 427.767 1303.92 428.131C1303.37 428.491 1302.74 428.67 1302.04 428.67C1301.51 428.67 1301.08 428.581 1300.74 428.403C1300.41 428.225 1300.14 428.017 1299.95 427.778C1299.77 427.54 1299.62 427.328 1299.52 427.142H1299.38V428.5H1297.72ZM1299.38 424.136C1299.38 424.75 1299.47 425.288 1299.65 425.75C1299.83 426.212 1300.08 426.574 1300.42 426.835C1300.76 427.093 1301.17 427.222 1301.66 427.222C1302.17 427.222 1302.59 427.087 1302.93 426.818C1303.27 426.545 1303.53 426.176 1303.7 425.71C1303.88 425.244 1303.97 424.72 1303.97 424.136C1303.97 423.561 1303.88 423.044 1303.71 422.585C1303.54 422.127 1303.28 421.765 1302.94 421.5C1302.6 421.235 1302.17 421.102 1301.66 421.102C1301.17 421.102 1300.75 421.229 1300.41 421.483C1300.07 421.737 1299.82 422.091 1299.64 422.545C1299.47 423 1299.38 423.53 1299.38 424.136ZM1313.12 424.881V419.773H1314.83V428.5H1313.16V426.989H1313.07C1312.87 427.455 1312.54 427.843 1312.1 428.153C1311.66 428.46 1311.11 428.614 1310.46 428.614C1309.9 428.614 1309.4 428.491 1308.97 428.244C1308.54 427.994 1308.21 427.625 1307.96 427.136C1307.72 426.648 1307.6 426.044 1307.6 425.324V419.773H1309.29V425.119C1309.29 425.714 1309.46 426.187 1309.79 426.54C1310.12 426.892 1310.55 427.068 1311.07 427.068C1311.39 427.068 1311.71 426.989 1312.02 426.83C1312.34 426.67 1312.6 426.43 1312.81 426.108C1313.02 425.786 1313.13 425.377 1313.12 424.881ZM1321.18 419.773V421.136H1316.42V419.773H1321.18ZM1317.7 417.682H1319.39V425.938C1319.39 426.267 1319.44 426.515 1319.54 426.682C1319.64 426.845 1319.77 426.956 1319.92 427.017C1320.08 427.074 1320.25 427.102 1320.44 427.102C1320.58 427.102 1320.7 427.093 1320.8 427.074C1320.9 427.055 1320.98 427.04 1321.04 427.028L1321.34 428.432C1321.25 428.47 1321.11 428.508 1320.92 428.545C1320.74 428.587 1320.51 428.61 1320.24 428.614C1319.79 428.621 1319.38 428.542 1318.99 428.375C1318.61 428.208 1318.29 427.951 1318.05 427.602C1317.82 427.254 1317.7 426.816 1317.7 426.29V417.682ZM1323.06 428.5V419.773H1324.76V428.5H1323.06ZM1323.92 418.426C1323.63 418.426 1323.37 418.328 1323.16 418.131C1322.95 417.93 1322.85 417.691 1322.85 417.415C1322.85 417.134 1322.95 416.896 1323.16 416.699C1323.37 416.498 1323.63 416.398 1323.92 416.398C1324.22 416.398 1324.47 416.498 1324.68 416.699C1324.89 416.896 1325 417.134 1325 417.415C1325 417.691 1324.89 417.93 1324.68 418.131C1324.47 418.328 1324.22 418.426 1323.92 418.426ZM1330.72 428.676C1329.91 428.676 1329.19 428.489 1328.58 428.114C1327.97 427.739 1327.5 427.214 1327.16 426.54C1326.82 425.866 1326.66 425.078 1326.66 424.176C1326.66 423.271 1326.82 422.479 1327.16 421.801C1327.5 421.123 1327.97 420.597 1328.58 420.222C1329.19 419.847 1329.91 419.659 1330.72 419.659C1331.54 419.659 1332.26 419.847 1332.87 420.222C1333.48 420.597 1333.95 421.123 1334.29 421.801C1334.62 422.479 1334.79 423.271 1334.79 424.176C1334.79 425.078 1334.62 425.866 1334.29 426.54C1333.95 427.214 1333.48 427.739 1332.87 428.114C1332.26 428.489 1331.54 428.676 1330.72 428.676ZM1330.73 427.25C1331.26 427.25 1331.7 427.11 1332.05 426.83C1332.4 426.549 1332.65 426.176 1332.82 425.71C1332.99 425.244 1333.08 424.731 1333.08 424.17C1333.08 423.614 1332.99 423.102 1332.82 422.636C1332.65 422.167 1332.4 421.79 1332.05 421.506C1331.7 421.222 1331.26 421.08 1330.73 421.08C1330.2 421.08 1329.75 421.222 1329.4 421.506C1329.05 421.79 1328.79 422.167 1328.62 422.636C1328.46 423.102 1328.37 423.614 1328.37 424.17C1328.37 424.731 1328.46 425.244 1328.62 425.71C1328.79 426.176 1329.05 426.549 1329.4 426.83C1329.75 427.11 1330.2 427.25 1330.73 427.25ZM1338.39 423.318V428.5H1336.69V419.773H1338.32V421.193H1338.43C1338.63 420.731 1338.94 420.36 1339.37 420.08C1339.8 419.799 1340.35 419.659 1341 419.659C1341.6 419.659 1342.12 419.784 1342.56 420.034C1343.01 420.28 1343.36 420.648 1343.6 421.136C1343.85 421.625 1343.97 422.229 1343.97 422.949V428.5H1342.27V423.153C1342.27 422.521 1342.11 422.027 1341.78 421.67C1341.45 421.311 1341 421.131 1340.42 421.131C1340.03 421.131 1339.68 421.216 1339.37 421.386C1339.07 421.557 1338.83 421.807 1338.65 422.136C1338.47 422.462 1338.39 422.856 1338.39 423.318Z" fill="white"/>
<path d="M98.591 259V212.455H116.409C119.773 212.455 122.568 212.985 124.795 214.045C127.038 215.091 128.712 216.523 129.818 218.341C130.939 220.159 131.5 222.22 131.5 224.523C131.5 226.417 131.136 228.038 130.409 229.386C129.682 230.72 128.705 231.803 127.477 232.636C126.25 233.47 124.879 234.068 123.364 234.432V234.886C125.015 234.977 126.598 235.485 128.114 236.409C129.644 237.318 130.894 238.606 131.864 240.273C132.833 241.939 133.318 243.955 133.318 246.318C133.318 248.727 132.735 250.894 131.568 252.818C130.402 254.727 128.644 256.235 126.295 257.341C123.947 258.447 120.992 259 117.432 259H98.591ZM107.023 251.955H116.091C119.152 251.955 121.356 251.371 122.705 250.205C124.068 249.023 124.75 247.508 124.75 245.659C124.75 244.28 124.409 243.038 123.727 241.932C123.045 240.811 122.076 239.932 120.818 239.295C119.561 238.644 118.061 238.318 116.318 238.318H107.023V251.955ZM107.023 232.25H115.364C116.818 232.25 118.129 231.985 119.295 231.455C120.462 230.909 121.379 230.144 122.045 229.159C122.727 228.159 123.068 226.977 123.068 225.614C123.068 223.811 122.432 222.326 121.159 221.159C119.902 219.992 118.03 219.409 115.545 219.409H107.023V232.25ZM140.29 259V224.091H148.267V229.909H148.631C149.267 227.894 150.358 226.341 151.903 225.25C153.464 224.144 155.244 223.591 157.244 223.591C157.699 223.591 158.206 223.614 158.767 223.659C159.343 223.689 159.82 223.742 160.199 223.818V231.386C159.85 231.265 159.297 231.159 158.54 231.068C157.797 230.962 157.078 230.909 156.381 230.909C154.881 230.909 153.532 231.235 152.335 231.886C151.153 232.523 150.222 233.409 149.54 234.545C148.858 235.682 148.517 236.992 148.517 238.477V259H140.29ZM175.085 259.705C172.873 259.705 170.881 259.311 169.108 258.523C167.35 257.72 165.956 256.538 164.926 254.977C163.911 253.417 163.403 251.492 163.403 249.205C163.403 247.235 163.767 245.606 164.494 244.318C165.222 243.03 166.214 242 167.472 241.227C168.729 240.455 170.146 239.871 171.722 239.477C173.313 239.068 174.956 238.773 176.653 238.591C178.699 238.379 180.358 238.189 181.631 238.023C182.903 237.841 183.828 237.568 184.403 237.205C184.994 236.826 185.29 236.242 185.29 235.455V235.318C185.29 233.606 184.782 232.28 183.767 231.341C182.752 230.402 181.29 229.932 179.381 229.932C177.366 229.932 175.767 230.371 174.585 231.25C173.419 232.129 172.631 233.167 172.222 234.364L164.54 233.273C165.146 231.152 166.146 229.379 167.54 227.955C168.934 226.515 170.638 225.439 172.653 224.727C174.669 224 176.896 223.636 179.335 223.636C181.017 223.636 182.691 223.833 184.358 224.227C186.025 224.621 187.547 225.273 188.926 226.182C190.305 227.076 191.411 228.295 192.244 229.841C193.093 231.386 193.517 233.318 193.517 235.636V259H185.608V254.205H185.335C184.835 255.174 184.131 256.083 183.222 256.932C182.328 257.765 181.199 258.439 179.835 258.955C178.487 259.455 176.903 259.705 175.085 259.705ZM177.222 253.659C178.873 253.659 180.305 253.333 181.517 252.682C182.729 252.015 183.661 251.136 184.312 250.045C184.979 248.955 185.312 247.765 185.312 246.477V242.364C185.055 242.576 184.616 242.773 183.994 242.955C183.388 243.136 182.706 243.295 181.949 243.432C181.191 243.568 180.441 243.689 179.699 243.795C178.956 243.902 178.313 243.992 177.767 244.068C176.54 244.235 175.441 244.508 174.472 244.886C173.502 245.265 172.737 245.795 172.176 246.477C171.616 247.144 171.335 248.008 171.335 249.068C171.335 250.583 171.888 251.727 172.994 252.5C174.1 253.273 175.509 253.659 177.222 253.659ZM210.017 238.545V259H201.79V224.091H209.653V230.023H210.062C210.866 228.068 212.146 226.515 213.903 225.364C215.676 224.212 217.866 223.636 220.472 223.636C222.881 223.636 224.979 224.152 226.767 225.182C228.57 226.212 229.964 227.705 230.949 229.659C231.949 231.614 232.441 233.985 232.426 236.773V259H224.199V238.045C224.199 235.712 223.593 233.886 222.381 232.568C221.184 231.25 219.525 230.591 217.403 230.591C215.964 230.591 214.684 230.909 213.562 231.545C212.456 232.167 211.585 233.068 210.949 234.25C210.328 235.432 210.017 236.864 210.017 238.545ZM253.744 259.614C251.002 259.614 248.547 258.909 246.381 257.5C244.214 256.091 242.502 254.045 241.244 251.364C239.987 248.682 239.358 245.424 239.358 241.591C239.358 237.712 239.994 234.439 241.267 231.773C242.555 229.091 244.29 227.068 246.472 225.705C248.653 224.326 251.085 223.636 253.767 223.636C255.813 223.636 257.494 223.985 258.812 224.682C260.131 225.364 261.176 226.189 261.949 227.159C262.722 228.114 263.32 229.015 263.744 229.864H264.085V212.455H272.335V259H264.244V253.5H263.744C263.32 254.348 262.706 255.25 261.903 256.205C261.1 257.144 260.04 257.947 258.722 258.614C257.403 259.28 255.744 259.614 253.744 259.614ZM256.04 252.864C257.782 252.864 259.267 252.394 260.494 251.455C261.722 250.5 262.653 249.174 263.29 247.477C263.926 245.78 264.244 243.803 264.244 241.545C264.244 239.288 263.926 237.326 263.29 235.659C262.669 233.992 261.744 232.697 260.517 231.773C259.305 230.848 257.813 230.386 256.04 230.386C254.206 230.386 252.676 230.864 251.449 231.818C250.222 232.773 249.297 234.091 248.676 235.773C248.055 237.455 247.744 239.379 247.744 241.545C247.744 243.727 248.055 245.674 248.676 247.386C249.313 249.083 250.244 250.424 251.472 251.409C252.714 252.379 254.237 252.864 256.04 252.864ZM312.205 259.682C308.795 259.682 305.841 258.932 303.341 257.432C300.841 255.932 298.902 253.833 297.523 251.136C296.159 248.439 295.477 245.288 295.477 241.682C295.477 238.076 296.159 234.917 297.523 232.205C298.902 229.492 300.841 227.386 303.341 225.886C305.841 224.386 308.795 223.636 312.205 223.636C315.614 223.636 318.568 224.386 321.068 225.886C323.568 227.386 325.5 229.492 326.864 232.205C328.242 234.917 328.932 238.076 328.932 241.682C328.932 245.288 328.242 248.439 326.864 251.136C325.5 253.833 323.568 255.932 321.068 257.432C318.568 258.932 315.614 259.682 312.205 259.682ZM312.25 253.091C314.098 253.091 315.644 252.583 316.886 251.568C318.129 250.538 319.053 249.159 319.659 247.432C320.28 245.705 320.591 243.78 320.591 241.659C320.591 239.523 320.28 237.591 319.659 235.864C319.053 234.121 318.129 232.735 316.886 231.705C315.644 230.674 314.098 230.159 312.25 230.159C310.356 230.159 308.78 230.674 307.523 231.705C306.28 232.735 305.348 234.121 304.727 235.864C304.121 237.591 303.818 239.523 303.818 241.659C303.818 243.78 304.121 245.705 304.727 247.432C305.348 249.159 306.28 250.538 307.523 251.568C308.78 252.583 310.356 253.091 312.25 253.091ZM335.915 259V224.091H343.892V229.909H344.256C344.892 227.894 345.983 226.341 347.528 225.25C349.089 224.144 350.869 223.591 352.869 223.591C353.324 223.591 353.831 223.614 354.392 223.659C354.968 223.689 355.445 223.742 355.824 223.818V231.386C355.475 231.265 354.922 231.159 354.165 231.068C353.422 230.962 352.703 230.909 352.006 230.909C350.506 230.909 349.157 231.235 347.96 231.886C346.778 232.523 345.847 233.409 345.165 234.545C344.483 235.682 344.142 236.992 344.142 238.477V259H335.915ZM419.119 235.727C419.119 240.742 418.18 245.038 416.301 248.614C414.438 252.174 411.892 254.902 408.665 256.795C405.453 258.689 401.809 259.636 397.733 259.636C393.657 259.636 390.006 258.689 386.778 256.795C383.566 254.886 381.021 252.152 379.142 248.591C377.278 245.015 376.347 240.727 376.347 235.727C376.347 230.712 377.278 226.424 379.142 222.864C381.021 219.288 383.566 216.553 386.778 214.659C390.006 212.765 393.657 211.818 397.733 211.818C401.809 211.818 405.453 212.765 408.665 214.659C411.892 216.553 414.438 219.288 416.301 222.864C418.18 226.424 419.119 230.712 419.119 235.727ZM410.642 235.727C410.642 232.197 410.089 229.22 408.983 226.795C407.892 224.356 406.377 222.515 404.438 221.273C402.498 220.015 400.263 219.386 397.733 219.386C395.203 219.386 392.968 220.015 391.028 221.273C389.089 222.515 387.566 224.356 386.46 226.795C385.369 229.22 384.824 232.197 384.824 235.727C384.824 239.258 385.369 242.242 386.46 244.682C387.566 247.106 389.089 248.947 391.028 250.205C392.968 251.447 395.203 252.068 397.733 252.068C400.263 252.068 402.498 251.447 404.438 250.205C406.377 248.947 407.892 247.106 408.983 244.682C410.089 242.242 410.642 239.258 410.642 235.727ZM426.727 259V224.091H434.705V229.909H435.068C435.705 227.894 436.795 226.341 438.341 225.25C439.902 224.144 441.682 223.591 443.682 223.591C444.136 223.591 444.644 223.614 445.205 223.659C445.78 223.689 446.258 223.742 446.636 223.818V231.386C446.288 231.265 445.735 231.159 444.977 231.068C444.235 230.962 443.515 230.909 442.818 230.909C441.318 230.909 439.97 231.235 438.773 231.886C437.591 232.523 436.659 233.409 435.977 234.545C435.295 235.682 434.955 236.992 434.955 238.477V259H426.727ZM465.847 272.818C462.892 272.818 460.354 272.417 458.233 271.614C456.112 270.826 454.407 269.765 453.119 268.432C451.831 267.098 450.938 265.621 450.438 264L457.847 262.205C458.18 262.886 458.665 263.561 459.301 264.227C459.938 264.909 460.794 265.47 461.869 265.909C462.96 266.364 464.331 266.591 465.983 266.591C468.316 266.591 470.248 266.023 471.778 264.886C473.309 263.765 474.074 261.917 474.074 259.341V252.727H473.665C473.241 253.576 472.619 254.447 471.801 255.341C470.998 256.235 469.93 256.985 468.597 257.591C467.278 258.197 465.619 258.5 463.619 258.5C460.938 258.5 458.506 257.871 456.324 256.614C454.157 255.341 452.43 253.447 451.142 250.932C449.869 248.402 449.233 245.235 449.233 241.432C449.233 237.598 449.869 234.364 451.142 231.727C452.43 229.076 454.165 227.068 456.347 225.705C458.528 224.326 460.96 223.636 463.642 223.636C465.688 223.636 467.369 223.985 468.688 224.682C470.021 225.364 471.081 226.189 471.869 227.159C472.657 228.114 473.256 229.015 473.665 229.864H474.119V224.091H482.233V259.568C482.233 262.553 481.521 265.023 480.097 266.977C478.672 268.932 476.725 270.394 474.256 271.364C471.786 272.333 468.983 272.818 465.847 272.818ZM465.915 252.045C467.657 252.045 469.142 251.621 470.369 250.773C471.597 249.924 472.528 248.705 473.165 247.114C473.801 245.523 474.119 243.614 474.119 241.386C474.119 239.189 473.801 237.265 473.165 235.614C472.544 233.962 471.619 232.682 470.392 231.773C469.18 230.848 467.688 230.386 465.915 230.386C464.081 230.386 462.551 230.864 461.324 231.818C460.097 232.773 459.172 234.083 458.551 235.75C457.93 237.402 457.619 239.28 457.619 241.386C457.619 243.523 457.93 245.394 458.551 247C459.188 248.591 460.119 249.833 461.347 250.727C462.589 251.606 464.112 252.045 465.915 252.045ZM500.71 259.705C498.5 259.705 496.51 259.311 494.733 258.523C492.975 257.72 491.581 256.538 490.551 254.977C489.536 253.417 489.028 251.492 489.028 249.205C489.028 247.235 489.392 245.606 490.119 244.318C490.847 243.03 491.839 242 493.097 241.227C494.354 240.455 495.77 239.871 497.35 239.477C498.94 239.068 500.58 238.773 502.28 238.591C504.32 238.379 505.98 238.189 507.26 238.023C508.53 237.841 509.45 237.568 510.03 237.205C510.62 236.826 510.91 236.242 510.91 235.455V235.318C510.91 233.606 510.41 232.28 509.39 231.341C508.38 230.402 506.91 229.932 505.01 229.932C502.99 229.932 501.39 230.371 500.21 231.25C499.04 232.129 498.26 233.167 497.85 234.364L490.165 233.273C490.771 231.152 491.771 229.379 493.165 227.955C494.559 226.515 496.26 225.439 498.28 224.727C500.29 224 502.52 223.636 504.96 223.636C506.64 223.636 508.32 223.833 509.98 224.227C511.65 224.621 513.17 225.273 514.55 226.182C515.93 227.076 517.04 228.295 517.87 229.841C518.72 231.386 519.14 233.318 519.14 235.636V259H511.23V254.205H510.96C510.46 255.174 509.76 256.083 508.85 256.932C507.95 257.765 506.82 258.439 505.46 258.955C504.11 259.455 502.53 259.705 500.71 259.705ZM502.85 253.659C504.5 253.659 505.93 253.333 507.14 252.682C508.35 252.015 509.29 251.136 509.94 250.045C510.6 248.955 510.94 247.765 510.94 246.477V242.364C510.68 242.576 510.24 242.773 509.62 242.955C509.01 243.136 508.33 243.295 507.57 243.432C506.82 243.568 506.07 243.689 505.32 243.795C504.58 243.902 503.94 243.992 503.39 244.068C502.16 244.235 501.07 244.508 500.1 244.886C499.13 245.265 498.36 245.795 497.8 246.477C497.24 247.144 496.96 248.008 496.96 249.068C496.96 250.583 497.51 251.727 498.62 252.5C499.73 253.273 501.13 253.659 502.85 253.659ZM535.64 238.545V259H527.41V224.091H535.28V230.023H535.69C536.49 228.068 537.77 226.515 539.53 225.364C541.3 224.212 543.49 223.636 546.1 223.636C548.51 223.636 550.6 224.152 552.39 225.182C554.2 226.212 555.59 227.705 556.57 229.659C557.57 231.614 558.07 233.985 558.05 236.773V259H549.82V238.045C549.82 235.712 549.22 233.886 548.01 232.568C546.81 231.25 545.15 230.591 543.03 230.591C541.59 230.591 540.31 230.909 539.19 231.545C538.08 232.167 537.21 233.068 536.57 234.25C535.95 235.432 535.64 236.864 535.64 238.545ZM566.41 259V224.091H574.64V259H566.41ZM570.55 219.136C569.25 219.136 568.13 218.705 567.19 217.841C566.25 216.962 565.78 215.909 565.78 214.682C565.78 213.439 566.25 212.386 567.19 211.523C568.13 210.644 569.25 210.205 570.55 210.205C571.87 210.205 572.99 210.644 573.91 211.523C574.85 212.386 575.32 213.439 575.32 214.682C575.32 215.909 574.85 216.962 573.91 217.841C572.99 218.705 571.87 219.136 570.55 219.136ZM582.65 259V253.773L600.65 231.205V230.909H583.24V224.091H610.72V229.705L593.58 251.886V252.182H611.31V259H582.65ZM629.09 259.705C626.87 259.705 624.88 259.311 623.11 258.523C621.35 257.72 619.96 256.538 618.93 254.977C617.91 253.417 617.4 251.492 617.4 249.205C617.4 247.235 617.77 245.606 618.49 244.318C619.22 243.03 620.21 242 621.47 241.227C622.73 240.455 624.15 239.871 625.72 239.477C627.31 239.068 628.96 238.773 630.65 238.591C632.7 238.379 634.36 238.189 635.63 238.023C636.9 237.841 637.83 237.568 638.4 237.205C638.99 236.826 639.29 236.242 639.29 235.455V235.318C639.29 233.606 638.78 232.28 637.77 231.341C636.75 230.402 635.29 229.932 633.38 229.932C631.37 229.932 629.77 230.371 628.59 231.25C627.42 232.129 626.63 233.167 626.22 234.364L618.54 233.273C619.15 231.152 620.15 229.379 621.54 227.955C622.93 226.515 624.64 225.439 626.65 224.727C628.67 224 630.9 223.636 633.34 223.636C635.02 223.636 636.69 223.833 638.36 224.227C640.02 224.621 641.55 225.273 642.93 226.182C644.3 227.076 645.41 228.295 646.24 229.841C647.09 231.386 647.52 233.318 647.52 235.636V259H639.61V254.205H639.34C638.84 255.174 638.13 256.083 637.22 256.932C636.33 257.765 635.2 258.439 633.84 258.955C632.49 259.455 630.9 259.705 629.09 259.705ZM631.22 253.659C632.87 253.659 634.3 253.333 635.52 252.682C636.73 252.015 637.66 251.136 638.31 250.045C638.98 248.955 639.31 247.765 639.31 246.477V242.364C639.05 242.576 638.62 242.773 637.99 242.955C637.39 243.136 636.71 243.295 635.95 243.432C635.19 243.568 634.44 243.689 633.7 243.795C632.96 243.902 632.31 243.992 631.77 244.068C630.54 244.235 629.44 244.508 628.47 244.886C627.5 245.265 626.74 245.795 626.18 246.477C625.62 247.144 625.34 248.008 625.34 249.068C625.34 250.583 625.89 251.727 626.99 252.5C628.1 253.273 629.51 253.659 631.22 253.659ZM673.22 224.091V230.455H653.15V224.091H673.22ZM658.11 215.727H666.34V248.5C666.34 249.606 666.5 250.455 666.84 251.045C667.18 251.621 667.64 252.015 668.2 252.227C668.76 252.439 669.38 252.545 670.06 252.545C670.58 252.545 671.05 252.508 671.47 252.432C671.91 252.356 672.24 252.288 672.47 252.227L673.86 258.659C673.42 258.811 672.79 258.977 671.97 259.159C671.17 259.341 670.18 259.447 669.02 259.477C666.96 259.538 665.1 259.227 663.45 258.545C661.8 257.848 660.49 256.773 659.52 255.318C658.56 253.864 658.09 252.045 658.11 249.864V215.727ZM680.1 259V224.091H688.33V259H680.1ZM684.24 219.136C682.94 219.136 681.81 218.705 680.88 217.841C679.94 216.962 679.47 215.909 679.47 214.682C679.47 213.439 679.94 212.386 680.88 211.523C681.81 210.644 682.94 210.205 684.24 210.205C685.56 210.205 686.68 210.644 687.6 211.523C688.54 212.386 689.01 213.439 689.01 214.682C689.01 215.909 688.54 216.962 687.6 217.841C686.68 218.705 685.56 219.136 684.24 219.136ZM712.02 259.682C708.61 259.682 705.65 258.932 703.15 257.432C700.65 255.932 698.71 253.833 697.34 251.136C695.97 248.439 695.29 245.288 695.29 241.682C695.29 238.076 695.97 234.917 697.34 232.205C698.71 229.492 700.65 227.386 703.15 225.886C705.65 224.386 708.61 223.636 712.02 223.636C715.43 223.636 718.38 224.386 720.88 225.886C723.38 227.386 725.31 229.492 726.68 232.205C728.05 234.917 728.74 238.076 728.74 241.682C728.74 245.288 728.05 248.439 726.68 251.136C725.31 253.833 723.38 255.932 720.88 257.432C718.38 258.932 715.43 259.682 712.02 259.682ZM712.06 253.091C713.91 253.091 715.46 252.583 716.7 251.568C717.94 250.538 718.87 249.159 719.47 247.432C720.09 245.705 720.4 243.78 720.4 241.659C720.4 239.523 720.09 237.591 719.47 235.864C718.87 234.121 717.94 232.735 716.7 231.705C715.46 230.674 713.91 230.159 712.06 230.159C710.17 230.159 708.59 230.674 707.34 231.705C706.09 232.735 705.16 234.121 704.54 235.864C703.93 237.591 703.63 239.523 703.63 241.659C703.63 243.78 703.93 245.705 704.54 247.432C705.16 249.159 706.09 250.538 707.34 251.568C708.59 252.583 710.17 253.091 712.06 253.091ZM743.95 238.545V259H735.73V224.091H743.59V230.023H744C744.8 228.068 746.08 226.515 747.84 225.364C749.61 224.212 751.8 223.636 754.41 223.636C756.82 223.636 758.92 224.152 760.7 225.182C762.51 226.212 763.9 227.705 764.89 229.659C765.89 231.614 766.38 233.985 766.36 236.773V259H758.14V238.045C758.14 235.712 757.53 233.886 756.32 232.568C755.12 231.25 753.46 230.591 751.34 230.591C749.9 230.591 748.62 230.909 747.5 231.545C746.39 232.167 745.52 233.068 744.89 234.25C744.27 235.432 743.95 236.864 743.95 238.545Z" fill="#F7F5FF"/>
</g>
</g>
<defs>
<filter id="filter0_d_13_2" x="0" y="0" width="1410" height="470" filterUnits="userSpaceOnUse" color-interpolation-filters="sRGB">
<feFlood flood-opacity="0" result="BackgroundImageFix"/>
<feColorMatrix in="SourceAlpha" type="matrix" values="0 0 0 0 0 0 0 0 0 0 0 0 0 0 0 0 0 0 127 0" result="hardAlpha"/>
<feOffset dx="-2" dy="2"/>
<feGaussianBlur stdDeviation="12.5"/>
<feComposite in2="hardAlpha" operator="out"/>
<feColorMatrix type="matrix" values="0 0 0 0 0.584314 0 0 0 0 0.584314 0 0 0 0 0.584314 0 0 0 0.3 0"/>
<feBlend mode="normal" in2="BackgroundImageFix" result="effect1_dropShadow_13_2"/>
<feBlend mode="normal" in="SourceGraphic" in2="effect1_dropShadow_13_2" result="shape"/>
</filter>
<linearGradient id="paint0_linear_13_2" x1="67.375" y1="450" x2="1506.35" y2="361.405" gradientUnits="userSpaceOnUse">
<stop stop-color="#101D46"/>
<stop offset="0.374863" stop-color="#3A70E4"/>
<stop offset="1" stop-color="#101D46"/>
</linearGradient>
</defs>
</svg>
