<svg width="77" height="77" viewBox="0 0 77 77" fill="none" xmlns="http://www.w3.org/2000/svg">
<path fill-rule="evenodd" clip-rule="evenodd" d="M52.0935 0.439941C38.5795 0.439941 27.6245 11.3899 27.6245 24.9099C27.6245 26.3299 27.7465 27.7301 27.9825 29.1001C28.2265 30.5101 27.8665 31.6899 27.1815 32.3799L3.6225 55.9399C1.5825 57.9799 0.4375 60.7399 0.4375 63.6299V73.8401C0.4375 75.3501 1.65452 76.5601 3.15552 76.5601H16.7495C18.2515 76.5601 19.4685 75.3501 19.4685 73.8401V68.4099H24.9055C26.4075 68.4099 27.6245 67.1899 27.6245 65.6899V60.25H33.0615C33.7835 60.25 34.4745 59.9599 34.9845 59.45L44.6195 49.8201C45.3055 49.1301 46.4915 48.77 47.9015 49.02C49.2655 49.25 50.6655 49.3799 52.0935 49.3799C65.6065 49.3799 76.5615 38.4199 76.5615 24.9099C76.5615 11.3899 65.6065 0.439941 52.0935 0.439941ZM52.0935 11.3101C50.5915 11.3101 49.3745 12.53 49.3745 14.03C49.3745 15.53 50.5915 16.75 52.0935 16.75C56.5975 16.75 60.2495 20.3999 60.2495 24.9099C60.2495 26.4099 61.4665 27.6201 62.9685 27.6201C64.4695 27.6201 65.6875 26.4099 65.6875 24.9099C65.6875 17.3999 59.6005 11.3101 52.0935 11.3101Z" fill="#D7CFF9"/>
</svg>
