<svg width="75" height="80" viewBox="0 0 75 80" fill="none" xmlns="http://www.w3.org/2000/svg">
<path d="M30 60.75C25.87 60.75 22.5 57.38 22.5 53.25C22.5 49.12 25.87 45.75 30 45.75C34.12 45.75 37.5 49.12 37.5 53.25C37.5 57.38 34.12 60.75 30 60.75ZM52.5 72V34.5H7.5V72H52.5ZM52.5 27C56.62 27 60 30.38 60 34.5V72C60 76.12 56.62 79.5 52.5 79.5H7.5C3.37 79.5 0 76.12 0 72V34.5C0 30.38 3.37 27 7.5 27H11.25V19.5C11.25 9 19.5 0.75 30 0.75C40.5 0.75 48.75 9 48.75 19.5V27H52.5ZM30 8.25C23.62 8.25 18.75 13.12 18.75 19.5V27H41.25V19.5C41.25 13.12 36.37 8.25 30 8.25ZM75 23.25H67.5V45.75H75V23.25ZM75 53.25H67.5V60.75H75V53.25Z" fill="#D7CFF9"/>
</svg>
