<svg width="19" height="20" viewBox="0 0 19 20" fill="none" xmlns="http://www.w3.org/2000/svg">
<path fill-rule="evenodd" clip-rule="evenodd" d="M15.5 1.86902C16.33 1.86902 17 2.54102 17 3.36902V16.869C17 17.698 16.33 18.369 15.5 18.369H9.5C8.67 18.369 8 17.698 8 16.869V13.119C8 12.705 7.66 12.369 7.25 12.369C6.84 12.369 6.5 12.705 6.5 13.119V16.869C6.5 18.526 7.84 19.869 9.5 19.869H15.5C17.16 19.869 18.5 18.526 18.5 16.869V3.36902C18.5 1.71302 17.16 0.369019 15.5 0.369019H9.5C7.84 0.369019 6.5 1.71302 6.5 3.36902V7.11902C6.5 7.53402 6.84 7.86902 7.25 7.86902C7.66 7.86902 8 7.53402 8 7.11902V3.36902C8 2.54102 8.67 1.86902 9.5 1.86902H15.5ZM10.47 6.58902C10.18 6.88202 10.18 7.35702 10.47 7.65002L12.1899 9.36902H1.25C0.84 9.36902 0.5 9.70502 0.5 10.119C0.5 10.534 0.84 10.869 1.25 10.869H12.1899L10.47 12.589C10.18 12.882 10.18 13.357 10.47 13.65C10.76 13.943 11.24 13.943 11.53 13.65L14.53 10.65C14.82 10.357 14.82 9.88202 14.53 9.58902L11.53 6.58902C11.24 6.29602 10.76 6.29602 10.47 6.58902Z" fill="#959595"/>
</svg>
