<svg width="21" height="21" viewBox="0 0 21 21" fill="none" xmlns="http://www.w3.org/2000/svg">
<path fill-rule="evenodd" clip-rule="evenodd" d="M5.99878 3.59201C5.99878 1.84801 7.40868 0.434998 9.14868 0.434998H12.3088C14.0488 0.434998 15.4688 1.84801 15.4688 3.59201V3.80701C16.4488 3.89701 17.4187 4.014 18.3887 4.159C19.9187 4.388 20.9888 5.719 20.9888 7.228V10.419C20.9888 11.694 20.2187 12.895 18.9487 13.315C16.3687 14.175 13.5988 14.64 10.7288 14.64C7.85876 14.64 5.08879 14.175 2.50879 13.315C1.23879 12.895 0.46875 11.694 0.46875 10.419V7.228C0.46875 5.719 1.54886 4.388 3.07886 4.159C4.03886 4.014 5.01878 3.89701 5.99878 3.80701V3.59201ZM13.8887 3.59201V3.68701C12.8387 3.62401 11.7888 3.59201 10.7288 3.59201C9.66876 3.59201 8.61885 3.62401 7.56885 3.68701V3.59201C7.56885 2.72001 8.27868 2.013 9.14868 2.013H12.3088C13.1788 2.013 13.8887 2.72001 13.8887 3.59201ZM10.7288 12.273C11.1688 12.273 11.5188 11.919 11.5188 11.483C11.5188 11.047 11.1688 10.694 10.7288 10.694C10.2988 10.694 9.93872 11.047 9.93872 11.483C9.93872 11.919 10.2988 12.273 10.7288 12.273Z" fill="#959595"/>
<path d="M1.25781 17.428V14.486C1.49781 14.615 1.74781 14.725 2.00781 14.813C4.75781 15.725 7.68778 16.218 10.7278 16.218C13.7678 16.218 16.7078 15.725 19.4478 14.813C19.7178 14.725 19.9678 14.615 20.1978 14.486V17.428C20.1978 18.956 19.0979 20.298 17.5479 20.505C15.3179 20.801 13.0378 20.953 10.7278 20.953C8.41778 20.953 6.14772 20.801 3.91772 20.505C2.35772 20.298 1.25781 18.956 1.25781 17.428Z" fill="#959595"/>
</svg>
