<svg width="43" height="43" viewBox="0 0 43 43" fill="none" xmlns="http://www.w3.org/2000/svg">
<path d="M42.0896 21.2458C42.0896 9.62313 32.6675 0.20105 21.0448 0.20105C9.42208 0.20105 0 9.62313 0 21.2458C0 32.8686 9.42208 42.2906 21.0448 42.2906C32.6675 42.2906 42.0896 32.8686 42.0896 21.2458Z" fill="#E7E7E7"/>
<path fill-rule="evenodd" clip-rule="evenodd" d="M14 15.3001C14 11.2685 17.1801 8.00015 21.1101 8.00015C25.0301 8.00015 28.2101 11.2685 28.2101 15.3001C28.2101 19.3317 25.0301 22.6 21.1101 22.6C17.1801 22.6 14 19.3317 14 15.3001Z" fill="#EDE9FE"/>
<path fill-rule="evenodd" clip-rule="evenodd" d="M8.00027 36.3496C8.12027 29.0663 13.9003 23.201 21.0203 23.201C28.1303 23.201 33.9103 29.0665 34.0303 36.3501C34.0403 36.8331 33.7702 37.2752 33.3402 37.4767C29.5902 39.2475 25.4103 40.2341 21.0203 40.2341C16.6203 40.2341 12.4402 39.2473 8.69021 37.4762C8.26021 37.2747 7.99027 36.8326 8.00027 36.3496Z" fill="#EDE9FE"/>
</svg>
