<svg width="21" height="20" viewBox="0 0 21 20" fill="none" xmlns="http://www.w3.org/2000/svg">
<path fill-rule="evenodd" clip-rule="evenodd" d="M17.1899 17.1C19.0699 15.32 20.25 12.8 20.25 10C20.25 4.62 15.88 0.25 10.5 0.25C5.12 0.25 0.75 4.62 0.75 10C0.75 12.8 1.93006 15.32 3.81006 17.1C5.56006 18.74 7.91 19.75 10.5 19.75C13.09 19.75 15.4399 18.74 17.1899 17.1ZM4.6499 15.8101C6.0199 14.1001 8.13 13 10.5 13C12.87 13 14.9801 14.1001 16.3501 15.8101C14.8601 17.3201 12.79 18.25 10.5 18.25C8.21 18.25 6.1399 17.3201 4.6499 15.8101ZM14.25 7C14.25 9.07 12.57 10.75 10.5 10.75C8.43 10.75 6.75 9.07 6.75 7C6.75 4.93 8.43 3.25 10.5 3.25C12.57 3.25 14.25 4.93 14.25 7Z" fill="#717171"/>
</svg>
