<svg width="20" height="21" viewBox="0 0 20 21" fill="none" xmlns="http://www.w3.org/2000/svg">
<path fill-rule="evenodd" clip-rule="evenodd" d="M8.76077 0.233032C7.80077 0.233032 6.97082 0.930019 6.81082 1.88202L6.63065 3.01004C6.61065 3.13704 6.51082 3.28404 6.31082 3.37704C5.95082 3.55104 5.61079 3.75202 5.28079 3.97702C5.10079 4.09702 4.93081 4.10902 4.80081 4.06302L3.73074 3.66202C2.83074 3.32302 1.81084 3.68804 1.33084 4.52304L0.360872 6.20303C-0.119128 7.03803 0.0708327 8.10004 0.820833 8.71304L1.70072 9.44104C1.80072 9.52304 1.88087 9.68204 1.86087 9.89304C1.85087 10.091 1.84085 10.291 1.84085 10.492C1.84085 10.694 1.85087 10.894 1.86087 11.092C1.88087 11.303 1.80072 11.462 1.70072 11.544L0.820833 12.272C0.0708327 12.885 -0.119128 13.947 0.360872 14.782L1.33084 16.462C1.81084 17.298 2.83074 17.662 3.73074 17.324L4.80081 16.922C4.93081 16.876 5.10079 16.889 5.28079 17.009C5.61079 17.233 5.95082 17.434 6.31082 17.608C6.51082 17.701 6.61065 17.848 6.63065 17.975L6.81082 19.103C6.97082 20.055 7.80077 20.752 8.76077 20.752H10.7007C11.6707 20.752 12.4907 20.055 12.6507 19.103L12.8409 17.975C12.8609 17.848 12.9607 17.701 13.1507 17.608C13.5107 17.434 13.8607 17.233 14.1807 17.008C14.3607 16.888 14.5407 16.876 14.6607 16.922L15.7307 17.323C16.6307 17.662 17.6506 17.297 18.1306 16.462L19.1009 14.782C19.5809 13.947 19.3907 12.885 18.6507 12.272L17.7608 11.544C17.6608 11.462 17.5809 11.303 17.6009 11.092C17.6209 10.894 17.6209 10.694 17.6209 10.492C17.6209 10.291 17.6209 10.091 17.6009 9.89304C17.5809 9.68204 17.6608 9.52304 17.7608 9.44104L18.6507 8.71304C19.3907 8.10004 19.5809 7.03803 19.1009 6.20303L18.1306 4.52304C17.6506 3.68704 16.6307 3.32304 15.7307 3.66104L14.6607 4.06302C14.5407 4.10902 14.3607 4.09604 14.1807 3.97604C13.8607 3.75204 13.5107 3.55104 13.1507 3.37704C12.9607 3.28404 12.8609 3.13704 12.8409 3.01004L12.6507 1.88202C12.4907 0.930019 11.6707 0.233032 10.7007 0.233032H8.76077ZM9.73074 14.438C11.9107 14.438 13.6807 12.672 13.6807 10.492C13.6807 8.31304 11.9107 6.54703 9.73074 6.54703C7.55074 6.54703 5.7908 8.31304 5.7908 10.492C5.7908 12.672 7.55074 14.438 9.73074 14.438Z" fill="#959595"/>
</svg>
