<svg width="40" height="51" viewBox="0 0 40 51" fill="none" xmlns="http://www.w3.org/2000/svg">
<path fill-rule="evenodd" clip-rule="evenodd" d="M9 11.3999C9 5.4399 13.84 0.600098 19.8 0.600098C25.77 0.600098 30.6 5.4399 30.6 11.3999C30.6 17.3599 25.77 22.2 19.8 22.2C13.84 22.2 9 17.3599 9 11.3999Z" fill="#D7CFF9"/>
<path fill-rule="evenodd" clip-rule="evenodd" d="M0.000178856 45.25C0.190179 34.48 8.98023 25.8 19.8002 25.8C30.6202 25.8 39.4102 34.48 39.6002 45.25C39.6102 45.97 39.2002 46.6199 38.5502 46.9199C32.8402 49.5399 26.4902 51 19.8002 51C13.1202 51 6.76023 49.5399 1.05023 46.9199C0.400228 46.6199 -0.00982114 45.97 0.000178856 45.25Z" fill="#D7CFF9"/>
</svg>
