<svg width="268" height="200" viewBox="0 0 268 200" fill="none" xmlns="http://www.w3.org/2000/svg">
<path opacity="0.5" d="M156.479 90.43C179.583 61.93 165.977 34.0401 136.868 13.7201C117.405 0.150055 66.5471 -11.2501 35.7071 20.0199C8.86915 47.2399 18.1962 74.94 32.0452 88.43C16.6182 94 2.7722 105.89 0.413202 122.6C-3.0498 147.14 15.8202 165.69 35.8292 173.73C62.4222 184.4 95.5682 185.99 123.206 180.14C146.033 175.31 172.157 163.95 178.22 137.09C183.21 114.99 174.169 97.57 156.479 90.43Z" fill="#D7CFF9"/>
<path d="M267.229 191.09C267.229 195.62 208.927 199.29 137 199.29C65.0785 199.29 6.77148 195.62 6.77148 191.09C6.77148 186.57 65.0795 182.9 137 182.9C208.928 182.9 267.229 186.57 267.229 191.09Z" fill="#ACBFE2"/>
<path d="M235.51 98.8501C235.51 149.25 194.65 190.11 144.248 190.11C93.8424 190.11 52.9844 149.25 52.9844 98.8501C52.9844 48.4401 93.8424 7.58008 144.248 7.58008C194.65 7.58008 235.51 48.4401 235.51 98.8501Z" fill="#AA99EC"/>
<path d="M152.389 132.77C155.038 137.09 152.366 143.55 146.408 147.21C140.458 150.87 133.477 150.33 130.828 146.01L100.358 96.39C97.7071 92.07 100.379 85.6101 106.34 81.9501C112.289 78.2901 119.27 78.8298 121.919 83.1498L152.389 132.77Z" fill="#F6F5F7"/>
<path d="M151.28 143.6C147.626 149.55 139.835 151.42 133.886 147.77C127.924 144.11 126.065 136.32 129.719 130.36L171.711 61.9301C175.365 55.9701 183.156 54.0997 189.114 57.7597C195.066 61.4097 196.935 69.2001 193.28 75.1601L151.28 143.6Z" fill="#F6F5F7"/>
<path d="M77.2649 86.2004C78.5299 85.6104 82.6879 85.29 84.8569 88.57C87.7839 92.97 88.7919 103.67 95.3179 106.9C101.864 110.11 105.943 107.37 108.913 105.87C111.88 104.39 112.372 102.4 114.21 101.72C116.029 101.05 116.739 103.26 112.546 106.79C110.523 108.47 101.623 118 93.1339 115.62C81.9919 112.48 69.7769 89.6204 77.2649 86.2004Z" fill="#E28C71"/>
<path d="M86.958 155.28C85.131 166.44 83.657 190.11 88.555 189.92C93.467 189.73 96.0919 187.93 93.2119 187.24C90.3149 186.55 90.213 186.22 90.241 185.33C90.466 179.75 94.7789 169.12 96.4069 160.99C98.3019 151.55 88.572 145.53 86.958 155.28Z" fill="#F27851"/>
<path d="M86.3242 187.68C86.3242 187.68 90.7192 189.27 93.2122 187.24C93.2122 187.24 98.0692 187.65 95.1212 189.13C92.1922 190.61 86.4242 192.05 86.3242 187.68Z" fill="#6E86CC"/>
<path d="M68.9798 109.39C68.9798 109.39 94.2428 127.13 97.8798 136.2C101.143 144.36 93.5678 177.22 93.5678 177.22C93.5678 177.22 88.2438 179.35 83.3548 176.35L83.9958 150.79L62.6738 131.29L68.9798 109.39Z" fill="#4829D3"/>
<path d="M52.6778 156.67C43.3458 164.37 25.4908 182.4 29.5818 185.7C33.6678 188.99 37.0629 189.39 35.2149 186.82C33.3789 184.22 33.5159 183.87 34.1709 183.19C38.2869 178.85 49.2248 173.31 56.2498 167.92C64.4278 161.66 60.8318 149.94 52.6778 156.67Z" fill="#F27851"/>
<path d="M29.3571 182.33C29.3571 182.33 31.7841 186.69 35.2181 186.82C35.2181 186.82 38.8381 190.55 35.4351 189.67C32.0321 188.8 26.3861 185.91 29.3571 182.33Z" fill="#6E86CC"/>
<path d="M65.2344 109.27C65.2344 109.27 78.3434 139.13 74.8854 148.99C71.7834 157.87 42.5624 179 42.5624 179C42.5624 179 36.7735 176.96 34.9395 171.11L53.4434 150.97C53.4434 150.97 46.0464 127.69 49.6784 119.06C49.8064 118.77 49.1724 121.11 49.1724 121.11L65.2344 109.27Z" fill="#4829D3"/>
<path d="M81.0019 122.48C85.8439 116.1 88.5809 106.19 88.7709 98.5097C89.0369 87.8497 79.6169 85.0997 73.6319 84.5297C67.6449 83.9597 57.8589 82.8 58.2599 96.08C58.5259 105.35 55.161 110.19 50.46 118.03C50.334 118.24 50.2059 118.41 50.0799 118.6C50.0589 118.6 50.0499 118.58 50.0499 118.58C50.0569 118.59 50.0589 118.6 50.0799 118.6C43.4509 126.74 75.5029 129.73 81.0019 122.48Z" fill="#FCDCDA"/>
<path d="M50.4598 118.03C50.3338 118.24 50.2058 118.41 50.0798 118.6C50.0588 118.6 50.0497 118.58 50.0497 118.58C50.0557 118.59 50.0588 118.6 50.0798 118.6C44.9478 124.9 62.9548 128.1 73.9178 125.89C75.6188 123.35 67.3807 122.67 64.3307 120.19C57.2997 114.49 82.3728 114.01 78.0538 111.91C73.3908 109.67 66.4507 110.56 69.5057 103.73C72.5497 96.9 69.9298 88.73 67.0378 85.96C64.0238 83.07 58.9777 86.46 58.4277 92.75C58.2907 93.75 58.2087 94.8401 58.2587 96.0801C58.5257 105.35 55.1608 110.19 50.4598 118.03Z" fill="#EFBEBD"/>
<path d="M74.4853 76.7202C74.4853 76.7202 75.8063 81.7701 72.0763 83.6401C68.2523 85.5401 79.9843 94.8899 80.1693 92.1099C80.4093 88.5399 78.9963 86.1302 81.4603 82.4302L74.4853 76.7202Z" fill="#E67052"/>
<path d="M83.5067 69.3C85.9707 72.66 86.8747 85.6004 83.2427 87.7404C81.6527 88.6604 76.2937 86.2802 73.7567 80.1902C72.7007 77.7002 71.6837 73.1904 74.7157 69.4104C76.0897 67.6904 80.6427 65.38 83.5067 69.3Z" fill="#EE9D7F"/>
<path d="M72.839 69.2301C69.638 73.2501 71.038 77.1402 71.265 77.8502C72.099 80.4602 74.219 82.89 74.865 82.13C75.634 81.23 72.7219 80.29 74.0579 77.71C75.3999 75.12 73.692 74.21 74.581 71.9C75.446 69.59 77.1509 70.3799 82.5449 70.5499C84.7549 70.6199 85.311 69.8703 85.232 68.9503C82.496 65.0303 76.207 65.0001 72.839 69.2301Z" fill="#062440"/>
<path d="M85.672 72.1001C86.987 68.9801 91.675 69.7201 90.181 67.5201C89.181 66.0401 89.169 67.1502 78.004 64.8702C72.792 63.8102 71.765 66.04 70.771 68.98C69.85 71.69 70.137 78.3498 73.707 82.2798C77.265 86.1998 73.595 79.6703 74.961 76.7203C76.326 73.7703 77.227 75.0198 79.191 75.5098C81.155 75.9898 83.552 77.1301 85.672 72.1001Z" fill="#353A66"/>
<path d="M64.845 85.1499C66.263 85.2599 68.734 87.3999 69.052 91.3799C69.499 96.6999 66.485 106.27 70.686 112.32C74.905 118.39 79.866 117.95 83.217 118.09C86.588 118.24 87.997 116.72 89.935 117.01C91.883 117.3 91.427 119.62 85.98 120.68C83.375 121.19 70.815 125.25 64.466 118.97C56.144 110.73 56.548 84.4899 64.845 85.1499Z" fill="#E28C71"/>
</svg>
