<svg width="21" height="21" viewBox="0 0 21 21" fill="none" xmlns="http://www.w3.org/2000/svg">
<path fill-rule="evenodd" clip-rule="evenodd" d="M17.7688 18.117C19.7488 16.246 20.9888 13.592 20.9888 10.649C20.9888 4.98302 16.3988 0.390015 10.7288 0.390015C5.06876 0.390015 0.46875 4.98302 0.46875 10.649C0.46875 13.592 1.70873 16.246 3.69873 18.117C5.52873 19.848 8.00876 20.909 10.7288 20.909C13.4488 20.909 15.9288 19.848 17.7688 18.117ZM4.56885 16.765C6.01885 14.961 8.23876 13.806 10.7288 13.806C13.2188 13.806 15.4487 14.961 16.8887 16.765C15.3187 18.349 13.1388 19.33 10.7288 19.33C8.31876 19.33 6.13885 18.349 4.56885 16.765ZM14.6787 7.49301C14.6787 9.67201 12.9088 11.438 10.7288 11.438C8.54876 11.438 6.78882 9.67201 6.78882 7.49301C6.78882 5.31301 8.54876 3.54701 10.7288 3.54701C12.9088 3.54701 14.6787 5.31301 14.6787 7.49301Z" fill="#959595"/>
</svg>
