<svg width="411" height="310" viewBox="0 0 411 310" fill="none" xmlns="http://www.w3.org/2000/svg">
<path d="M182.786 159L184.217 150.273H185.07L183.638 159H182.786ZM178.814 156.58L178.95 155.727H185.462L185.325 156.58H178.814ZM179.717 159L181.149 150.273H182.001L180.57 159H179.717ZM179.325 153.545L179.462 152.693H185.973L185.837 153.545H179.325ZM189.981 159.119C189.623 159.114 189.265 159.045 188.907 158.915C188.549 158.784 188.222 158.564 187.927 158.254C187.631 157.942 187.394 157.52 187.215 156.989C187.036 156.455 186.947 155.784 186.947 154.977C186.947 154.205 187.019 153.52 187.164 152.923C187.309 152.324 187.519 151.82 187.795 151.411C188.07 150.999 188.403 150.686 188.792 150.473C189.184 150.26 189.626 150.153 190.117 150.153C190.606 150.153 191.04 150.251 191.421 150.447C191.805 150.641 192.117 150.911 192.359 151.257C192.6 151.604 192.756 152.003 192.827 152.455H191.788C191.691 152.062 191.504 151.737 191.225 151.479C190.947 151.22 190.577 151.091 190.117 151.091C189.441 151.091 188.908 151.385 188.519 151.973C188.133 152.561 187.938 153.386 187.935 154.449H188.004C188.163 154.207 188.352 154.001 188.57 153.831C188.792 153.658 189.036 153.524 189.303 153.43C189.57 153.337 189.853 153.29 190.151 153.29C190.651 153.29 191.109 153.415 191.523 153.665C191.938 153.912 192.271 154.254 192.521 154.692C192.771 155.126 192.896 155.625 192.896 156.188C192.896 156.727 192.775 157.222 192.533 157.67C192.292 158.116 191.952 158.472 191.515 158.736C191.08 158.997 190.569 159.125 189.981 159.119ZM189.981 158.182C190.339 158.182 190.66 158.092 190.944 157.913C191.231 157.734 191.457 157.494 191.621 157.193C191.789 156.892 191.873 156.557 191.873 156.188C191.873 155.827 191.792 155.499 191.63 155.203C191.471 154.905 191.251 154.668 190.969 154.491C190.691 154.315 190.373 154.227 190.015 154.227C189.745 154.227 189.494 154.281 189.261 154.389C189.028 154.494 188.823 154.639 188.647 154.824C188.474 155.009 188.337 155.22 188.238 155.459C188.138 155.695 188.089 155.943 188.089 156.205C188.089 156.551 188.17 156.875 188.332 157.176C188.496 157.477 188.721 157.72 189.005 157.905C189.292 158.089 189.617 158.182 189.981 158.182ZM194.367 157.21V156.341L198.202 150.273H198.833V151.619H198.407L195.509 156.205V156.273H200.674V157.21H194.367ZM198.475 159V156.946V156.541V150.273H199.48V159H198.475ZM202.066 157.21V156.341L205.901 150.273H206.532V151.619H206.106L203.208 156.205V156.273H208.373V157.21H202.066ZM206.174 159V156.946V156.541V150.273H207.18V159H206.174ZM210.123 159V150.273H215.356V151.21H211.18V154.159H214.964V155.097H211.18V159H210.123ZM224.189 153H223.132C223.07 152.696 222.96 152.429 222.804 152.199C222.651 151.969 222.463 151.776 222.241 151.619C222.023 151.46 221.78 151.341 221.513 151.261C221.246 151.182 220.967 151.142 220.678 151.142C220.149 151.142 219.67 151.276 219.241 151.543C218.815 151.81 218.476 152.203 218.223 152.723C217.973 153.243 217.848 153.881 217.848 154.636C217.848 155.392 217.973 156.03 218.223 156.55C218.476 157.07 218.815 157.463 219.241 157.73C219.67 157.997 220.149 158.131 220.678 158.131C220.967 158.131 221.246 158.091 221.513 158.011C221.78 157.932 222.023 157.814 222.241 157.658C222.463 157.499 222.651 157.304 222.804 157.074C222.96 156.841 223.07 156.574 223.132 156.273H224.189C224.109 156.719 223.964 157.118 223.754 157.47C223.544 157.822 223.283 158.122 222.97 158.369C222.658 158.614 222.307 158.8 221.918 158.928C221.531 159.055 221.118 159.119 220.678 159.119C219.933 159.119 219.271 158.938 218.692 158.574C218.112 158.21 217.656 157.693 217.324 157.023C216.991 156.352 216.825 155.557 216.825 154.636C216.825 153.716 216.991 152.92 217.324 152.25C217.656 151.58 218.112 151.062 218.692 150.699C219.271 150.335 219.933 150.153 220.678 150.153C221.118 150.153 221.531 150.217 221.918 150.345C222.307 150.473 222.658 150.661 222.97 150.908C223.283 151.152 223.544 151.45 223.754 151.803C223.964 152.152 224.109 152.551 224.189 153ZM228.811 150.273V159H227.755V151.381H227.703L225.573 152.795V151.722L227.755 150.273H228.811Z" fill="black"/>
<path d="M5.40204 51.848C5.40204 52.004 5.36303 52.109 5.28503 52.164C5.20703 52.227 5.09703 52.258 4.95703 52.258C4.58903 52.258 4.32403 52.16 4.16003 51.965C4.00403 51.77 3.88598 51.512 3.80798 51.191C3.78498 51.082 3.76104 50.973 3.73804 50.863C3.71404 50.746 3.69502 50.633 3.67902 50.523C3.66402 50.422 3.64802 50.352 3.63202 50.312C3.61702 50.273 3.601 50.199 3.586 50.09C3.492 50.316 3.37501 50.555 3.23401 50.805C3.10101 51.047 2.94501 51.273 2.76501 51.484C2.58601 51.688 2.38201 51.855 2.15601 51.988C1.93701 52.121 1.69502 52.188 1.42902 52.188C1.14802 52.188 0.914013 52.121 0.726013 51.988C0.539013 51.848 0.390006 51.676 0.281006 51.473C0.179006 51.262 0.104983 51.031 0.0579834 50.781C0.0189834 50.531 0 50.293 0 50.066C0 49.535 0.0500386 48.961 0.152039 48.344C0.261039 47.719 0.409985 47.098 0.596985 46.48C0.784985 45.855 1.00403 45.258 1.25403 44.688C1.50403 44.109 1.77704 43.605 2.07404 43.176V43.188L2.14398 43.082C2.22998 42.965 2.32801 42.84 2.43701 42.707C2.55401 42.566 2.69098 42.496 2.84698 42.496C2.99598 42.496 3.12501 42.562 3.23401 42.695C3.34301 42.82 3.42102 42.953 3.46802 43.094C3.67102 43.133 3.836 43.184 3.961 43.246C4.086 43.301 4.18303 43.371 4.25403 43.457C4.32403 43.543 4.37098 43.645 4.39398 43.762C4.41798 43.871 4.42902 43.992 4.42902 44.125C4.42902 44.18 4.42902 44.238 4.42902 44.301C4.42902 44.363 4.42503 44.426 4.41803 44.488C4.41003 44.551 4.40601 44.625 4.40601 44.711C4.40601 44.797 4.40601 44.875 4.40601 44.945C4.40601 45.023 4.41798 45.125 4.44098 45.25C4.47198 45.375 4.50403 45.504 4.53503 45.637L4.617 46.07C4.656 46.297 4.687 46.555 4.711 46.844C4.742 47.133 4.77698 47.422 4.81598 47.711C4.84698 48.008 4.87903 48.297 4.91003 48.578C4.94103 48.852 4.97203 49.105 5.00403 49.34L5.28503 51.074L5.32001 51.273C5.33601 51.375 5.351 51.469 5.367 51.555C5.39 51.641 5.40204 51.738 5.40204 51.848ZM2.71802 45.109C2.71802 45.094 2.71403 45.07 2.70703 45.039C2.69903 45 2.69098 44.961 2.68298 44.922C2.50398 45.305 2.343 45.723 2.203 46.176C2.07 46.621 1.95704 47.078 1.86304 47.547C1.77704 48.008 1.711 48.473 1.664 48.941C1.625 49.402 1.60498 49.84 1.60498 50.254C1.60498 50.293 1.60498 50.328 1.60498 50.359C1.60498 50.391 1.609 50.422 1.617 50.453V50.465C1.804 50.176 1.96398 49.797 2.09698 49.328C2.23798 48.852 2.35504 48.355 2.44904 47.84C2.54304 47.316 2.60901 46.812 2.64801 46.328C2.69501 45.836 2.71802 45.43 2.71802 45.109ZM10.793 49.375C10.793 49.539 10.765 49.707 10.711 49.879C10.656 50.051 10.593 50.215 10.523 50.371C10.429 50.598 10.316 50.82 10.183 51.039C10.05 51.25 9.89801 51.441 9.72601 51.613C9.55401 51.777 9.35901 51.91 9.14001 52.012C8.92101 52.113 8.67504 52.164 8.40204 52.164C7.91804 52.164 7.51501 52.043 7.19501 51.801C6.87501 51.559 6.62098 51.254 6.43298 50.887C6.24598 50.52 6.11303 50.117 6.03503 49.68C5.96403 49.242 5.92902 48.828 5.92902 48.438C5.92902 48.148 5.94099 47.809 5.96399 47.418C5.98799 47.02 6.03102 46.609 6.09302 46.188C6.16402 45.766 6.26099 45.348 6.38599 44.934C6.51899 44.52 6.68701 44.152 6.89001 43.832C7.09301 43.504 7.33903 43.238 7.62903 43.035C7.92503 42.832 8.27698 42.73 8.68298 42.73C8.76898 42.73 8.89398 42.746 9.05798 42.777C9.22198 42.809 9.382 42.855 9.539 42.918C9.703 42.973 9.843 43.051 9.961 43.152C10.086 43.246 10.148 43.355 10.148 43.48C10.148 43.598 10.093 43.688 9.98401 43.75C9.88201 43.812 9.75701 43.859 9.60901 43.891C9.46801 43.914 9.32 43.93 9.164 43.938C9.015 43.938 8.89399 43.938 8.79999 43.938H8.58899C8.37099 44.133 8.19099 44.422 8.04999 44.805C7.90999 45.18 7.79998 45.582 7.72198 46.012C7.64398 46.441 7.58898 46.867 7.55798 47.289C7.52698 47.703 7.51099 48.043 7.51099 48.309C7.51099 48.684 7.53902 49.055 7.59302 49.422C7.65602 49.781 7.77703 50.121 7.95703 50.441C7.99603 50.512 8.05003 50.594 8.12103 50.688C8.19903 50.773 8.28503 50.816 8.37903 50.816C8.44903 50.816 8.51899 50.758 8.58899 50.641C8.66799 50.523 8.73799 50.387 8.79999 50.23C8.86299 50.074 8.914 49.922 8.953 49.773C8.992 49.625 9.01903 49.516 9.03503 49.445C9.04303 49.414 9.047 49.379 9.047 49.34C9.047 49.301 9.047 49.262 9.047 49.223C9.047 49.152 9.047 49.086 9.047 49.023C9.054 48.953 9.06603 48.898 9.08203 48.859C9.13603 48.727 9.20703 48.637 9.29303 48.59C9.38603 48.543 9.50002 48.52 9.63202 48.52C9.75002 48.52 9.87502 48.535 10.007 48.566C10.14 48.598 10.265 48.648 10.382 48.719C10.5 48.789 10.597 48.879 10.675 48.988C10.754 49.098 10.793 49.227 10.793 49.375ZM15.949 49.375C15.949 49.539 15.921 49.707 15.867 49.879C15.812 50.051 15.75 50.215 15.679 50.371C15.586 50.598 15.472 50.82 15.339 51.039C15.207 51.25 15.054 51.441 14.882 51.613C14.711 51.777 14.515 51.91 14.297 52.012C14.078 52.113 13.832 52.164 13.558 52.164C13.074 52.164 12.671 52.043 12.351 51.801C12.031 51.559 11.777 51.254 11.589 50.887C11.402 50.52 11.269 50.117 11.191 49.68C11.121 49.242 11.086 48.828 11.086 48.438C11.086 48.148 11.097 47.809 11.121 47.418C11.144 47.02 11.187 46.609 11.25 46.188C11.32 45.766 11.418 45.348 11.543 44.934C11.675 44.52 11.843 44.152 12.047 43.832C12.25 43.504 12.496 43.238 12.785 43.035C13.082 42.832 13.433 42.73 13.839 42.73C13.925 42.73 14.05 42.746 14.214 42.777C14.379 42.809 14.539 42.855 14.695 42.918C14.859 42.973 15 43.051 15.117 43.152C15.242 43.246 15.304 43.355 15.304 43.48C15.304 43.598 15.25 43.688 15.14 43.75C15.039 43.812 14.914 43.859 14.765 43.891C14.625 43.914 14.476 43.93 14.32 43.938C14.171 43.938 14.05 43.938 13.957 43.938H13.746C13.527 44.133 13.347 44.422 13.207 44.805C13.066 45.18 12.957 45.582 12.879 46.012C12.8 46.441 12.746 46.867 12.714 47.289C12.683 47.703 12.668 48.043 12.668 48.309C12.668 48.684 12.695 49.055 12.75 49.422C12.812 49.781 12.933 50.121 13.113 50.441C13.152 50.512 13.207 50.594 13.277 50.688C13.355 50.773 13.441 50.816 13.535 50.816C13.605 50.816 13.675 50.758 13.746 50.641C13.824 50.523 13.894 50.387 13.957 50.23C14.019 50.074 14.07 49.922 14.109 49.773C14.148 49.625 14.175 49.516 14.191 49.445C14.199 49.414 14.203 49.379 14.203 49.34C14.203 49.301 14.203 49.262 14.203 49.223C14.203 49.152 14.203 49.086 14.203 49.023C14.211 48.953 14.222 48.898 14.238 48.859C14.293 48.727 14.363 48.637 14.449 48.59C14.543 48.543 14.656 48.52 14.789 48.52C14.906 48.52 15.031 48.535 15.164 48.566C15.297 48.598 15.421 48.648 15.539 48.719C15.656 48.789 15.754 48.879 15.832 48.988C15.91 49.098 15.949 49.227 15.949 49.375ZM21.011 49.855C21.011 50.09 20.945 50.332 20.812 50.582C20.687 50.832 20.523 51.062 20.32 51.273C20.117 51.477 19.882 51.645 19.617 51.777C19.359 51.91 19.101 51.977 18.843 51.977C18.476 51.977 18.16 51.906 17.894 51.766C17.629 51.617 17.398 51.422 17.203 51.18C17.007 50.93 16.847 50.648 16.722 50.336C16.605 50.023 16.511 49.703 16.441 49.375C16.371 49.039 16.32 48.707 16.289 48.379C16.265 48.043 16.254 47.738 16.254 47.465C16.254 47.23 16.265 46.953 16.289 46.633C16.32 46.312 16.367 45.98 16.429 45.637C16.5 45.293 16.593 44.953 16.711 44.617C16.828 44.281 16.972 43.98 17.144 43.715C17.324 43.449 17.535 43.234 17.777 43.07C18.027 42.906 18.312 42.824 18.632 42.824C18.882 42.824 19.105 42.875 19.3 42.977C19.504 43.078 19.671 43.215 19.804 43.387C19.945 43.551 20.05 43.742 20.121 43.961C20.199 44.18 20.238 44.406 20.238 44.641C20.238 44.945 20.168 45.277 20.027 45.637C19.886 45.996 19.703 46.344 19.476 46.68C19.257 47.016 19.007 47.32 18.726 47.594C18.453 47.859 18.179 48.062 17.906 48.203C17.921 48.344 17.953 48.551 18 48.824C18.047 49.09 18.109 49.355 18.187 49.621C18.273 49.887 18.371 50.117 18.48 50.312C18.597 50.508 18.734 50.605 18.89 50.605C18.968 50.605 19.035 50.582 19.089 50.535C19.152 50.488 19.207 50.426 19.254 50.348C19.3 50.27 19.339 50.184 19.371 50.09C19.41 49.996 19.445 49.906 19.476 49.82L19.547 49.656C19.562 49.633 19.57 49.617 19.57 49.609C19.578 49.602 19.586 49.59 19.593 49.574C19.648 49.473 19.699 49.379 19.746 49.293C19.8 49.207 19.875 49.133 19.968 49.07H19.957C19.988 49.039 20.019 49.023 20.05 49.023C20.089 49.016 20.125 49.012 20.156 49.012C20.242 49.012 20.336 49.039 20.437 49.094C20.539 49.148 20.632 49.219 20.718 49.305C20.804 49.383 20.875 49.473 20.929 49.574C20.984 49.668 21.011 49.762 21.011 49.855ZM18.691 44.688C18.691 44.609 18.687 44.527 18.679 44.441C18.671 44.355 18.652 44.281 18.621 44.219C18.511 44.352 18.414 44.512 18.328 44.699C18.25 44.879 18.183 45.07 18.129 45.273C18.074 45.469 18.027 45.668 17.988 45.871C17.957 46.074 17.933 46.262 17.918 46.434C18.121 46.191 18.3 45.918 18.457 45.613C18.613 45.301 18.691 44.992 18.691 44.688ZM23.179 48.953C23.179 49.328 23.175 49.672 23.168 49.984C23.168 50.297 23.175 50.641 23.191 51.016L23.402 50.863L23.531 50.781C23.914 50.477 24.246 50.105 24.527 49.668C24.816 49.223 25.054 48.75 25.242 48.25C25.429 47.75 25.566 47.238 25.652 46.715C25.746 46.184 25.793 45.68 25.793 45.203C25.793 45.109 25.789 44.98 25.781 44.816C25.781 44.645 25.765 44.477 25.734 44.312C25.703 44.148 25.656 44.008 25.593 43.891C25.531 43.766 25.441 43.703 25.324 43.703C25.136 43.703 24.945 43.816 24.75 44.043C24.554 44.27 24.371 44.539 24.199 44.852C24.035 45.164 23.886 45.48 23.754 45.801C23.621 46.113 23.523 46.359 23.461 46.539C23.461 46.547 23.457 46.551 23.449 46.551C23.449 46.551 23.449 46.555 23.449 46.562V46.574C23.402 46.684 23.351 46.801 23.297 46.926C23.25 47.051 23.218 47.168 23.203 47.277C23.187 47.387 23.175 47.512 23.168 47.652C23.16 47.785 23.156 47.926 23.156 48.074C23.156 48.152 23.156 48.23 23.156 48.309C23.164 48.379 23.168 48.445 23.168 48.508C23.168 48.594 23.168 48.676 23.168 48.754C23.175 48.824 23.179 48.891 23.179 48.953ZM23.824 59.664C23.824 59.836 23.777 59.953 23.683 60.016C23.589 60.078 23.464 60.109 23.308 60.109C23.121 60.109 22.914 60.078 22.687 60.016C22.461 59.961 22.281 59.855 22.148 59.699C22.109 59.645 22.07 59.484 22.031 59.219C22 58.953 21.968 58.641 21.937 58.281C21.906 57.93 21.879 57.562 21.855 57.18C21.832 56.805 21.808 56.473 21.785 56.184L21.738 55.562C21.644 53.891 21.597 52.219 21.597 50.547C21.597 49.57 21.613 48.613 21.644 47.676C21.683 46.73 21.722 45.773 21.761 44.805L21.808 43.574C21.808 43.449 21.808 43.328 21.808 43.211C21.816 43.086 21.832 42.965 21.855 42.848C21.894 42.746 21.941 42.668 21.996 42.613C22.058 42.551 22.156 42.52 22.289 42.52C22.625 42.52 22.871 42.621 23.027 42.824C23.183 43.02 23.273 43.262 23.297 43.551C23.547 43.207 23.843 42.934 24.187 42.73C24.539 42.527 24.941 42.426 25.394 42.426C25.777 42.426 26.097 42.512 26.355 42.684C26.621 42.855 26.832 43.078 26.988 43.352C27.144 43.617 27.254 43.918 27.316 44.254C27.386 44.582 27.421 44.906 27.421 45.227C27.421 45.844 27.367 46.461 27.257 47.078C27.148 47.688 26.976 48.281 26.742 48.859C26.515 49.43 26.226 49.973 25.875 50.488C25.523 50.996 25.109 51.449 24.632 51.848C24.57 51.902 24.496 51.961 24.41 52.023C24.324 52.086 24.234 52.145 24.14 52.199C24.047 52.254 23.949 52.301 23.847 52.34C23.754 52.379 23.668 52.398 23.589 52.398C23.504 52.398 23.429 52.379 23.367 52.34C23.304 52.301 23.25 52.254 23.203 52.199C23.218 52.738 23.238 53.297 23.261 53.875C23.293 54.453 23.328 55.031 23.367 55.609C23.406 56.195 23.453 56.773 23.507 57.344C23.57 57.914 23.644 58.465 23.73 58.996C23.754 59.098 23.773 59.203 23.789 59.312C23.812 59.43 23.824 59.547 23.824 59.664ZM30.714 51.707C30.714 51.793 30.695 51.867 30.656 51.93C30.617 51.984 30.566 52.027 30.504 52.059C30.449 52.09 30.386 52.109 30.316 52.117C30.254 52.133 30.191 52.141 30.129 52.141C30.043 52.141 29.941 52.129 29.824 52.105C29.714 52.09 29.605 52.062 29.496 52.023C29.386 51.984 29.285 51.938 29.191 51.883C29.105 51.82 29.039 51.746 28.992 51.66C28.945 51.582 28.902 51.438 28.863 51.227C28.832 51.008 28.804 50.758 28.781 50.477C28.757 50.188 28.738 49.883 28.722 49.562C28.707 49.234 28.691 48.922 28.675 48.625C28.668 48.328 28.66 48.062 28.652 47.828C28.652 47.586 28.652 47.406 28.652 47.289C28.652 46.742 28.66 46.215 28.675 45.707C28.699 45.191 28.722 44.664 28.746 44.125C28.707 44.125 28.668 44.129 28.629 44.137C28.589 44.145 28.55 44.148 28.511 44.148C28.41 44.164 28.304 44.176 28.195 44.184C28.093 44.191 27.988 44.195 27.879 44.195C27.746 44.195 27.629 44.172 27.527 44.125C27.425 44.078 27.375 43.973 27.375 43.809C27.375 43.613 27.418 43.457 27.504 43.34C27.589 43.223 27.699 43.133 27.832 43.07C27.964 43 28.109 42.953 28.265 42.93C28.421 42.898 28.574 42.875 28.722 42.859C28.746 42.859 28.761 42.859 28.769 42.859C28.777 42.852 28.793 42.848 28.816 42.848C28.824 42.754 28.832 42.641 28.839 42.508C28.847 42.367 28.855 42.215 28.863 42.051C28.871 41.793 28.882 41.52 28.898 41.23C28.914 40.934 28.929 40.652 28.945 40.387C28.961 40.113 28.98 39.875 29.004 39.672C29.027 39.461 29.05 39.312 29.074 39.227C29.113 39.125 29.156 39.043 29.203 38.98C29.257 38.918 29.355 38.887 29.496 38.887C29.808 38.887 30.05 38.988 30.222 39.191C30.394 39.395 30.48 39.645 30.48 39.941C30.48 40.285 30.468 40.629 30.445 40.973C30.429 41.316 30.414 41.664 30.398 42.016L30.363 42.613C30.558 42.59 30.754 42.555 30.949 42.508C31.136 42.469 31.324 42.434 31.511 42.402C31.707 42.371 31.894 42.355 32.074 42.355C32.23 42.355 32.351 42.398 32.437 42.484C32.523 42.562 32.566 42.68 32.566 42.836C32.566 43.008 32.535 43.176 32.472 43.34C32.41 43.504 32.3 43.629 32.144 43.715H32.156C32.125 43.73 32.031 43.754 31.875 43.785C31.718 43.809 31.539 43.832 31.336 43.855C31.14 43.879 30.945 43.902 30.75 43.926C30.562 43.949 30.421 43.965 30.328 43.973H30.316C30.3 44.41 30.289 44.844 30.281 45.273C30.273 45.695 30.269 46.125 30.269 46.562C30.269 47.164 30.285 47.805 30.316 48.484C30.355 49.156 30.418 49.797 30.504 50.406L30.597 50.934C30.629 51.066 30.656 51.199 30.679 51.332C30.703 51.457 30.714 51.582 30.714 51.707ZM37.066 49.855C37.066 50.09 37 50.332 36.867 50.582C36.742 50.832 36.578 51.062 36.375 51.273C36.171 51.477 35.937 51.645 35.671 51.777C35.414 51.91 35.156 51.977 34.898 51.977C34.531 51.977 34.214 51.906 33.949 51.766C33.683 51.617 33.453 51.422 33.257 51.18C33.062 50.93 32.902 50.648 32.777 50.336C32.66 50.023 32.566 49.703 32.496 49.375C32.425 49.039 32.375 48.707 32.343 48.379C32.32 48.043 32.308 47.738 32.308 47.465C32.308 47.23 32.32 46.953 32.343 46.633C32.375 46.312 32.421 45.98 32.484 45.637C32.554 45.293 32.648 44.953 32.765 44.617C32.882 44.281 33.027 43.98 33.199 43.715C33.379 43.449 33.589 43.234 33.832 43.07C34.082 42.906 34.367 42.824 34.687 42.824C34.937 42.824 35.16 42.875 35.355 42.977C35.558 43.078 35.726 43.215 35.859 43.387C36 43.551 36.105 43.742 36.175 43.961C36.254 44.18 36.293 44.406 36.293 44.641C36.293 44.945 36.222 45.277 36.082 45.637C35.941 45.996 35.757 46.344 35.531 46.68C35.312 47.016 35.062 47.32 34.781 47.594C34.507 47.859 34.234 48.062 33.961 48.203C33.976 48.344 34.007 48.551 34.054 48.824C34.101 49.09 34.164 49.355 34.242 49.621C34.328 49.887 34.425 50.117 34.535 50.312C34.652 50.508 34.789 50.605 34.945 50.605C35.023 50.605 35.089 50.582 35.144 50.535C35.207 50.488 35.261 50.426 35.308 50.348C35.355 50.27 35.394 50.184 35.425 50.09C35.464 49.996 35.5 49.906 35.531 49.82L35.601 49.656C35.617 49.633 35.625 49.617 35.625 49.609C35.632 49.602 35.64 49.59 35.648 49.574C35.703 49.473 35.754 49.379 35.8 49.293C35.855 49.207 35.929 49.133 36.023 49.07H36.011C36.043 49.039 36.074 49.023 36.105 49.023C36.144 49.016 36.179 49.012 36.211 49.012C36.297 49.012 36.39 49.039 36.492 49.094C36.593 49.148 36.687 49.219 36.773 49.305C36.859 49.383 36.929 49.473 36.984 49.574C37.039 49.668 37.066 49.762 37.066 49.855ZM34.746 44.688C34.746 44.609 34.742 44.527 34.734 44.441C34.726 44.355 34.707 44.281 34.675 44.219C34.566 44.352 34.468 44.512 34.382 44.699C34.304 44.879 34.238 45.07 34.183 45.273C34.129 45.469 34.082 45.668 34.043 45.871C34.011 46.074 33.988 46.262 33.972 46.434C34.175 46.191 34.355 45.918 34.511 45.613C34.668 45.301 34.746 44.992 34.746 44.688ZM42.855 51.637C42.855 51.723 42.836 51.797 42.797 51.859C42.757 51.914 42.707 51.961 42.644 52C42.589 52.031 42.527 52.055 42.457 52.07C42.394 52.086 42.332 52.094 42.269 52.094C42.175 52.094 42.074 52.082 41.964 52.059C41.855 52.035 41.746 52.004 41.636 51.965C41.527 51.918 41.425 51.863 41.332 51.801C41.246 51.73 41.179 51.652 41.132 51.566C41.086 51.48 41.05 51.375 41.027 51.25C41.011 51.117 40.996 50.984 40.98 50.852C40.902 51.039 40.808 51.223 40.699 51.402C40.597 51.582 40.472 51.742 40.324 51.883C40.175 52.016 40.007 52.121 39.82 52.199C39.64 52.285 39.437 52.328 39.211 52.328C38.812 52.328 38.488 52.234 38.238 52.047C37.996 51.859 37.804 51.625 37.664 51.344C37.531 51.055 37.441 50.742 37.394 50.406C37.355 50.062 37.336 49.734 37.336 49.422C37.336 49.164 37.347 48.871 37.371 48.543C37.394 48.215 37.425 47.879 37.464 47.535C37.504 47.191 37.55 46.859 37.605 46.539C37.66 46.211 37.718 45.922 37.781 45.672C37.859 45.383 37.953 45.066 38.062 44.723C38.179 44.371 38.324 44.047 38.496 43.75C38.675 43.445 38.894 43.188 39.152 42.977C39.41 42.766 39.718 42.648 40.078 42.625C40.054 41.992 40.019 41.41 39.972 40.879C39.933 40.34 39.89 39.789 39.843 39.227L39.726 37.926L39.679 37.457C39.664 37.332 39.652 37.207 39.644 37.082C39.636 36.949 39.632 36.82 39.632 36.695C39.632 36.516 39.679 36.391 39.773 36.32C39.875 36.25 40.004 36.215 40.16 36.215C40.504 36.215 40.765 36.266 40.945 36.367C41.125 36.469 41.25 36.605 41.32 36.777C41.398 36.949 41.441 37.152 41.449 37.387C41.457 37.613 41.461 37.859 41.461 38.125C41.461 38.297 41.48 38.492 41.519 38.711L41.578 39.145L41.671 40.34C41.687 40.527 41.703 40.715 41.718 40.902C41.734 41.09 41.75 41.277 41.765 41.465L42.011 43.984L42.48 48.695L42.515 49.129C42.547 49.449 42.574 49.781 42.597 50.125C42.629 50.469 42.683 50.809 42.761 51.145C42.785 51.23 42.804 51.312 42.82 51.391C42.843 51.469 42.855 51.551 42.855 51.637ZM40.125 44.781C40.125 44.695 40.121 44.602 40.113 44.5C40.113 44.391 40.113 44.289 40.113 44.195V43.879C40.058 43.957 39.988 44.066 39.902 44.207C39.816 44.34 39.75 44.461 39.703 44.57C39.578 44.844 39.464 45.195 39.363 45.625C39.261 46.047 39.171 46.492 39.093 46.961C39.023 47.422 38.968 47.875 38.929 48.32C38.89 48.758 38.871 49.125 38.871 49.422C38.871 49.531 38.871 49.656 38.871 49.797C38.879 49.938 38.894 50.082 38.918 50.23C38.941 50.371 38.976 50.508 39.023 50.641C39.07 50.773 39.132 50.883 39.211 50.969C39.328 50.82 39.433 50.594 39.527 50.289C39.621 49.977 39.699 49.625 39.761 49.234C39.832 48.836 39.89 48.418 39.937 47.98C39.984 47.543 40.019 47.121 40.043 46.715C40.074 46.301 40.093 45.926 40.101 45.59C40.117 45.246 40.125 44.977 40.125 44.781ZM52.3 47.195C52.3 47.875 52.242 48.555 52.125 49.234C52.015 49.906 51.785 50.543 51.433 51.145C51.324 51.324 51.199 51.5 51.058 51.672C50.918 51.836 50.761 51.984 50.589 52.117C50.425 52.258 50.242 52.367 50.039 52.445C49.843 52.531 49.636 52.574 49.418 52.574C49.074 52.574 48.773 52.492 48.515 52.328C48.265 52.172 48.047 51.965 47.859 51.707C47.679 51.441 47.527 51.145 47.402 50.816C47.285 50.48 47.191 50.141 47.121 49.797C47.058 49.445 47.011 49.105 46.98 48.777C46.957 48.449 46.945 48.16 46.945 47.91C46.945 47.629 46.957 47.32 46.98 46.984C47.004 46.648 47.043 46.305 47.097 45.953C47.16 45.602 47.238 45.254 47.332 44.91C47.433 44.566 47.562 44.246 47.718 43.949C47.875 43.645 48.062 43.375 48.281 43.141C48.5 42.898 48.754 42.707 49.043 42.566V42.578C49.293 42.445 49.543 42.379 49.793 42.379C49.949 42.379 50.07 42.414 50.156 42.484C50.242 42.547 50.281 42.656 50.273 42.812C50.703 42.891 51.05 43.098 51.316 43.434C51.582 43.77 51.785 44.16 51.925 44.605C52.074 45.051 52.171 45.508 52.218 45.977C52.273 46.445 52.3 46.852 52.3 47.195ZM49.652 44.266C49.519 44.266 49.394 44.215 49.277 44.113C49.129 44.34 49.004 44.602 48.902 44.898C48.8 45.188 48.718 45.488 48.656 45.801C48.601 46.105 48.562 46.414 48.539 46.727C48.515 47.039 48.504 47.332 48.504 47.605C48.504 47.832 48.515 48.125 48.539 48.484C48.562 48.836 48.605 49.191 48.668 49.551C48.738 49.91 48.832 50.246 48.949 50.559C49.074 50.871 49.234 51.102 49.429 51.25C49.671 51.109 49.871 50.887 50.027 50.582C50.191 50.27 50.32 49.93 50.414 49.562C50.507 49.195 50.57 48.824 50.601 48.449C50.64 48.074 50.66 47.754 50.66 47.488C50.66 47.293 50.648 47.039 50.625 46.727C50.601 46.414 50.562 46.098 50.507 45.777C50.453 45.449 50.375 45.145 50.273 44.863C50.179 44.582 50.058 44.371 49.91 44.23C49.839 44.254 49.754 44.266 49.652 44.266ZM54.246 52.188C54.129 52.188 54 52.172 53.859 52.141C53.726 52.109 53.597 52.059 53.472 51.988C53.355 51.918 53.254 51.832 53.168 51.73C53.089 51.621 53.05 51.492 53.05 51.344C53.05 51.125 53.058 50.91 53.074 50.699C53.097 50.48 53.121 50.266 53.144 50.055V50.066L53.214 49.281C53.238 49 53.257 48.691 53.273 48.355C53.289 48.02 53.3 47.68 53.308 47.336C53.324 46.984 53.336 46.641 53.343 46.305C53.351 45.969 53.355 45.66 53.355 45.379C53.355 45.215 53.351 45.051 53.343 44.887C53.343 44.715 53.343 44.543 53.343 44.371C53.336 44.223 53.332 44.059 53.332 43.879C53.332 43.691 53.332 43.52 53.332 43.363C53.332 43.199 53.351 43.066 53.39 42.965C53.437 42.855 53.562 42.801 53.765 42.801C53.945 42.801 54.132 42.848 54.328 42.941C54.531 43.035 54.671 43.168 54.75 43.34H54.738C54.777 43.426 54.804 43.566 54.82 43.762C54.843 43.949 54.859 44.117 54.867 44.266C55 44.062 55.148 43.848 55.312 43.621C55.484 43.395 55.668 43.188 55.863 43C56.058 42.805 56.265 42.645 56.484 42.52C56.703 42.395 56.937 42.332 57.187 42.332C57.515 42.332 57.765 42.414 57.937 42.578C58.109 42.742 58.234 42.949 58.312 43.199C58.39 43.441 58.433 43.703 58.441 43.984C58.449 44.258 58.453 44.508 58.453 44.734V44.828C58.453 44.922 58.449 45.016 58.441 45.109C58.441 45.195 58.425 45.277 58.394 45.355C58.371 45.426 58.324 45.484 58.254 45.531C58.191 45.578 58.101 45.602 57.984 45.602C57.859 45.602 57.726 45.586 57.586 45.555C57.445 45.516 57.312 45.461 57.187 45.391C57.07 45.32 56.968 45.234 56.882 45.133C56.797 45.023 56.75 44.898 56.742 44.758C56.742 44.695 56.742 44.633 56.742 44.57C56.742 44.508 56.746 44.445 56.754 44.383C56.754 44.344 56.754 44.297 56.754 44.242C56.761 44.18 56.765 44.121 56.765 44.066C56.515 44.316 56.293 44.625 56.097 44.992C55.91 45.359 55.738 45.75 55.582 46.164C55.433 46.578 55.304 46.996 55.195 47.418C55.086 47.832 54.992 48.207 54.914 48.543V48.578C54.89 48.82 54.875 49.059 54.867 49.293C54.859 49.527 54.851 49.77 54.843 50.02C54.836 50.301 54.824 50.586 54.808 50.875C54.8 51.164 54.781 51.445 54.75 51.719C54.734 51.867 54.687 51.98 54.609 52.059C54.539 52.145 54.418 52.188 54.246 52.188ZM19.64 75.941C19.64 76.121 19.586 76.238 19.476 76.293C19.375 76.348 19.25 76.375 19.101 76.375C18.968 76.375 18.836 76.363 18.703 76.34C18.578 76.324 18.457 76.289 18.339 76.234C18.23 76.18 18.132 76.105 18.047 76.012C17.968 75.918 17.914 75.797 17.882 75.648C17.773 75.18 17.711 74.723 17.695 74.277C17.679 73.824 17.671 73.359 17.671 72.883V71.441C17.671 70.785 17.699 70.105 17.754 69.402C17.808 68.691 17.867 68.008 17.929 67.352C17.929 67.328 17.933 67.301 17.941 67.27C17.949 67.238 17.953 67.215 17.953 67.199C17.961 67.113 17.972 67.02 17.988 66.918C18.004 66.816 18.027 66.727 18.058 66.648C18.097 66.562 18.148 66.492 18.211 66.438C18.281 66.383 18.371 66.355 18.48 66.355C18.605 66.355 18.722 66.383 18.832 66.438C18.949 66.484 19.05 66.551 19.136 66.637C19.222 66.715 19.289 66.812 19.336 66.93C19.39 67.047 19.418 67.168 19.418 67.293C19.418 67.426 19.414 67.574 19.406 67.738C19.398 67.895 19.386 68.043 19.371 68.184C19.371 68.223 19.367 68.266 19.359 68.312C19.359 68.359 19.355 68.402 19.347 68.441C19.457 68.223 19.582 67.996 19.722 67.762C19.863 67.52 20.023 67.301 20.203 67.105C20.39 66.902 20.593 66.738 20.812 66.613C21.039 66.488 21.289 66.426 21.562 66.426C21.789 66.426 21.976 66.461 22.125 66.531C22.273 66.602 22.39 66.703 22.476 66.836C22.57 66.961 22.632 67.109 22.664 67.281C22.703 67.453 22.722 67.637 22.722 67.832C22.722 68.098 22.714 68.367 22.699 68.641C22.683 68.906 22.668 69.172 22.652 69.438C22.629 69.711 22.609 69.98 22.593 70.246C22.578 70.512 22.57 70.781 22.57 71.055C22.57 71.383 22.578 71.723 22.593 72.074C22.609 72.418 22.632 72.75 22.664 73.07C22.695 73.383 22.73 73.668 22.769 73.926C22.808 74.176 22.847 74.371 22.886 74.512C22.918 74.629 22.949 74.766 22.98 74.922C23.019 75.07 23.054 75.227 23.086 75.391C23.125 75.547 23.156 75.699 23.179 75.848C23.203 75.996 23.214 76.129 23.214 76.246C23.214 76.418 23.144 76.527 23.004 76.574C22.871 76.621 22.738 76.645 22.605 76.645C22.472 76.645 22.32 76.633 22.148 76.609C21.984 76.594 21.836 76.551 21.703 76.48C21.539 76.363 21.429 76.199 21.375 75.988C21.328 75.777 21.297 75.57 21.281 75.367L21.246 75.051C21.222 74.863 21.191 74.617 21.152 74.312C21.113 74.008 21.074 73.672 21.035 73.305C21.004 72.938 20.976 72.559 20.953 72.168C20.929 71.77 20.918 71.383 20.918 71.008C20.918 70.672 20.929 70.348 20.953 70.035C20.984 69.723 21.015 69.406 21.047 69.086C21.062 68.922 21.074 68.789 21.082 68.688C21.089 68.586 21.101 68.453 21.117 68.289C20.961 68.539 20.804 68.832 20.648 69.168C20.492 69.504 20.343 69.855 20.203 70.223C20.062 70.582 19.933 70.934 19.816 71.277C19.707 71.621 19.621 71.922 19.558 72.18L19.488 72.438C19.449 72.562 19.414 72.688 19.382 72.812C19.359 72.938 19.347 73.055 19.347 73.164C19.347 73.305 19.355 73.469 19.371 73.656C19.386 73.836 19.406 74.008 19.429 74.172C19.453 74.367 19.48 74.566 19.511 74.77C19.511 74.785 19.519 74.836 19.535 74.922C19.55 75.008 19.566 75.109 19.582 75.227C19.597 75.344 19.609 75.469 19.617 75.602C19.632 75.727 19.64 75.84 19.64 75.941ZM29.203 71.195C29.203 71.875 29.144 72.555 29.027 73.234C28.918 73.906 28.687 74.543 28.336 75.145C28.226 75.324 28.101 75.5 27.961 75.672C27.82 75.836 27.664 75.984 27.492 76.117C27.328 76.258 27.144 76.367 26.941 76.445C26.746 76.531 26.539 76.574 26.32 76.574C25.976 76.574 25.675 76.492 25.418 76.328C25.168 76.172 24.949 75.965 24.761 75.707C24.582 75.441 24.429 75.145 24.304 74.816C24.187 74.48 24.093 74.141 24.023 73.797C23.961 73.445 23.914 73.105 23.882 72.777C23.859 72.449 23.847 72.16 23.847 71.91C23.847 71.629 23.859 71.32 23.882 70.984C23.906 70.648 23.945 70.305 24 69.953C24.062 69.602 24.14 69.254 24.234 68.91C24.336 68.566 24.464 68.246 24.621 67.949C24.777 67.645 24.964 67.375 25.183 67.141C25.402 66.898 25.656 66.707 25.945 66.566V66.578C26.195 66.445 26.445 66.379 26.695 66.379C26.851 66.379 26.972 66.414 27.058 66.484C27.144 66.547 27.183 66.656 27.175 66.812C27.605 66.891 27.953 67.098 28.218 67.434C28.484 67.77 28.687 68.16 28.828 68.605C28.976 69.051 29.074 69.508 29.121 69.977C29.175 70.445 29.203 70.852 29.203 71.195ZM26.554 68.266C26.421 68.266 26.297 68.215 26.179 68.113C26.031 68.34 25.906 68.602 25.804 68.898C25.703 69.188 25.621 69.488 25.558 69.801C25.504 70.105 25.464 70.414 25.441 70.727C25.418 71.039 25.406 71.332 25.406 71.605C25.406 71.832 25.418 72.125 25.441 72.484C25.464 72.836 25.507 73.191 25.57 73.551C25.64 73.91 25.734 74.246 25.851 74.559C25.976 74.871 26.136 75.102 26.332 75.25C26.574 75.109 26.773 74.887 26.929 74.582C27.093 74.27 27.222 73.93 27.316 73.562C27.41 73.195 27.472 72.824 27.504 72.449C27.543 72.074 27.562 71.754 27.562 71.488C27.562 71.293 27.55 71.039 27.527 70.727C27.504 70.414 27.464 70.098 27.41 69.777C27.355 69.449 27.277 69.145 27.175 68.863C27.082 68.582 26.961 68.371 26.812 68.23C26.742 68.254 26.656 68.266 26.554 68.266ZM32.648 75.707C32.648 75.793 32.629 75.867 32.589 75.93C32.55 75.984 32.5 76.027 32.437 76.059C32.382 76.09 32.32 76.109 32.25 76.117C32.187 76.133 32.125 76.141 32.062 76.141C31.976 76.141 31.875 76.129 31.757 76.105C31.648 76.09 31.539 76.062 31.429 76.023C31.32 75.984 31.218 75.938 31.125 75.883C31.039 75.82 30.972 75.746 30.925 75.66C30.879 75.582 30.836 75.438 30.797 75.227C30.765 75.008 30.738 74.758 30.714 74.477C30.691 74.188 30.671 73.883 30.656 73.562C30.64 73.234 30.625 72.922 30.609 72.625C30.601 72.328 30.593 72.062 30.586 71.828C30.586 71.586 30.586 71.406 30.586 71.289C30.586 70.742 30.593 70.215 30.609 69.707C30.632 69.191 30.656 68.664 30.679 68.125C30.64 68.125 30.601 68.129 30.562 68.137C30.523 68.145 30.484 68.148 30.445 68.148C30.343 68.164 30.238 68.176 30.129 68.184C30.027 68.191 29.921 68.195 29.812 68.195C29.679 68.195 29.562 68.172 29.461 68.125C29.359 68.078 29.308 67.973 29.308 67.809C29.308 67.613 29.351 67.457 29.437 67.34C29.523 67.223 29.632 67.133 29.765 67.07C29.898 67 30.043 66.953 30.199 66.93C30.355 66.898 30.507 66.875 30.656 66.859C30.679 66.859 30.695 66.859 30.703 66.859C30.711 66.852 30.726 66.848 30.75 66.848C30.757 66.754 30.765 66.641 30.773 66.508C30.781 66.367 30.789 66.215 30.797 66.051C30.804 65.793 30.816 65.52 30.832 65.23C30.847 64.934 30.863 64.652 30.879 64.387C30.894 64.113 30.914 63.875 30.937 63.672C30.961 63.461 30.984 63.312 31.007 63.227C31.047 63.125 31.089 63.043 31.136 62.98C31.191 62.918 31.289 62.887 31.429 62.887C31.742 62.887 31.984 62.988 32.156 63.191C32.328 63.395 32.414 63.645 32.414 63.941C32.414 64.285 32.402 64.629 32.379 64.973C32.363 65.316 32.347 65.664 32.332 66.016L32.297 66.613C32.492 66.59 32.687 66.555 32.882 66.508C33.07 66.469 33.257 66.434 33.445 66.402C33.64 66.371 33.828 66.355 34.007 66.355C34.164 66.355 34.285 66.398 34.371 66.484C34.457 66.562 34.5 66.68 34.5 66.836C34.5 67.008 34.468 67.176 34.406 67.34C34.343 67.504 34.234 67.629 34.078 67.715H34.089C34.058 67.73 33.964 67.754 33.808 67.785C33.652 67.809 33.472 67.832 33.269 67.855C33.074 67.879 32.879 67.902 32.683 67.926C32.496 67.949 32.355 67.965 32.261 67.973H32.25C32.234 68.41 32.222 68.844 32.214 69.273C32.207 69.695 32.203 70.125 32.203 70.562C32.203 71.164 32.218 71.805 32.25 72.484C32.289 73.156 32.351 73.797 32.437 74.406L32.531 74.934C32.562 75.066 32.589 75.199 32.613 75.332C32.636 75.457 32.648 75.582 32.648 75.707ZM40.371 63.391C40.371 64.016 40.336 64.648 40.265 65.289C40.203 65.922 40.058 66.531 39.832 67.117C39.691 67.484 39.504 67.867 39.269 68.266C39.043 68.656 38.82 69.055 38.601 69.461C38.382 69.867 38.191 70.273 38.027 70.68C37.871 71.078 37.793 71.469 37.793 71.852C37.793 71.945 37.797 72.035 37.804 72.121C37.812 72.207 37.816 72.297 37.816 72.391C37.816 72.594 37.777 72.762 37.699 72.895C37.621 73.027 37.464 73.094 37.23 73.094C37.097 73.094 36.937 73.07 36.75 73.023C36.562 72.977 36.41 72.922 36.293 72.859C36.105 72.766 35.984 72.656 35.929 72.531C35.875 72.398 35.847 72.227 35.847 72.016C35.847 71.609 35.906 71.219 36.023 70.844C36.14 70.461 36.289 70.094 36.468 69.742C36.648 69.383 36.843 69.031 37.054 68.688C37.265 68.344 37.464 68 37.652 67.656C38.019 66.969 38.269 66.246 38.402 65.488C38.543 64.73 38.613 63.961 38.613 63.18C38.613 63.023 38.601 62.836 38.578 62.617C38.562 62.398 38.531 62.172 38.484 61.938C38.437 61.703 38.375 61.469 38.297 61.234C38.226 61 38.132 60.793 38.015 60.613C37.898 60.426 37.757 60.277 37.593 60.168C37.437 60.051 37.254 59.992 37.043 59.992C36.785 59.992 36.574 60.074 36.41 60.238C36.246 60.402 36.117 60.602 36.023 60.836C35.929 61.07 35.863 61.32 35.824 61.586C35.793 61.844 35.777 62.07 35.777 62.266C35.777 62.484 35.812 62.711 35.882 62.945C35.953 63.172 36.031 63.383 36.117 63.578C36.203 63.773 36.281 63.941 36.351 64.082C36.421 64.215 36.457 64.297 36.457 64.328C36.457 64.406 36.421 64.469 36.351 64.516C36.289 64.562 36.211 64.602 36.117 64.633C36.023 64.656 35.929 64.676 35.836 64.691C35.742 64.699 35.668 64.703 35.613 64.703C35.316 64.703 35.07 64.613 34.875 64.434C34.687 64.254 34.539 64.035 34.429 63.777C34.32 63.512 34.242 63.23 34.195 62.934C34.156 62.637 34.136 62.375 34.136 62.148C34.136 61.711 34.191 61.281 34.3 60.859C34.41 60.438 34.582 60.062 34.816 59.734C35.05 59.406 35.343 59.141 35.695 58.938C36.054 58.734 36.48 58.633 36.972 58.633C37.652 58.633 38.211 58.777 38.648 59.066C39.086 59.348 39.433 59.715 39.691 60.168C39.949 60.621 40.125 61.133 40.218 61.703C40.32 62.266 40.371 62.828 40.371 63.391ZM36.129 74.734C36.129 74.656 36.156 74.598 36.211 74.559C36.265 74.512 36.332 74.48 36.41 74.465C36.496 74.441 36.578 74.43 36.656 74.43C36.742 74.43 36.816 74.43 36.879 74.43C36.957 74.43 37.047 74.434 37.148 74.441C37.257 74.441 37.359 74.457 37.453 74.488C37.547 74.512 37.625 74.555 37.687 74.617C37.757 74.672 37.793 74.75 37.793 74.852C37.793 74.891 37.789 74.977 37.781 75.109C37.781 75.234 37.777 75.371 37.769 75.52C37.769 75.668 37.761 75.805 37.746 75.93C37.738 76.047 37.73 76.109 37.722 76.117C37.675 76.203 37.601 76.25 37.5 76.258C37.398 76.273 37.3 76.281 37.207 76.281C36.972 76.281 36.797 76.27 36.679 76.246C36.562 76.223 36.476 76.176 36.421 76.105C36.375 76.035 36.339 75.938 36.316 75.812C36.3 75.688 36.277 75.523 36.246 75.32C36.23 75.227 36.207 75.133 36.175 75.039C36.144 74.945 36.129 74.844 36.129 74.734Z" fill="white"/>
<path d="M410.136 12.199H266.008V206.706H410.136V12.199Z" fill="#FFF5DB"/>
<path d="M369.634 76.998C384.751 76.998 397.006 64.743 397.006 49.626C397.006 34.508 384.751 22.253 369.634 22.253C354.517 22.253 342.262 34.508 342.262 49.626C342.262 64.743 354.517 76.998 369.634 76.998Z" fill="white"/>
<path d="M369.736 54.956C375.001 54.956 379.268 50.688 379.268 45.424C379.268 40.159 375.001 35.891 369.736 35.891C364.471 35.891 360.203 40.159 360.203 45.424C360.203 50.688 364.471 54.956 369.736 54.956Z" fill="#FFD99F"/>
<path fill-rule="evenodd" clip-rule="evenodd" d="M346.215 63.801C353.534 59.211 369.843 52.67 391.841 65.618C386.869 72.509 378.771 76.999 369.63 76.999C359.71 76.999 351.014 71.709 346.215 63.801Z" fill="#FFD99F"/>
<path fill-rule="evenodd" clip-rule="evenodd" d="M370.244 35.904C374.984 36.154 378.809 39.871 379.232 44.562C371.116 43.114 370.265 37.899 370.244 35.904ZM360.25 44.493C360.717 39.668 364.791 35.891 369.736 35.891C369.883 35.891 370.027 35.894 370.172 35.901C369.086 41.779 363.235 43.825 360.25 44.493Z" fill="black"/>
<path fill-rule="evenodd" clip-rule="evenodd" d="M326.398 58.318H277.496V65.381H326.398V58.318ZM322.309 43.435H277.496V50.498H322.309V43.435ZM331.984 28.612H277.496V35.676H331.984V28.612Z" fill="#FFD99F"/>
<path fill-rule="evenodd" clip-rule="evenodd" d="M369.354 131.004H296.969V136.87H369.354V131.004ZM356.408 119.277H296.969V125.142H356.408V119.277ZM369.354 107.073H296.969V112.939H369.354V107.073Z" fill="#FFD99F"/>
<path d="M369.354 144.354H296.969V150.22H369.354V144.354Z" fill="#FFD99F"/>
<path fill-rule="evenodd" clip-rule="evenodd" d="M372.462 192.806H300.078V198.67H372.462V192.806ZM356.372 180.603H300.078V186.467H356.372V180.603Z" fill="#FFD99F"/>
<path d="M390.517 84.939H277.297V95.491H390.517V84.939Z" fill="#FFD99F"/>
<path d="M393.01 163.369H279.789V173.921H393.01V163.369Z" fill="#FFD99F"/>
<path d="M277.452 6.20203H133.324V200.709H277.452V6.20203Z" fill="#CAF2EF"/>
<path d="M236.946 71.002C252.064 71.002 264.319 58.747 264.319 43.63C264.319 28.513 252.064 16.258 236.946 16.258C221.829 16.258 209.574 28.513 209.574 43.63C209.574 58.747 221.829 71.002 236.946 71.002Z" fill="white"/>
<path fill-rule="evenodd" clip-rule="evenodd" d="M214.52 59.317C221.263 54.478 239.927 44.024 259.559 59.053C254.629 66.264 246.338 71.001 236.948 71.001C227.676 71.001 219.475 66.381 214.52 59.317Z" fill="#8ABBB8"/>
<path d="M237.76 46.031C243.105 46.031 247.438 41.698 247.438 36.353C247.438 31.008 243.105 26.675 237.76 26.675C232.415 26.675 228.082 31.008 228.082 36.353C228.082 41.698 232.415 46.031 237.76 46.031Z" fill="#8ABBB8"/>
<path d="M254.364 45.134C258.252 45.134 261.404 41.982 261.404 38.094C261.404 34.206 258.252 31.054 254.364 31.054C250.476 31.054 247.324 34.206 247.324 38.094C247.324 41.982 250.476 45.134 254.364 45.134Z" fill="black"/>
<path fill-rule="evenodd" clip-rule="evenodd" d="M228.086 36.702C228.084 36.586 228.082 36.469 228.082 36.353C228.082 31.011 232.417 26.674 237.76 26.674C243.101 26.674 247.436 31.011 247.436 36.353C247.436 36.669 247.423 36.982 247.391 37.291C240.147 36.326 238.151 29.95 238.151 29.95C235.791 35.606 231.089 36.658 228.086 36.702Z" fill="black"/>
<path fill-rule="evenodd" clip-rule="evenodd" d="M191.362 52.32H144.812V59.384H191.362V52.32ZM199.3 37.438H144.812V44.501H199.3V37.438ZM187.878 22.615H144.812V29.678H187.878V22.615Z" fill="#8ABBB8"/>
<path fill-rule="evenodd" clip-rule="evenodd" d="M237.119 122.526H164.734V128.391H237.119V122.526ZM237.119 110.798H164.734V116.663H237.119V110.798ZM237.119 98.595H164.734V104.46H237.119V98.595Z" fill="#8ABBB8"/>
<path fill-rule="evenodd" clip-rule="evenodd" d="M237.119 180.655H164.734V186.52H237.119V180.655ZM237.119 168.929H164.734V174.793H237.119V168.929ZM237.119 156.726H164.734V162.59H237.119V156.726Z" fill="#8ABBB8"/>
<path d="M257.838 78.941H144.617V89.493H257.838V78.941Z" fill="#8ABBB8"/>
<path d="M257.838 138.253H144.617V148.805H257.838V138.253Z" fill="#8ABBB8"/>
<path d="M147.737 0H3.60938V194.506H147.737V0Z" fill="#EDE9FE"/>
<path d="M107.235 64.799C122.352 64.799 134.607 52.544 134.607 37.426C134.607 22.309 122.352 10.054 107.235 10.054C92.1182 10.054 79.8633 22.309 79.8633 37.426C79.8633 52.544 92.1182 64.799 107.235 64.799Z" fill="white"/>
<path fill-rule="evenodd" clip-rule="evenodd" d="M83.4453 50.965C88.4663 44.647 97.2593 40.455 107.26 40.455C117.242 40.455 126.022 44.632 131.046 50.93C126.338 59.209 117.435 64.799 107.236 64.799C97.0533 64.799 88.1603 59.226 83.4453 50.965Z" fill="#C4B8F3"/>
<path fill-rule="evenodd" clip-rule="evenodd" d="M103.695 40.635C104.863 40.516 106.054 40.455 107.262 40.455C108.928 40.455 110.561 40.571 112.149 40.795C111.878 42.375 110.816 43.495 109.599 44L112.745 64.244C110.965 64.608 109.124 64.8 107.238 64.8C105.608 64.8 104.01 64.657 102.457 64.383L106.576 44.015C104.561 43.31 103.904 41.549 103.695 40.635Z" fill="black"/>
<path d="M107.118 37.255C112.389 37.255 116.662 32.982 116.662 27.711C116.662 22.44 112.389 18.167 107.118 18.167C101.847 18.167 97.5742 22.44 97.5742 27.711C97.5742 32.982 101.847 37.255 107.118 37.255Z" fill="#C4B8F3"/>
<path fill-rule="evenodd" clip-rule="evenodd" d="M97.5742 27.681C97.5912 22.427 101.861 18.167 107.118 18.167C112.386 18.167 116.663 22.443 116.663 27.711C116.663 28.124 116.636 28.531 116.585 28.93C110.24 28.241 107.564 21.552 107.564 21.552C105.276 26.418 100.249 27.474 97.5742 27.681Z" fill="black"/>
<path fill-rule="evenodd" clip-rule="evenodd" d="M49.9557 46.117H15.0977V53.181H49.9557V46.117ZM69.5857 31.235H15.0977V38.298H69.5857V31.235ZM69.5857 16.411H15.0977V23.475H69.5857V16.411Z" fill="#C4B8F3"/>
<path fill-rule="evenodd" clip-rule="evenodd" d="M107.4 116.323H35.0156V122.188H107.4V116.323ZM107.4 104.595H35.0156V110.46H107.4V104.595ZM107.4 92.392H35.0156V98.257H107.4V92.392Z" fill="#C4B8F3"/>
<path fill-rule="evenodd" clip-rule="evenodd" d="M107.4 174.453H35.0156V180.317H107.4V174.453ZM107.4 162.726H35.0156V168.59H107.4V162.726ZM107.4 150.523H35.0156V156.387H107.4V150.523Z" fill="#C4B8F3"/>
<path d="M128.119 72.739H14.8984V83.29H128.119V72.739Z" fill="#C4B8F3"/>
<path d="M128.119 132.05H14.8984V142.602H128.119V132.05Z" fill="#C4B8F3"/>
<path d="M163.304 90.222C176.836 88.2 185.268 69.586 182.138 48.647C179.009 27.708 165.502 12.374 151.971 14.396C138.44 16.419 130.007 35.032 133.137 55.971C136.267 76.91 149.773 92.245 163.304 90.222Z" fill="white"/>
<path fill-rule="evenodd" clip-rule="evenodd" d="M136.375 68.28C142.041 62.235 150.091 57.887 159.523 56.477C167.748 55.248 175.8 56.437 182.748 59.457C182.121 75.643 174.434 88.559 163.304 90.222C152.616 91.82 141.928 82.564 136.375 68.28Z" fill="#C4B8F3"/>
<path fill-rule="evenodd" clip-rule="evenodd" d="M159.713 90.357L159.594 61.831C156.706 61.201 155.339 58.751 154.809 57.452C156.337 57.045 157.909 56.717 159.526 56.476C161.75 56.143 163.966 55.988 166.149 55.998C166.226 58.368 165.117 60.222 163.629 61.205L172.041 86.123C169.478 88.308 166.538 89.738 163.306 90.221C162.107 90.401 160.906 90.443 159.713 90.357Z" fill="black"/>
<path d="M158.442 51.816C165.486 50.763 170.015 43.646 168.557 35.92C167.098 28.194 160.206 22.784 153.161 23.837C146.117 24.89 141.588 32.007 143.046 39.733C144.504 47.459 151.397 52.869 158.442 51.816Z" fill="#C4B8F3"/>
<path fill-rule="evenodd" clip-rule="evenodd" d="M143.041 39.689C141.61 31.985 146.138 24.887 153.164 23.837C160.204 22.785 167.103 28.199 168.56 35.92C168.674 36.526 168.752 37.127 168.794 37.722C160.123 37.98 154.697 28.71 154.697 28.71C152.985 36.3 146.559 38.852 143.041 39.689Z" fill="black"/>
<path fill-rule="evenodd" clip-rule="evenodd" d="M161.914 91.433L167.858 132.484C168.064 133.913 169.393 134.905 170.821 134.698C172.251 134.491 173.243 133.163 173.035 131.734L167.092 90.683C166.884 89.254 165.557 88.262 164.127 88.468C162.7 88.675 161.708 90.003 161.914 91.433Z" fill="#7B26A2"/>
<path fill-rule="evenodd" clip-rule="evenodd" d="M163.163 100.048L161.914 91.432C161.709 90.003 162.7 88.675 164.13 88.468C165.559 88.261 166.887 89.253 167.092 90.683L168.034 97.186C166.216 98.778 164.586 99.643 163.163 100.048Z" fill="black"/>
<path fill-rule="evenodd" clip-rule="evenodd" d="M162.858 87.974C158.139 88.619 153.484 86.751 149.397 83.218C142.743 77.464 137.631 67.384 136.007 55.486C134.383 43.587 136.606 32.506 141.473 25.179C144.464 20.68 148.448 17.6331 153.167 16.9891C154.598 16.7931 155.602 15.473 155.407 14.043C155.212 12.612 153.89 11.609 152.459 11.804C146.319 12.643 141.005 16.428 137.116 22.284C131.663 30.489 129.004 42.868 130.823 56.193C132.642 69.519 138.522 80.732 145.975 87.176C151.291 91.775 157.426 93.997 163.566 93.159C164.997 92.963 166.001 91.643 165.806 90.212C165.61 88.782 164.289 87.779 162.858 87.974Z" fill="#7B26A2"/>
<path fill-rule="evenodd" clip-rule="evenodd" d="M153.172 16.988C157.893 16.343 162.549 18.211 166.636 21.744C173.289 27.498 178.401 37.578 180.025 49.476C181.65 61.374 179.427 72.456 174.559 79.783C171.569 84.282 167.584 87.329 162.863 87.974C161.432 88.169 160.43 89.489 160.626 90.919C160.821 92.35 162.14 93.353 163.571 93.158C169.714 92.319 175.025 88.534 178.917 82.678C184.369 74.473 187.027 62.094 185.208 48.769C183.389 35.443 177.51 24.23 170.058 17.786C164.739 13.188 158.607 10.965 152.465 11.804C151.034 11.999 150.032 13.319 150.227 14.75C150.422 16.18 151.741 17.183 153.172 16.988Z" fill="#7B26A2"/>
<path fill-rule="evenodd" clip-rule="evenodd" d="M192.742 201.92C192.742 201.92 150.773 281.754 141.648 301.671C141.648 301.671 131.444 302.744 126.812 309.268H197.156L214.138 279.688C214.138 279.688 226.726 296.279 238.078 301.671C238.078 301.671 231.509 305.544 230.682 309.268H295.314L249.182 237.28C249.182 237.28 282.251 175.269 249.182 157.267C239.865 152.195 216.972 153.176 192.742 201.92Z" fill="#E7E7E7"/>
<path fill-rule="evenodd" clip-rule="evenodd" d="M209.684 174.626L197.551 202.216C188.526 222.743 190.84 246.489 203.66 264.889L203.725 264.981L253.843 244.556L254.832 246.103L204.784 266.501C210.294 274.391 215.395 281.439 218.049 284.431C218.096 284.483 218.137 284.539 218.173 284.598C215.68 281.723 214.135 279.689 214.135 279.689L212.97 281.716C209.951 277.751 205.952 272.137 201.806 266.178C198.098 260.856 195.239 255.1 193.247 249.104L169.117 247.219L169.521 246.44L170.02 245.478L192.66 247.248C188.176 232.295 189.022 216.004 195.485 201.308L203.493 183.096C205.584 179.957 207.65 177.144 209.684 174.626ZM249.918 238.435L249.909 238.455C249.909 238.455 245.962 232.204 243.654 228.551C243.421 228.185 243.453 227.713 243.728 227.379C244.004 227.044 244.462 226.927 244.864 227.085L252.612 230.113C250.625 234.569 249.18 237.281 249.18 237.281L249.918 238.435Z" fill="#444444"/>
<path fill-rule="evenodd" clip-rule="evenodd" d="M311.294 44.06C313.914 41.775 317.658 37.579 318.401 35.392C319.482 32.214 317.215 31.78 315.998 32.731C310.933 36.686 304.003 39.743 304.003 39.743C290.971 45.416 258.81 80.335 258.81 80.335C239.91 98.8 210.025 100.09 201.736 100.075C198.897 100.062 196.09 100.686 193.525 101.901C184.725 106.088 179.4 114.869 179.4 114.869C179.4 114.869 176.042 111.271 173.102 109.636C171.876 108.958 170.352 109.171 169.358 110.158C166.524 109.631 163.722 111.215 162.713 113.914C162.487 114.522 162.299 115.08 162.207 115.507C162.207 115.507 159.574 116.562 159.438 119.413C159.438 119.413 156.336 120.702 156.322 123.732C156.322 123.732 151.713 128.476 156.322 133.11C156.322 133.11 159.463 134.956 160.224 130.913C160.224 130.913 161.353 167.605 161.906 185.587C162.098 191.763 164.896 197.568 169.611 201.563C175.419 206.486 183.77 207.01 190.149 202.852C190.576 202.575 190.987 202.308 191.377 202.053C194.209 200.208 196.641 197.81 198.525 195.001C201.643 190.345 205.635 182.683 206.015 173.524V154.487C206.015 154.487 220.756 160.374 231.182 137.908C231.182 137.908 238.164 139.084 247.635 136.793C253.3 135.423 259.858 132.813 266.346 127.967C270.88 124.59 274.789 120.442 277.892 115.713C283.957 106.478 299.593 82.641 304.003 75.784C304.003 75.784 309.377 67.906 313.991 63.937C313.991 63.937 318.496 68.277 322.194 59.128C322.194 59.128 323.972 54.8131 319.092 52.8341C319.092 52.8341 319.451 48.013 314.822 47.948C315.282 44.654 313.663 43.908 311.294 44.06Z" fill="#2D2D2D"/>
<path fill-rule="evenodd" clip-rule="evenodd" d="M274.553 64.097C279.239 66.873 288.267 73.176 297.982 85.05C291.46 95.038 282.229 109.109 277.891 115.714C274.788 120.442 270.879 124.59 266.345 127.968C259.857 132.813 253.3 135.424 247.634 136.794C238.163 139.084 231.181 137.908 231.181 137.908C220.755 160.375 206.014 154.488 206.014 154.488V173.524C205.635 182.683 201.642 190.345 198.524 195.001C196.64 197.81 194.208 200.208 191.377 202.053C190.986 202.309 190.575 202.575 190.148 202.853C183.769 207.01 175.418 206.486 169.61 201.563C164.895 197.569 162.097 191.763 161.906 185.587L160.77 148.682H176.173C175.886 144.773 176.125 124.427 177.737 119.229C178.367 117.194 178.997 115.691 179.684 114.425C180.894 112.59 185.907 105.525 193.524 101.902C196.089 100.686 198.896 100.062 201.735 100.075C210.024 100.09 239.909 98.801 258.81 80.336C258.81 80.336 265.785 72.763 274.553 64.097Z" fill="#505050"/>
<path fill-rule="evenodd" clip-rule="evenodd" d="M176.132 147.928H176.188V183.765C176.188 184.029 175.983 184.246 175.719 184.257C175.457 184.268 175.231 184.072 175.208 183.81L172.047 148.682H176.173C176.157 148.475 176.143 148.223 176.132 147.928ZM206.014 155.56L204.695 127.201C204.689 127.027 204.808 126.874 204.98 126.842C205.149 126.81 205.319 126.909 205.373 127.074C206.728 131.488 209.507 141.574 211.3 155.161C208.119 155.328 206.014 154.488 206.014 154.488V155.56ZM230.75 138.815C231.73 136.268 235.079 125.758 228.83 114.371C228.69 114.119 228.76 113.802 228.993 113.631C229.226 113.46 229.549 113.489 229.749 113.698C232.73 116.854 237.461 123.78 240.882 137.954C235.027 138.556 231.181 137.908 231.181 137.908C231.039 138.216 230.894 138.519 230.75 138.815Z" fill="#2D2D2D"/>
<path fill-rule="evenodd" clip-rule="evenodd" d="M160.442 129.932C160.299 130.792 160.006 131.745 160.006 131.745L157.312 130.302C156.869 130.073 156.695 129.528 156.924 129.085C157.154 128.642 157.698 128.468 158.141 128.697L160.442 129.932ZM157.014 121.438C157.33 121.364 157.68 121.322 158.064 121.331C159.785 121.371 162.372 122.482 165.459 127.238C165.733 127.656 165.613 128.216 165.195 128.488C164.777 128.759 164.217 128.64 163.944 128.222C161.399 124.3 159.441 123.17 158.021 123.137C156.921 123.112 156.305 123.822 156.305 123.822L156.318 123.732C156.323 122.811 156.612 122.05 157.014 121.438ZM160.047 117.385C160.392 117.341 160.785 117.334 161.225 117.388C162.844 117.587 165.285 118.676 168.381 122.51C168.695 122.898 168.634 123.467 168.246 123.78C167.857 124.093 167.288 124.033 166.977 123.645C161.961 117.435 159.435 119.413 159.435 119.413C159.473 118.595 159.717 117.925 160.047 117.385ZM162.899 113.462C163.276 113.415 163.702 113.397 164.174 113.431C165.918 113.559 168.366 114.415 171.066 117.508C171.394 117.883 171.355 118.454 170.98 118.782C170.606 119.11 170.034 119.072 169.707 118.696C165.985 114.436 162.993 115.184 162.205 115.488C162.302 115.064 162.485 114.514 162.709 113.914C162.765 113.76 162.831 113.609 162.899 113.462ZM171.102 109.279C172.338 110.088 174.036 111.501 175.578 113.815C175.854 114.23 175.741 114.791 175.327 115.068C174.912 115.344 174.35 115.232 174.074 114.817C171.906 111.562 169.183 110.127 169.355 110.159C169.842 109.674 170.457 109.376 171.102 109.279ZM313.987 63.937C313.483 64.37 318.298 58.988 318.298 58.988C319.242 58.205 320.307 59.315 319.628 60.211L315.432 64.773C314.545 64.476 313.987 63.937 313.987 63.937ZM318.914 51.114C319.147 52.052 319.088 52.834 319.088 52.834C319.192 52.876 317.318 53.162 316.322 53.688C314.459 54.671 312.932 56.181 312.932 56.181C312.578 56.531 312.004 56.528 311.654 56.173C311.304 55.818 311.309 55.246 311.663 54.896C311.663 54.896 313.382 53.197 315.48 52.09C316.579 51.509 317.781 51.111 318.914 51.114ZM314.82 46.056C314.919 46.561 314.924 47.179 314.82 47.931C313.702 48.281 311.544 49.221 308.791 51.703C308.421 52.037 307.849 52.007 307.515 51.637C307.181 51.267 307.21 50.695 307.581 50.361C310.981 47.296 313.626 46.346 314.82 46.056ZM313.517 41.93C312.747 42.725 311.982 43.459 311.291 44.06C311.397 44.054 306.883 45.761 304.496 47.302C304.076 47.572 303.518 47.452 303.247 47.033C302.976 46.614 303.096 46.054 303.516 45.784C306.937 43.577 310.534 42.108 313.517 41.93Z" fill="#C7C6C6"/>
<path d="M202.123 90.706C209.327 90.706 215.168 84.866 215.168 77.662C215.168 70.457 209.327 64.617 202.123 64.617C194.919 64.617 189.078 70.457 189.078 77.662C189.078 84.866 194.919 90.706 202.123 90.706Z" fill="#717171"/>
<path fill-rule="evenodd" clip-rule="evenodd" d="M205.015 64.938C210.828 66.255 215.17 71.455 215.17 77.661C215.17 84.86 209.324 90.705 202.125 90.705C201.915 90.705 201.703 90.7 201.495 90.69C199.386 85.935 202.617 83.995 203.484 83.574C204.017 84.02 204.706 84.29 205.458 84.29C207.149 84.29 208.522 82.93 208.522 81.254C208.522 79.579 207.149 78.219 205.458 78.219C204.778 78.219 204.148 78.44 203.638 78.814C198.76 72.166 202.807 67.017 205.015 64.938Z" fill="black"/>
<path fill-rule="evenodd" clip-rule="evenodd" d="M218.071 79.622C217.935 79.584 218.945 79.0481 219.204 78.8771C219.922 78.4041 220.629 77.902 221.295 77.357C223.31 75.707 224.581 73.722 225.979 71.565C230.725 64.237 238.365 56.829 247.573 56.466C263.861 55.826 272.89 74.264 270.518 88.412C268.721 99.143 257.342 104.764 247.169 103.265C241.126 102.375 235.294 98.895 231.238 94.374C228.856 91.717 227.058 88.601 225.096 85.637C223.33 82.966 221.469 80.007 218.071 79.622Z" fill="black"/>
</svg>
